<svg width="28" height="15" viewBox="0 0 28 15" xmlns="http://www.w3.org/2000/svg">
    <defs>
        <filter color-interpolation-filters="auto" id="a">
            <feColorMatrix in="SourceGraphic" values="0 0 0 0 0.309804 0 0 0 0 0.388235 0 0 0 0 0.498039 0 0 0 1.000000 0"/>
        </filter>
    </defs>
    <g fill="none" fill-rule="evenodd">
        <g filter="url(#a)">
            <path d="M.31.295h1.823l1.823 2 1.822-2H7.6l-3.645 4-3.645-4z" fill="#062B47"/>
        </g>
        <path d="m24.813.634 1.571 1.305c.457.38.407 1.044-.022 1.556L18.7 12.628c-.176.21-.361.4-.599.477l-2.165.492c-.622.092-.706.022-.724-.608l.076-2.12c-.009-.302.146-.571.35-.816L23.292.932c.426-.51 1.067-.675 1.522-.298zM12.657 11c-.583 0-1.063.442-1.125 1.01l-.006.124c0 .585.44 1.066 1.008 1.128l.123.006c.583 0 1.063-.442 1.125-1.01l.006-.124c0-.585-.44-1.066-1.008-1.127L12.657 11zM9.394 11c-.583 0-1.063.442-1.125 1.01l-.006.124c0 .585.441 1.066 1.008 1.128l.123.006c.584 0 1.064-.442 1.125-1.01l.007-.124c0-.585-.441-1.066-1.009-1.127L9.394 11zM6.131 11c-.583 0-1.063.442-1.124 1.01L5 12.134c0 .585.441 1.066 1.008 1.128l.123.006c.584 0 1.064-.442 1.125-1.01l.007-.124c0-.585-.441-1.066-1.008-1.127L6.13 11z" fill="#4F637F"/>
    </g>
</svg>
