<svg xmlns="http://www.w3.org/2000/svg" xmlns:xlink="http://www.w3.org/1999/xlink" width="21" height="16" viewBox="0 0 21 16">
    <defs>
        <path id="98twkpnn7a" d="M0 0H21V16H0z"/>
    </defs>
    <g fill="none" fill-rule="evenodd">
        <mask id="tu33k7hq3b" fill="#fff">
            <use xlink:href="#98twkpnn7a"/>
        </mask>
        <use fill="#D8D8D8" fill-opacity="0" xlink:href="#98twkpnn7a"/>
        <g fill="#0E75C3" mask="url(#tu33k7hq3b)">
            <path d="M14.999.11c.552 0 1 .473 1 1.056v13.722c0 .583-.448 1.055-1 1.055h-14c-.553 0-1-.472-1-1.055V1.166C-.001.583.446.11.999.11h14zm-1 2.112h-12l-.001 8.777h2.001l1 2h6l1-2h2V2.222zm-2 5.777v1H4V8h8zm0-2v1H4V6h8zm0-2v1H4V4h8z"/>
            <path stroke="#E8F4FD" stroke-width="1.5" d="M15.528 4.485c.5 0 .952.202 1.28.53.326.327.529.779.529 1.278h0V8.72h2.426c.5 0 .952.202 1.28.53.327.327.53.779.53 1.279 0 .5-.203.951-.53 1.279-.328.327-.78.53-1.28.53h0l-2.427-.001v2.427c0 .5-.202.952-.529 1.279-.327.327-.78.53-1.279.53-.5 0-.952-.203-1.279-.53-.327-.327-.53-.78-.53-1.279h0v-2.427h-2.426c-.5 0-.952-.202-1.279-.53-.327-.327-.53-.779-.53-1.278 0-.5.203-.952.53-1.28.327-.327.78-.529 1.279-.529h2.426V6.293c0-.5.203-.952.53-1.279.328-.327.78-.53 1.28-.53z"/>
        </g>
    </g>
</svg>
