<svg xmlns="http://www.w3.org/2000/svg" width="14" height="14" viewBox="0 0 14 14">
    <g fill="none" fill-rule="evenodd">
        <g fill="#525C73">
            <g>
                <g>
                    <path d="M6.521 0c1.695 0 3.037.443 4.138 1.224.377.267.725.717.463 1.041-.262.324-.78-.053-1.049-.237-.946-.647-2.09-1.025-3.323-1.025C3.493 1.003.853 3.643.853 6.9s2.64 5.898 5.897 5.898 6.75-2.553 6.75-6.355V6.9c0 3.728-2.378 6.75-6.75 6.75C3.022 13.65 0 10.628 0 6.9S2.793 0 6.521 0z" transform="translate(-1075.000000, -1027.000000) translate(494.000000, 1024.000000) translate(581.000000, 3.000000)"/>
                    <path d="M6.91 3.15c.399 0 .643.27.734.81v2.242h2.242c.516.102.773.351.773.748 0 .398-.257.647-.773.748H7.643V9.94c-.098.459-.348.688-.747.688-.4 0-.648-.23-.748-.688V7.697l-2.242.001c-.498-.096-.747-.356-.747-.78 0-.422.25-.66.747-.715h2.242V3.96c.11-.54.363-.81.762-.81z" transform="translate(-1075.000000, -1027.000000) translate(494.000000, 1024.000000) translate(581.000000, 3.000000)"/>
                </g>
            </g>
        </g>
    </g>
</svg>
