<svg width="21" height="16" viewBox="0 0 21 16" xmlns="http://www.w3.org/2000/svg" xmlns:xlink="http://www.w3.org/1999/xlink">
    <defs>
        <path id="a" d="M0 0h21v16H0z"/>
    </defs>
    <g fill="none" fill-rule="evenodd">
        <mask id="b" fill="#fff">
            <use xlink:href="#a"/>
        </mask>
        <use fill-opacity="0" fill="#D8D8D8" xlink:href="#a"/>
        <g mask="url(#b)" fill="#4F637F">
            <path d="M14.999.11c.552 0 1 .473 1 1.056l-.001 2.437L15.9 3.6c-.722 0-1.384.255-1.902.68V2.222h-12v8.777h2.001l1 2h6l.014-.029c.126.02.255.03.387.03l1.5-.001V14.6c0 .483.114.94.317 1.344H.999c-.553 0-1-.473-1-1.056V1.166C-.001.583.446.11.999.11h14zm-3 7.889L11.4 8c-.817 0-1.543.392-2 .999H4V8h8zm0-2v1H4V6h8zm0-2v1H4V4h8z"/>
            <path d="M15.528 5.235c.585 0 1.059.473 1.059 1.058V9.47h3.176a1.059 1.059 0 1 1 0 2.117h-3.177v3.177a1.058 1.058 0 1 1-2.117 0v-3.177h-3.176a1.059 1.059 0 0 1 0-2.117h3.176V6.293c0-.585.474-1.058 1.06-1.058z"/>
        </g>
    </g>
</svg>
