<svg xmlns="http://www.w3.org/2000/svg" xmlns:xlink="http://www.w3.org/1999/xlink" width="16" height="19" viewBox="0 0 16 19">
    <defs>
        <path id="ncng96li8a" d="M0 0H16V19H0z"/>
    </defs>
    <g fill="none" fill-rule="evenodd">
        <g>
            <g>
                <g transform="translate(-370 -712) translate(99 712) translate(271)">
                    <mask id="tkplb4fu2b" fill="#fff">
                        <use xlink:href="#ncng96li8a"/>
                    </mask>
                    <path fill="#525C73" d="M8 1.5c.552 0 1 .448 1 1v6h6c.552 0 1 .448 1 1s-.448 1-1 1H9v6c0 .552-.448 1-1 1s-1-.448-1-1l-.001-6H1c-.552 0-1-.448-1-1s.448-1 1-1h6v-6c0-.552.448-1 1-1z" mask="url(#tkplb4fu2b)"/>
                </g>
            </g>
        </g>
    </g>
</svg>
