<svg xmlns="http://www.w3.org/2000/svg" width="17" height="17" viewBox="0 0 17 17">
    <g fill="none" fill-rule="evenodd">
        <g fill="#DF0000">
            <path d="M223.5 1289c4.694 0 8.5 3.806 8.5 8.5 0 4.695-3.806 8.5-8.5 8.5s-8.5-3.805-8.5-8.5c0-4.694 3.806-8.5 8.5-8.5zm0 12.278c-.522 0-.944.423-.944.944 0 .522.422.945.944.945s.944-.423.944-.945c0-.521-.422-.944-.944-.944zm0-9.445c-.522 0-.944.423-.944.945v6.61c0 .522.422.945.944.945s.944-.423.944-.944v-6.611c0-.522-.422-.945-.944-.945z" transform="translate(-215 -1289)"/>
        </g>
    </g>
</svg>
