<svg width="26" height="26" viewBox="0 0 26 26" xmlns="http://www.w3.org/2000/svg">
    <g fill="none" fill-rule="evenodd">
        <rect fill="#CF003A" width="26" height="26" rx="13"/>
        <g fill="#FFF">
            <path d="M11.397 11.359a2.285 2.285 0 1 1-4.57 0 2.285 2.285 0 0 1 4.57 0zm-1.4 4.126c.23 0 .418.182.418.406v.81a.411.411 0 0 1-.417.406h-.833a.411.411 0 0 1-.417-.406v-.81c0-.224.187-.406.417-.406h.833zm3.333-1.62c.23 0 .417.18.417.405v.81a.412.412 0 0 1-.417.405h-.833a.411.411 0 0 1-.417-.405v-.81c0-.224.187-.405.417-.405h.833zm-6.664 0c.23 0 .416.18.416.405v.81a.411.411 0 0 1-.416.405h-.833a.411.411 0 0 1-.417-.405v-.81a.41.41 0 0 1 .417-.405h.833zm8.33-3.242a.41.41 0 0 1 .416.405v.81a.41.41 0 0 1-.416.406h-.833a.41.41 0 0 1-.416-.406v-.81a.41.41 0 0 1 .416-.405h.833zm-9.996 0a.41.41 0 0 1 .416.405v.81a.411.411 0 0 1-.416.406h-.833a.411.411 0 0 1-.417-.406v-.81c0-.224.187-.405.417-.405H5zM6.666 7.38c.23 0 .416.182.416.406v.81a.411.411 0 0 1-.416.405h-.833a.41.41 0 0 1-.417-.405v-.81c0-.224.187-.406.417-.406h.833zm6.664 0c.23 0 .417.182.417.406v.81a.412.412 0 0 1-.417.405h-.833a.411.411 0 0 1-.417-.405v-.81c0-.224.187-.406.417-.406h.833zM9.998 5.76c.23 0 .417.18.417.405v.81a.411.411 0 0 1-.417.405h-.833a.411.411 0 0 1-.417-.405v-.81c0-.224.187-.405.417-.405h.833z"/>
            <path d="M16.6 8.6a5.8 5.8 0 1 1 0 11.6 5.8 5.8 0 0 1 0-11.6zm.15 8a1.05 1.05 0 1 0 0 2.1 1.05 1.05 0 0 0 0-2.1zm0-6.3c-.538 0-.982.442-1.043.85l-.007.093v3.407c0 .43.47.904 1.05.904.538 0 .982-.409 1.043-.811l.007-.093v-3.407c0-.43-.47-.943-1.05-.943z"/>
        </g>
    </g>
</svg>
