<svg width="43" height="24" viewBox="0 0 43 24" xmlns="http://www.w3.org/2000/svg">
    <g fill="none" fill-rule="evenodd">
        <rect fill="#CA0748" width="43" height="24" rx="12"/>
        <path d="M25.147 10.359a2.285 2.285 0 1 1-4.57 0 2.285 2.285 0 0 1 4.57 0zm-1.4 4.126c.23 0 .418.182.418.406v.81a.411.411 0 0 1-.417.406h-.833a.411.411 0 0 1-.417-.406v-.81c0-.224.187-.406.417-.406h.833zm3.333-1.62c.23 0 .417.18.417.405v.81a.412.412 0 0 1-.417.405h-.833a.411.411 0 0 1-.417-.405v-.81c0-.224.187-.405.417-.405h.833zm-6.664 0c.23 0 .416.18.416.405v.81a.411.411 0 0 1-.416.405h-.833a.411.411 0 0 1-.417-.405v-.81a.41.41 0 0 1 .417-.405h.833zm8.33-3.242a.41.41 0 0 1 .416.405v.81a.41.41 0 0 1-.416.406h-.833a.41.41 0 0 1-.416-.406v-.81a.41.41 0 0 1 .416-.405h.833zm-9.996 0a.41.41 0 0 1 .416.405v.81a.411.411 0 0 1-.416.406h-.833a.411.411 0 0 1-.417-.406v-.81c0-.224.187-.405.417-.405h.833zm1.666-3.243c.23 0 .416.182.416.406v.81a.411.411 0 0 1-.416.405h-.833a.41.41 0 0 1-.417-.405v-.81c0-.224.187-.406.417-.406h.833zm6.664 0c.23 0 .417.182.417.406v.81a.412.412 0 0 1-.417.405h-.833a.411.411 0 0 1-.417-.405v-.81c0-.224.187-.406.417-.406h.833zm-3.332-1.62c.23 0 .417.18.417.405v.81a.411.411 0 0 1-.417.405h-.833a.411.411 0 0 1-.417-.405v-.81c0-.224.187-.405.417-.405h.833z" fill="#FFF"/>
        <g transform="translate(24.55 7.6)">
            <circle fill="#FFF" cx="5.8" cy="5.8" r="5.8"/>
            <path d="M5.95 8a1.05 1.05 0 1 1-.001 2.101A1.05 1.05 0 0 1 5.95 8zm0-6.3c.58 0 1.05.513 1.05.943V6.05c0 .43-.47.904-1.05.904-.58 0-1.05-.474-1.05-.904V2.643c0-.43.47-.943 1.05-.943z" fill="#CF003A"/>
        </g>
    </g>
</svg>
