<?xml version="1.0" encoding="UTF-8"?>
<svg width="10px" height="9px" viewBox="0 0 10 9" version="1.1" xmlns="http://www.w3.org/2000/svg" xmlns:xlink="http://www.w3.org/1999/xlink">
    <title>D81D2F4E-EE38-4367-ACCF-685ADAA4F038</title>
    <g id="Patient-sheet" stroke="none" stroke-width="1" fill="none" fill-rule="evenodd">
        <g id="15.2-Icons" transform="translate(-467.000000, -1557.000000)" fill="#0E75C3">
            <g id="arrow-left-double-copy" transform="translate(467.000000, 1557.000000)">
                <path d="M4.14005678,0.188590894 C4.16115449,0.204288605 4.1815938,0.220852338 4.20132231,0.238239612 L4.28787578,0.314521558 C4.67817737,0.658505048 4.73953078,1.24429134 4.42897298,1.66168063 L2.319,4.495 L4.42897298,7.32964067 C4.73953078,7.74702996 4.67817737,8.33281625 4.28787578,8.67679974 L4.20132231,8.75308169 C3.80622944,9.10128787 3.2036665,9.06327869 2.85546032,8.66818582 C2.83807305,8.64845731 2.82150931,8.628018 2.8058116,8.60692029 L0.197749295,5.10168785 C0.0627892583,4.92030173 -0.00193397202,4.70711321 5.35974233e-05,4.4957877 C-0.00193397202,4.28420808 0.0627892583,4.07101957 0.197749295,3.88963345 L2.8058116,0.384401006 C3.12018177,-0.0381120961 3.71754368,-0.125779269 4.14005678,0.188590894 Z" id="Combined-Shape"></path>
                <path d="M8.76676986,0.188590894 C8.78786756,0.204288605 8.80830688,0.220852338 8.82803538,0.238239612 L8.91458885,0.314521558 C9.30489044,0.658505048 9.36624385,1.24429134 9.05568605,1.66168063 L6.94571307,4.495 L9.05568605,7.32964067 C9.36624385,7.74702996 9.30489044,8.33281625 8.91458885,8.67679974 L8.82803538,8.75308169 C8.43294251,9.10128787 7.83037958,9.06327869 7.4821734,8.66818582 C7.46478612,8.64845731 7.44822239,8.628018 7.43252468,8.60692029 L4.82446237,5.10168785 C4.68950233,4.92030173 4.6247791,4.70711321 4.62676667,4.4957877 C4.6247791,4.28420808 4.68950233,4.07101957 4.82446237,3.88963345 L7.43252468,0.384401006 C7.74689484,-0.0381120961 8.34425676,-0.125779269 8.76676986,0.188590894 Z" id="Combined-Shape-Copy"></path>
            </g>
        </g>
    </g>
</svg>