<svg xmlns="http://www.w3.org/2000/svg" width="21" height="19" viewBox="0 0 21 19">
    <path fill="#383F51" fill-rule="evenodd" d="M10.57.285c.631 0 1.143.511 1.143 1.143v1.143h5.714c.631 0 1.143.511 1.143 1.143 0 .63-.512 1.142-1.143 1.142h-.365l-.177.429 3.526 8.52c.242.185.397.4.435.643l.01.122c0 .095-.004.189-.011.282v.003c-.168 2.077-2.146 3.715-4.56 3.715-2.415 0-4.392-1.638-4.56-3.713l-.002-.002c-.006-.097-.01-.19-.01-.285 0-.294.163-.55.445-.766l3.525-8.519-.177-.429H5.633l-.177.429 3.527 8.52c.242.185.396.4.434.643l.01.122c0 .094-.004.188-.01.28v.005c-.17 2.077-2.146 3.715-4.56 3.715-2.415 0-4.393-1.638-4.561-3.713l-.002-.002c-.006-.097-.01-.19-.01-.285 0-.294.163-.55.445-.766l3.526-8.52-.177-.428h-.365c-.631 0-1.143-.511-1.143-1.142 0-.632.512-1.143 1.143-1.143h5.714V1.428c0-.632.512-1.143 1.143-1.143zm5.714 6.451l-2.673 6.46c1.567-.377 3.78-.377 5.348 0l-2.675-6.46zm-11.429 0l-2.673 6.46c1.567-.377 3.781-.377 5.349.001L4.855 6.736z"/>
</svg>
