<svg width="11" height="13" viewBox="0 0 11 13" xmlns="http://www.w3.org/2000/svg">
    <g fill="#C2C7D1" fill-rule="evenodd">
        <path d="M4.805 0c.346 0 .627.286.627.64 0 .317-.227.407-.525.456l-.102.009H1.52c-.202 0-.37.32-.41.514l-.008.086.009 9.814c0 .206.143.377.334.417l.084.009h7.809c.202 0 .521-.232.56-.426l.009-.086-.009-4.888c0-.353.13-.553.476-.553.312 0 .57.11.619.414L11 6.63v4.664c0 .89-.667 1.62-1.52 1.698L9.33 13H1.67C.8 13 .084 12.32.007 11.45L0 11.295v-9.59C0 .815.667.085 1.52.007L1.67 0h3.134z" fill-rule="nonzero"/>
        <path d="M2.294 2.294h2.294v1H2.294zM2.294 6.118h2.294v1H2.294zM2.676 8.03h5v1h-5z"/>
        <path d="M7.941 8.03v2.676h-.765V8.029zM3.059 8.03v2.676h-.765V8.029z"/>
        <path d="M2.676 9.941h5v1h-5zM2.294 4.206h3.06v1h-3.06zM10.623 3.751a.455.455 0 1 1-.91 0V2.018L7.594 4.01a.472.472 0 0 1-.667-.021l-.014-.016a.516.516 0 0 1 .038-.712l1.937-1.82H7.362a.53.53 0 0 1 0-1.059h2.761a.5.5 0 0 1 .5.5v2.869z"/>
    </g>
</svg>
