<svg width="11" height="13" viewBox="0 0 11 13" xmlns="http://www.w3.org/2000/svg">
    <g fill="none" fill-rule="evenodd">
        <path stroke="#C2C7D1" stroke-width="1.3" stroke-linecap="round" stroke-linejoin="round" d="m2.888 7.295 1.684 2.638 1.455-6.4h2"/>
        <path d="M11 3.88c-.001.277-.07.597-.557.599-.487.002-.569-.366-.569-.808 0-.397-.01-2.012-.027-2.249-.007-.093-.223-.284-.3-.287-.407-.015-.476-.008-.652-.008-1.539 0-3.951.002-7.238.006a.44.44 0 0 0-.434.34l-.009.086v9.875a.43.43 0 0 0 .353.418l.09.009h8.773c.306-.01.56.205.56.568 0 .362-.201.564-.61.564L1.77 13C.848 13 .09 12.32.008 11.45L0 11.295v-9.59C0 .815.707.085 1.61.007L1.77 0c3.254-.003 5.655-.003 7.203 0 .82.002 1.934.24 2.016 1.602.009.134.012 2.124.01 2.278z" fill="#C2C7D1" fill-rule="nonzero"/>
        <path stroke="#C2C7D1" fill="#C2C7D1" fill-rule="nonzero" stroke-linejoin="round" d="m7.451 9.973 1.371-1.63 1.375 1.63h.251L8.95 8.192 10.373 6.5h-.255L8.826 8.04 7.53 6.5h-.255l1.424 1.692L7.2 9.973z"/>
    </g>
</svg>
