<svg width="13" height="15" viewBox="0 0 13 15" xmlns="http://www.w3.org/2000/svg">
    <g fill="none" fill-rule="evenodd">
        <path stroke="#1A91EB" stroke-width="1.3" stroke-linecap="round" stroke-linejoin="round" d="m3.331 8.419 1.944 3.043 1.678-7.384H9.26"/>
        <path d="M12.69 4.479c-.002.32-.081.688-.643.691-.562.002-.656-.423-.656-.932 0-.458-.011-2.32-.031-2.594-.008-.109-.257-.329-.347-.332-.468-.018-.549-.01-.752-.01-1.774 0-4.558.003-8.35.007a.507.507 0 0 0-.5.393l-.01.1v11.392c0 .237.175.436.407.481l.103.01H12.032c.354-.01.646.238.646.656 0 .418-.232.651-.704.651L2.043 15c-1.066 0-1.94-.785-2.035-1.788L0 13.033V1.97C0 .944.816.1 1.857.01l.186-.007c3.753-.004 6.523-.004 8.309 0 .946.002 2.23.276 2.326 1.847.01.155.013 2.451.012 2.629z" fill="#1A91EB" fill-rule="nonzero"/>
        <path stroke="#1A91EB" fill="#0083E7" fill-rule="nonzero" stroke-linejoin="round" d="m8.596 11.508 1.582-1.881 1.586 1.881h.29l-1.73-2.055L11.968 7.5h-.294L10.182 9.28 8.686 7.5h-.293l1.642 1.952-1.729 2.055z"/>
    </g>
</svg>
