<svg width="12" height="14" viewBox="0 0 12 14" xmlns="http://www.w3.org/2000/svg">
    <defs>
        <filter color-interpolation-filters="auto" id="a">
            <feColorMatrix in="SourceGraphic" values="0 0 0 0 0.760784 0 0 0 0 0.780392 0 0 0 0 0.819608 0 0 0 1.000000 0"/>
        </filter>
    </defs>
    <g transform="translate(-553 -1167)" filter="url(#a)" fill="none" fill-rule="evenodd">
        <g fill="#1A91EB">
            <path d="M558.175 1167c.373 0 .675.308.675.689 0 .342-.245.438-.566.492l-.109.009h-3.539c-.217 0-.399.344-.44.554l-.01.092.01 10.569c0 .222.154.407.359.45l.09.009h8.41c.218 0 .562-.25.604-.46l.009-.092-.01-5.263c0-.38.14-.596.513-.596.336 0 .614.119.666.446l.01.242v5.023c0 .958-.72 1.744-1.637 1.828l-.164.008H554.8c-.939 0-1.71-.733-1.793-1.669l-.007-.167v-10.328c0-.958.719-1.744 1.636-1.828l.164-.008h3.375z" fill-rule="nonzero"/>
            <path d="M555.47 1169.47h2.472v1h-2.471zM555.47 1173.589h2.472v1h-2.471zM555.882 1175.647h5.385v1h-5.385z"/>
            <path d="M561.552 1175.647v2.882h-.823v-2.882zM556.294 1175.647v2.882h-.823v-2.882z"/>
            <path d="M555.882 1177.706h5.385v1h-5.385zM555.47 1171.53h3.295v1h-3.294zM564.44 1171.04a.49.49 0 0 1-.98 0v-1.866l-2.281 2.144a.508.508 0 0 1-.734-.039.556.556 0 0 1 .04-.767l2.087-1.96h-1.644a.57.57 0 1 1 0-1.14h3.012a.5.5 0 0 1 .5.5v3.128z"/>
        </g>
    </g>
</svg>
