<?xml version="1.0" encoding="UTF-8"?>
<svg width="5px" height="9px" viewBox="0 0 5 9" version="1.1" xmlns="http://www.w3.org/2000/svg" xmlns:xlink="http://www.w3.org/1999/xlink">
    <title>E8C2692A-1F78-4EA1-84A7-009239DBD118</title>
    <g id="Patient-sheet" stroke="none" stroke-width="1" fill="none" fill-rule="evenodd">
        <g id="15.2-Icons" transform="translate(-500.000000, -1557.000000)" fill="#0E75C3">
            <path d="M504.140057,1557.18859 C504.161154,1557.20429 504.181594,1557.22085 504.201322,1557.23824 L504.287876,1557.31452 C504.678177,1557.65851 504.739531,1558.24429 504.428973,1558.66168 L502.319,1561.495 L504.428973,1564.32964 C504.739531,1564.74703 504.678177,1565.33282 504.287876,1565.6768 L504.201322,1565.75308 C503.806229,1566.10129 503.203667,1566.06328 502.85546,1565.66819 C502.838073,1565.64846 502.821509,1565.62802 502.805812,1565.60692 L500.197749,1562.10169 C500.062789,1561.9203 499.998066,1561.70711 500.000054,1561.49579 C499.998066,1561.28421 500.062789,1561.07102 500.197749,1560.88963 L502.805812,1557.3844 C503.120182,1556.96189 503.717544,1556.87422 504.140057,1557.18859 Z" id="calendar-arrow-right-copy" transform="translate(502.313357, 1561.495637) scale(-1, 1) translate(-502.313357, -1561.495637) "></path>
        </g>
    </g>
</svg>