<?xml version="1.0" encoding="UTF-8"?>
<svg width="5px" height="9px" viewBox="0 0 5 9" version="1.1" xmlns="http://www.w3.org/2000/svg" xmlns:xlink="http://www.w3.org/1999/xlink">
    <title>B16CE590-C3B7-4E70-B7BF-14AD62E028AB</title>
    <g id="Patient-sheet" stroke="none" stroke-width="1" fill="none" fill-rule="evenodd">
        <g id="15.2-Icons" transform="translate(-484.000000, -1557.000000)" fill="#0E75C3">
            <path d="M488.140057,1557.18859 C488.161154,1557.20429 488.181594,1557.22085 488.201322,1557.23824 L488.287876,1557.31452 C488.678177,1557.65851 488.739531,1558.24429 488.428973,1558.66168 L486.319,1561.495 L488.428973,1564.32964 C488.739531,1564.74703 488.678177,1565.33282 488.287876,1565.6768 L488.201322,1565.75308 C487.806229,1566.10129 487.203667,1566.06328 486.85546,1565.66819 C486.838073,1565.64846 486.821509,1565.62802 486.805812,1565.60692 L484.197749,1562.10169 C484.062789,1561.9203 483.998066,1561.70711 484.000054,1561.49579 C483.998066,1561.28421 484.062789,1561.07102 484.197749,1560.88963 L486.805812,1557.3844 C487.120182,1556.96189 487.717544,1556.87422 488.140057,1557.18859 Z" id="calendar-arrow-left-copy"></path>
        </g>
    </g>
</svg>