<svg xmlns="http://www.w3.org/2000/svg" width="12" height="17" viewBox="0 0 12 17">
    <path fill="#0E75C3" fill-rule="evenodd" d="M6.101 11.109c.465.63.93 1.05 1.861.63l1.163-.42c.59-.236.934.147 1.197.677l1.226 2.47c.263.529.261 1.026-.33 1.261-1.181.47-2.62.733-3.954.42-1.628-.382-2.942-2.102-3.49-2.729-.547-.627-1.16-1.738-1.861-3.149C1.213 8.86.67 7.485.517 6.701c-.153-.785-.54-2.65.233-3.989C1.384 1.614 2.36.875 3.542.402c.59-.235 1.133-.109 1.395.42l1.396 2.52c.263.53.358 1.024-.232 1.26l-1.629.629c-.59.236-.728.73-.465 1.26L6.1 11.109z"/>
</svg>
