<svg xmlns="http://www.w3.org/2000/svg" width="18" height="19" viewBox="0 0 18 19">
    <g fill="none" fill-rule="evenodd">
        <g>
            <g>
                <g>
                    <path fill="#1A91EB" d="M9.5 0c1.735 0 3.36.465 4.76 1.277.251.145 1.226.695.822 1.244-.404.55-1.346-.16-1.471-.233C12.399 1.596 10.996 1.2 9.5 1.2c-4.584 0-8.3 3.716-8.3 8.3 0 4.584 3.716 8.3 8.3 8.3 2.445 0 5.645-.91 7.483-2.67.157-.15.55-.577.763-.91.462-.72.061-.102-.056.096C16.038 17.12 12.99 19 9.5 19 4.253 19 0 14.747 0 9.5S4.253 0 9.5 0z" transform="translate(-836.000000, -1024.000000) translate(494.000000, 1024.000000) translate(342.000000, 0.000000)"/>
                    <path fill="#D2174B" d="M17.064 5.608c0 .107-3.089 1.136-5.022 3.529 1.349.87 4.47 5.13 3.04 5.25-.127.01-1.17-1.141-1.392-1.393-.907-1.027-1.962-1.91-3.166-2.648-.813.948-1.426 2.035-1.914 2.894l-.182.322c-.484.867-1.01 1.349-1.606 1.107-.55-.223-1.027-.525-.658-1.43 1.025-2.52 2.571-3.788 2.755-3.989-.822-.689-1.46-1.147-2.097-1.497L5.993 7.3l-.148-.085-.27-.166c-.419-.274-.662-.528-.546-.793.275-.63 2.019-.154 3.614.711.556.302 1.107.662 1.642 1.06 1.874-1.68 3.999-2.426 5.193-2.61 1.052-.161 1.586.083 1.586.19z" transform="translate(-836.000000, -1024.000000) translate(494.000000, 1024.000000) translate(342.000000, 0.000000)"/>
                </g>
            </g>
        </g>
    </g>
</svg>
