<svg xmlns="http://www.w3.org/2000/svg" width="22" height="22" viewBox="0 0 22 22">
    <g fill="none" fill-rule="evenodd">
        <g fill="#1E9AF9">
            <g>
                <path d="M135 0c6.075 0 11 4.925 11 11s-4.925 11-11 11-11-4.925-11-11 4.925-11 11-11zm6.07 6.304l-.194.002-.225.015-.124.014-.27.04-.298.06-.324.081c-1.234.337-2.964 1.135-4.838 2.816-.534-.399-1.086-.759-1.642-1.06-1.595-.866-3.339-1.342-3.614-.711-.115.264.127.519.546.792l.27.166.149.085.829.454c.637.35 1.335.884 2.157 1.573-.183.2-.367.41-.551.63l-.22.27-.28.357-.315.417-.324.448c-.429.607-.817 1.224-.902 1.558-.238.934-.037 1.427.514 1.65.596.242 1.042-.227 1.527-1.094l.181-.323c.488-.858 1.016-1.707 1.829-2.655l1.157 1.006.481.425c.154.138.301.273.442.404l.402.384.536.53 1.067 1.1.28.274c.25.233.416.335.521.276.595-.336-.244-2.028-1.777-3.854l-.366-.423c-.44-.495-.926-.993-1.444-1.47.957-.901 2.203-1.91 3.89-3.091l.3-.201.66-.418.196-.133c.17-.125.255-.222.2-.293-.022-.026-.069-.05-.14-.068l-.126-.021-.16-.012z" transform="translate(-618.000000, -1024.000000) translate(494.000000, 1024.000000)"/>
            </g>
        </g>
    </g>
</svg>
