<svg width="14" height="15" viewBox="0 0 14 15" xmlns="http://www.w3.org/2000/svg">
    <g fill="none" fill-rule="evenodd">
        <path d="M7.125.5c1.301 0 2.52.349 3.57.958.188.109.92.52.616.933-.303.412-1.009-.12-1.103-.175A6.225 6.225 0 1 0 7.125 13.85c1.834 0 4.234-.683 5.612-2.003.118-.112.413-.433.573-.681.346-.541.045-.078-.042.071A7.125 7.125 0 1 1 7.125.5z" fill="#1A91EB"/>
        <path d="M12.884 4.192c0 .084-2.432.895-3.955 2.78 1.062.685 3.52 4.04 2.395 4.133-.1.008-.923-.898-1.097-1.096a10.876 10.876 0 0 0-2.493-2.085c-.64.746-1.123 1.602-1.507 2.278l-.143.254c-.382.683-.796 1.062-1.265.872-.434-.176-.809-.414-.519-1.126.808-1.984 2.025-2.983 2.17-3.142-.647-.542-1.149-.903-1.651-1.178l-.653-.357a8.94 8.94 0 0 1-.117-.067l-.213-.131c-.33-.215-.52-.416-.43-.624.218-.497 1.59-.122 2.847.56.437.237.872.52 1.293.835 1.475-1.324 3.148-1.911 4.089-2.056.828-.127 1.249.066 1.249.15z" fill="#D2174B"/>
    </g>
</svg>
