<svg xmlns="http://www.w3.org/2000/svg" xmlns:xlink="http://www.w3.org/1999/xlink" width="23" height="20" viewBox="0 0 23 20">
    <defs>
        <path id="c16pd2gkea" d="M0 0.435H23V19.435H0z"/>
        <path id="4fbn9mpicc" d="M5.25 11.677c3.435.1 5.25-2.328 5.25-5.2C10.5 3.605 8.15 0 5.25 0S0 3.605 0 6.477c0 2.872 1.815 5.1 5.25 5.2z"/>
    </defs>
    <g fill="none" fill-rule="evenodd">
        <g>
            <g transform="translate(-904 -750) translate(904 750)">
                <mask id="oamxywh22b" fill="#fff">
                    <use xlink:href="#c16pd2gkea"/>
                </mask>
                <g mask="url(#oamxywh22b)">
                    <g transform="translate(6.32 3.659)">
                        <mask id="udy6xwbcrd" fill="#fff">
                            <use xlink:href="#4fbn9mpicc"/>
                        </mask>
                        <path fill="#7887A9" d="M5.289 5.777c3.307 0 4.511 3.59 4.511 4.748 0 1.157-.128 1.252-.52 1.252H1.32c-.316 0-.52-.094-.52-1.252s1.182-4.748 4.489-4.748zm.011-5c1.38 0 2.5 1.119 2.5 2.5 0 1.38-1.12 2.5-2.5 2.5s-2.5-1.12-2.5-2.5c0-1.381 1.12-2.5 2.5-2.5z" mask="url(#udy6xwbcrd)"/>
                    </g>
                </g>
                <g fill="#7887A9" fill-rule="nonzero" mask="url(#oamxywh22b)">
                    <g>
                        <path d="M7.34 1.264c3.029-1.055 5.813-.36 7.717.778 1.493.892 2.663 2.36 3.41 3.825l2.062-.918-1.489 5.26-4.905-2.413 2.061-.92c-1.199-2.353-3.738-4.933-7.348-4.583-2.024.197-3.847 1.093-5.132 2.524-.572.637-1.042 1.334-1.307 2.096l-.107.34c-.005.011-.008.014-.01.01l-.002-.032.013-.118.037-.195.064-.263.092-.321.08-.242.046-.129.103-.27.12-.285.137-.298.157-.307c.718-1.349 2.049-2.79 4.2-3.539z" transform="rotate(27 11.473 11.97)"/>
                        <path d="M6.145 10.814c3.029-1.055 5.814-.36 7.717.778 1.494.893 2.664 2.361 3.41 3.825l2.063-.918-1.49 5.26-4.905-2.413 2.062-.919c-1.2-2.353-3.739-4.934-7.349-4.583-2.024.196-3.846 1.092-5.131 2.523-.573.638-1.042 1.335-1.307 2.096l-.108.341c-.004.01-.008.013-.01.01l-.002-.032.014-.119.037-.195.063-.263.093-.32.08-.243.045-.129.103-.27.12-.285.138-.297.156-.308c.718-1.349 2.049-2.789 4.2-3.539z" transform="rotate(27 11.473 11.97) rotate(172 10.215 15.026)"/>
                    </g>
                </g>
            </g>
        </g>
    </g>
</svg>
