<svg xmlns="http://www.w3.org/2000/svg" width="18" height="19" viewBox="0 0 18 19">
    <g fill="none" fill-rule="evenodd">
        <g fill="#525C73">
            <g>
                <path d="M137.25 17.5c.414 0 .75.336.75.75s-.336.75-.75.75h-16.5c-.414 0-.75-.336-.75-.75s.336-.75.75-.75h16.5zM131.284.296l6.42 6.42c.395.394.395 1.033 0 1.427l-8.56 8.561c-.395.395-1.034.395-1.428 0l-6.42-6.42c-.395-.394-.395-1.033 0-1.427l8.56-8.561c.395-.395 1.034-.395 1.428 0zm-4.109 5.533l-3.74 3.74 4.995 4.994 3.739-3.74-4.994-4.994z" transform="translate(-219 -712) translate(99 712)"/>
            </g>
        </g>
    </g>
</svg>
