<svg xmlns="http://www.w3.org/2000/svg" width="12" height="12" viewBox="0 0 12 12">
    <g fill="none" fill-rule="evenodd">
        <g fill="#525C73">
            <g>
                <g>
                    <path d="M10.8 1.074c.127.15-.51.466-1.154.946C5.542 5.083 4.529 6.816 3.57 8.664c-.398.766-.774 1.187-1.303.996-.489-.177-.68-.598-.5-1.414.129-.584 1.285-2.188 1.694-2.705 3.542-4.483 7.11-4.737 7.338-4.467z" transform="translate(-1653 -25) translate(1513 -47) translate(140.648 72.265) rotate(2 6.258 5.353)"/>
                    <path d="M8.886 10.355c-.406.196-.82-.624-1.351-1.524-.619-1.05-1.831-2.274-3.47-4.061C2.178 2.712.857 1.91 1.012 1.61 1.514.632 6.156 3.776 8.16 7.214c.798 1.37 1.264 2.881.726 3.141z" transform="translate(-1653 -25) translate(1513 -47) translate(140.648 72.265) scale(-1 1) rotate(-88 0 11.145)"/>
                </g>
            </g>
        </g>
    </g>
</svg>
