<svg width="23" height="22" viewBox="0 0 23 22" xmlns="http://www.w3.org/2000/svg">
    <g fill="#FFF" fill-rule="evenodd">
        <path d="M11.127 1c2.485 0 4.5 4.59 4.5 10.25s-2.015 10.25-4.5 10.25c-2.486 0-4.5-4.59-4.5-10.25S8.64 1 11.127 1zm.033 1.25c-1.795 0-3.25 4.03-3.25 9s1.455 9 3.25 9 3.25-4.03 3.25-9-1.455-9-3.25-9z"/>
        <circle cx="11.16" cy="1.5" r="1.5"/>
        <circle cx="19.16" cy="16.3" r="1.5"/>
        <circle cx="2.3" cy="6.3" r="1.5"/>
        <path d="M20.004 6.125c1.242 2.152-1.725 6.192-6.627 9.022-4.903 2.83-9.884 3.38-11.127 1.228-1.243-2.152 1.724-6.192 6.627-9.022 4.902-2.83 9.884-3.38 11.127-1.228zm-1.066.654c-.898-1.555-5.115-.8-9.42 1.685-4.304 2.485-7.066 5.76-6.169 7.315.898 1.554 5.115.8 9.42-1.686 4.304-2.485 7.066-5.76 6.169-7.314z"/>
        <path d="M20.004 16.375c-1.243 2.152-6.225 1.603-11.127-1.228-4.903-2.83-7.87-6.87-6.627-9.022 1.243-2.152 6.224-1.603 11.127 1.228 4.902 2.83 7.87 6.87 6.627 9.022zm-1.1-.596c.898-1.555-1.864-4.83-6.169-7.315C8.431 5.98 4.213 5.224 3.316 6.78c-.897 1.554 1.865 4.829 6.17 7.314 4.304 2.486 8.521 3.24 9.418 1.686z"/>
        <circle cx="11.16" cy="11.5" r="1.5"/>
    </g>
</svg>
