<svg xmlns="http://www.w3.org/2000/svg" width="9" height="9" viewBox="0 0 9 9">
    <g fill="none" fill-rule="evenodd">
        <g fill="#424A5D">
            <g>
                <path d="M618.485 3.485c.474 0 .857.384.857.857v4.285l4.286.001c.474 0 .857.384.857.857 0 .474-.383.857-.857.857h-4.286v4.286c0 .474-.383.857-.857.857-.473 0-.857-.383-.857-.857v-4.286h-4.286c-.473 0-.857-.383-.857-.857 0-.473.384-.857.857-.857h4.285l.001-4.286c0-.473.384-.857.857-.857z" transform="translate(-1108.000000, -1029.000000) translate(494.000000, 1024.000000) translate(618.485281, 9.485281) rotate(-45.000000) translate(-618.485281, -9.485281)"/>
            </g>
        </g>
    </g>
</svg>
