<svg xmlns="http://www.w3.org/2000/svg" width="8" height="8" viewBox="0 0 8 8">
    <g fill="none" fill-rule="evenodd">
        <g fill="#31A6FF">
            <g>
                <path d="M266.071 9.071c.395 0 .714.32.714.714v3.571h3.572c.394 0 .714.32.714.715 0 .395-.32.714-.714.714h-3.572v3.572c0 .394-.32.714-.714.714-.394 0-.714-.32-.714-.714v-3.572h-3.572c-.394 0-.714-.32-.714-.714 0-.394.32-.714.714-.714h3.571V9.784c0-.394.32-.714.715-.714z" transform="translate(-1341.000000, -783.000000) translate(1079.000000, 773.000000) translate(266.071068, 14.071068) rotate(-45.000000) translate(-266.071068, -14.071068)"/>
            </g>
        </g>
    </g>
</svg>
