<svg xmlns="http://www.w3.org/2000/svg" width="8" height="8" viewBox="0 0 8 8">
    <g fill="none" fill-rule="evenodd">
        <g fill="#FFF">
            <path d="M185 1172.071c.394 0 .714.32.714.714v3.571h3.572c.394 0 .714.32.714.715 0 .395-.32.714-.714.714h-3.572v3.572c0 .394-.32.714-.714.714-.394 0-.714-.32-.714-.714l-.001-3.572h-3.57c-.395 0-.715-.32-.715-.714 0-.394.32-.714.714-.714h3.571v-3.572c0-.394.32-.714.715-.714z" transform="translate(-181 -1173) rotate(-45 185 1177.071)"/>
        </g>
    </g>
</svg>
