<svg xmlns="http://www.w3.org/2000/svg" width="14" height="14" viewBox="0 0 14 14">
    <g fill="none" fill-rule="evenodd">
        <g fill="#FFF">
            <path d="M649.811 787.556v-4.339c0-.633.055-1.217.836-1.217.635 0 .756.444.779.903l.005.21v2.664l2.702-2.577c.317-.32.832-.32 1.149 0 .158.16.238.369.238.578 0 .21-.08.419-.238.578l-2.75 2.614h2.676l.278.007c.58.026 1.014.152 1.014.746 0 .694-.264.883-1.218.915l-4.516.005c-.667-.005-.955-.507-.955-1.087zm-.122 2.672v4.338c0 .633-.055 1.218-.836 1.218-.635 0-.756-.444-.779-.903l-.005-.211v-2.663l-2.702 2.577c-.317.32-.832.32-1.149 0-.158-.16-.238-.37-.238-.578 0-.21.08-.42.238-.579l2.75-2.613h-2.676l-.278-.007c-.58-.027-1.014-.153-1.014-.746 0-.694.264-.883 1.218-.915l4.516-.006c.667.006.955.507.955 1.088z" transform="translate(-643 -782)"/>
        </g>
    </g>
</svg>
