<svg width="17" height="13" viewBox="0 0 17 13" xmlns="http://www.w3.org/2000/svg">
    <g fill="#525C73" fill-rule="evenodd">
        <path d="M9.114 1.457 8.9 1.351a5.679 5.679 0 0 0-6.124 9.435c2.307 2.006 6.489 2.186 8.603 0l.21-.232-.182.21A6.5 6.5 0 1 1 9.436.7c.468.237.07.961-.322.758z"/>
        <path d="m12.042 2 4.153 3.635-4.153 3.634.001-1.92c-.583-.02-1.357-.002-2.323.057-1.63.098-3.093.546-4.39 1.344.943-2.106 2.262-3.37 3.958-3.791 1.087-.27 2.005-.39 2.755-.358l-.001-2.6z" fill-rule="nonzero"/>
    </g>
</svg>
