<svg xmlns="http://www.w3.org/2000/svg" width="8" height="12" viewBox="0 0 8 12">
    <g fill="none" fill-rule="evenodd">
        <g fill="#798189">
            <path d="M138.626 790.314l3.117 2.834c.343.424.343 1.11 0 1.534-.345.424-.903.424-1.248 0l-2.491-2.267-2.494 2.267c-.344.424-.903.424-1.246 0-.345-.424-.345-1.11 0-1.534l3.116-2.834c.344-.424.901-.424 1.246 0zm3.11-6.996c.345.424.345 1.11 0 1.534l-3.116 2.834c-.344.424-.901.424-1.246 0l-3.117-2.834c-.343-.424-.343-1.11 0-1.534.345-.424.903-.424 1.248 0l2.492 2.267 2.493-2.267c.344-.424.903-.424 1.246 0z" transform="translate(-134 -783)"/>
        </g>
    </g>
</svg>
