<svg xmlns="http://www.w3.org/2000/svg" width="10" height="13" viewBox="0 0 10 13">
    <g fill="none" fill-rule="evenodd">
        <g fill="#FFF">
            <path d="M757.745 790.922l3.345 3.042c.368.454.368 1.191 0 1.646-.37.455-.97.455-1.34 0l-2.673-2.433-2.676 2.433c-.37.455-.969.455-1.338 0-.37-.455-.37-1.192 0-1.646l3.345-3.042c.369-.454.967-.454 1.337 0zm3.338-7.508c.37.455.37 1.192 0 1.646l-3.344 3.042c-.37.455-.968.455-1.338 0l-3.344-3.042c-.369-.454-.369-1.191 0-1.646.37-.455.969-.455 1.339 0l2.674 2.434 2.676-2.434c.368-.455.968-.455 1.337 0z" transform="translate(-752 -783)"/>
        </g>
    </g>
</svg>
