<svg xmlns="http://www.w3.org/2000/svg" width="10" height="17" viewBox="0 0 10 17">
    <g fill="#525C73" fill-rule="evenodd">
        <path d="M2.918 3.67c.423-.518 1.106-.518 1.528 0l3.05 2.771 3.053-2.771c.42-.518 1.104-.518 1.525 0 .421.518.421 1.357 0 1.874L8.259 9.008c-.421.517-1.104.517-1.525 0L2.918 5.544c-.42-.517-.42-1.356 0-1.874zM12.082 18.997c-.423.518-1.106.518-1.528 0l-3.05-2.772-3.053 2.772c-.42.518-1.104.518-1.525 0-.421-.518-.421-1.357 0-1.875l3.815-3.463c.421-.518 1.104-.518 1.525 0l3.816 3.463c.42.518.42 1.357 0 1.875z" transform="translate(-2.5 -3)"/>
    </g>
</svg>
