<svg width="17" height="16" viewBox="0 0 17 16" xmlns="http://www.w3.org/2000/svg">
    <g fill="none" fill-rule="evenodd">
        <path d="M7.815.27c.28-.052.578-.001.834.163 2.017 2.822 3.376 5.082 4.437 7.146a46.275 46.275 0 0 1 2.365 5.425l.283.803a1.158 1.158 0 0 1-.7 1.465 68.03 68.03 0 0 1-7.094.369 73.56 73.56 0 0 1-5.529-.208l-1.107-.093a1.158 1.158 0 0 1-1.05-1.239c.695-2.222 1.59-4.309 2.75-6.563A61.337 61.337 0 0 1 7.07.752c.181-.264.453-.43.745-.483z" stroke="#000" stroke-width=".5" fill="#FFEC6D"/>
        <path d="M3.315 12.108a.427.427 0 0 0-.022-.087 2.263 2.263 0 0 1-.065-.995c.122-.75.6-1.374 1.286-1.68.304-.136.611-.196.947-.186.423.014.808.137 1.16.374.233.157.44.361.598.592l.038.057.092-.055c.052-.03.097-.057.1-.06a.276.276 0 0 0-.014-.083.606.606 0 0 1 .26-.655.667.667 0 0 1 .21-.09l.031-.006V9.11c0-.1-.002-.124-.01-.124-.035 0-.185-.018-.262-.033A2.21 2.21 0 0 1 5.907 7.32a1.868 1.868 0 0 1-.064-.548c0-.22.008-.305.047-.482A2.225 2.225 0 0 1 7.59 4.594c.02-.003.036-.009.036-.013 0-.007-.003-.007-.062.002a3.167 3.167 0 0 0-2.15 1.39 3.184 3.184 0 0 0-.504 1.399 4.476 4.476 0 0 0-.01.564l.006.082-.114.056c-.41.202-.799.53-1.085.915a3.207 3.207 0 0 0-.49 2.856c.032.11.093.27.099.263zm9.46.004c.014 0 .097-.245.141-.42a3.196 3.196 0 0 0-.819-3.032 2.908 2.908 0 0 0-.79-.582l-.123-.06.006-.078c.01-.137.005-.446-.01-.56a3.176 3.176 0 0 0-2.615-2.79l-.076-.012c-.015-.003-.025-.001-.022.003a.156.156 0 0 0 .053.017 2.227 2.227 0 0 1 1.68 1.687c.04.178.047.26.047.491 0 .183-.003.231-.017.32-.04.242-.1.437-.204.648-.111.228-.24.41-.416.587-.367.372-.84.596-1.365.647l-.1.01v.24l.023.005c.136.03.245.092.34.193a.58.58 0 0 1 .156.306c.015.08.01.194-.012.264a.515.515 0 0 0-.017.06c0 .005.045.036.099.069l.099.058.038-.056c.106-.156.257-.323.405-.45a2.177 2.177 0 0 1 2.965.13c.421.423.646.971.645 1.572 0 .167-.007.25-.033.4-.014.079-.063.27-.08.319-.004.007-.003.014.001.014zM9.398 8.233l.035-.033c.13-.12.273-.31.365-.483l.04-.074-.064-.05a2.788 2.788 0 0 0-.497-.315c-.3-.15-.588-.238-.922-.28a4.209 4.209 0 0 0-.478-.014 2.859 2.859 0 0 0-1.524.577.627.627 0 0 0-.096.082c0 .012.073.146.122.222.075.117.198.266.279.34l.032.028.065-.052c.289-.23.634-.38 1.001-.437.178-.027.44-.024.626.008.343.06.676.21.95.429l.066.052zm-2.356 4.285.03-.044a2.005 2.005 0 0 0 .265-.632c0-.004-.027-.019-.06-.031a2.378 2.378 0 0 1-.562-.33 2.576 2.576 0 0 1-.317-.323 2.142 2.142 0 0 1-.445-1.08 2.377 2.377 0 0 1 .008-.497.544.544 0 0 0 .01-.118 1.33 1.33 0 0 0-.22-.057 1.466 1.466 0 0 0-.446-.03l-.054.005-.014.082c-.033.216-.038.541-.01.745a2.868 2.868 0 0 0 1.728 2.273l.087.037zm2 0 .058-.023a3.88 3.88 0 0 0 .459-.238 2.859 2.859 0 0 0 1.313-2.598 2.676 2.676 0 0 0-.038-.273 1.84 1.84 0 0 0-.308-.012 2.596 2.596 0 0 0-.388.08c-.028.008-.028.01-.008.154.016.121.019.343.005.467a2.125 2.125 0 0 1-1.316 1.731c-.05.019-.068.03-.068.04 0 .02.035.14.067.23.035.1.13.294.183.378l.041.064zm3.077.604c.095-.1.237-.265.237-.278 0-.003-.045.04-.1.095a2.2 2.2 0 0 1-1.354.658c-.133.015-.4.011-.523-.008a2.2 2.2 0 0 1-1.837-1.69c-.099-.418-.07-.879.076-1.277l.02-.05.05-.123c.017-.038.031-.07.036-.077a.574.574 0 0 0-.098-.065l-.103-.06-.051.05a.575.575 0 0 1-.428.179.583.583 0 0 1-.44-.189.233.233 0 0 0-.042-.04l-.093.053-.099.059c-.006.004 0 .025.023.074a2.25 2.25 0 0 1-.025 1.957 2.035 2.035 0 0 1-.407.564 2.176 2.176 0 0 1-3.1.01 1.713 1.713 0 0 0-.128-.12c-.007.007.124.16.228.269a3.138 3.138 0 0 0 2.476.965 3.1 3.1 0 0 0 1.523-.522l.084-.058.083.058c.326.225.763.405 1.168.478a3.14 3.14 0 0 0 2.824-.912z" fill="#000" fill-rule="nonzero"/>
    </g>
</svg>
