<svg xmlns="http://www.w3.org/2000/svg" width="17" height="16" viewBox="0 0 17 16">
    <g fill="none" fill-rule="evenodd">
        <g>
            <g>
                <path fill="#1A91EB" fill-rule="nonzero" d="M4.5 0v1.5h3V0h2v1.5H11c.552 0 1 .448 1 1v2.707c-.385-.109-.786-.177-1.2-.199L10.798 4H9.5v.5h-2V4h-3v.5h-2V4H1.199l.001 7.8h3.955c.102.422.252.824.445 1.2H1c-.552 0-1-.448-1-1V2.5c0-.552.448-1 1-1h1.5V0h2z" transform="translate(-384.000000, -1166.000000) translate(384.500000, 1166.000000)"/>
                <g transform="translate(-384.000000, -1166.000000) translate(384.500000, 1166.000000) translate(5.000000, 5.000000)">
                    <circle cx="5.5" cy="5.5" r="4.9" stroke="#1A91EB" stroke-width="1.2"/>
                    <path fill="#1A91EB" d="M4.8 2.5L6.195 2.5 6.195 6.6 4.8 6.6z"/>
                    <path fill="#1A91EB" d="M6 4.5L7.2 4.5 7.2 7.5 6 7.5z" transform="translate(6.600000, 6.000000) rotate(-270.000000) translate(-6.600000, -6.000000)"/>
                </g>
            </g>
        </g>
    </g>
</svg>
