<svg xmlns="http://www.w3.org/2000/svg" width="16" height="15" viewBox="0 0 16 15">
    <g fill="none" fill-rule="evenodd">
        <g>
            <g transform="translate(-249 -1167) translate(249 1167)">
                <path fill="#1A91EB" fill-rule="nonzero" d="M11 3c.552 0 1 .448 1 1v10c0 .552-.448 1-1 1H1c-.552 0-1-.448-1-1V4c0-.552.448-1 1-1h1.5V2h2v1h3V2h2v1H11zm-.2 2H1.2v8.8h9.6V5z"/>
                <circle cx="11" cy="5" r="4.4" fill="#EFF2F6" stroke="#1A91EB" stroke-width="1.2"/>
                <path fill="#1A91EB" d="M10.5 2.5H11.5V5.5H10.5z"/>
                <path fill="#1A91EB" d="M11.5 4L12.5 4 12.5 7 11.5 7z" transform="rotate(90 12 5.5)"/>
            </g>
        </g>
    </g>
</svg>
