<svg xmlns="http://www.w3.org/2000/svg" width="13" height="13" viewBox="0 0 13 13">
    <g fill="none" fill-rule="evenodd">
        <g fill="#B6B9C0" fill-rule="nonzero">
            <path d="M276.958 1169.342c.576 0 1.042.43 1.042.962v9.234c0 .532-.466.962-1.042.962h-10.416c-.576 0-1.042-.43-1.042-.962v-9.234c0-.531.466-.962 1.042-.962h.958V1168h1.5v1.342h2V1168h1.5v1.342h2V1168h1.5v1.342h.958zm-.208 1.923H276v.735h-1.5v-.735h-2v.735H271v-.735h-2v.735h-1.5v-.735h-.75v8.081h10v-8.081zm-7.25 5.164v1.5H268v-1.5h1.5zm3 0v1.5H271v-1.5h1.5zm-3-3v1.5H268v-1.5h1.5zm3 0v1.5H271v-1.5h1.5zm3 0v1.5H274v-1.5h1.5z" transform="translate(-265.000000, -1168.000000)"/>
        </g>
    </g>
</svg>
