<svg xmlns="http://www.w3.org/2000/svg" xmlns:xlink="http://www.w3.org/1999/xlink" width="12" height="19" viewBox="0 0 12 19">
    <defs>
        <path id="3opqp75ika" d="M0 0H12V19H0z"/>
    </defs>
    <g fill="none" fill-rule="evenodd">
        <g>
            <g>
                <g transform="translate(-262 -712) translate(99 712) translate(163)">
                    <mask id="rc9zyeuzeb" fill="#fff">
                        <use xlink:href="#3opqp75ika"/>
                    </mask>
                    <g fill="#525C73" mask="url(#rc9zyeuzeb)">
                        <g>
                            <path d="M7.55 9.282c.025.024.048.048.07.074l.299.356c.33.393.31.972-.047 1.34l-2.83 2.919 2.83 2.92c.357.368.377.946.047 1.34l-.3.355c-.355.423-.986.477-1.409.122-.025-.022-.05-.045-.074-.07l-3.332-3.436c-.071-.041-.139-.091-.2-.151-.025-.024-.048-.049-.07-.075l-.3-.356c-.146-.174-.223-.384-.233-.597L2 13.971c0-.017 0-.034.002-.052 0-.03.003-.058.007-.087l.004-.017c.025-.177.1-.348.222-.493l.3-.356c.077-.093.168-.168.268-.225l3.333-3.437c.385-.397 1.018-.406 1.414-.022z" transform="translate(1 1) matrix(0 1 1 0 -8.894 8.894)"/>
                            <path d="M7.55-.718c.025.024.048.048.07.074l.299.356c.33.393.31.972-.047 1.34l-2.83 2.919 2.83 2.92c.357.368.377.946.047 1.34l-.3.355c-.355.423-.986.477-1.409.122-.025-.022-.05-.045-.074-.07L2.804 5.202c-.071-.041-.139-.091-.2-.151-.025-.024-.048-.049-.07-.075l-.3-.356c-.146-.174-.223-.384-.233-.597L2 3.971c0-.017 0-.034.002-.052 0-.03.003-.058.007-.087l.004-.017c.025-.177.1-.348.222-.493l.3-.356c.077-.093.168-.168.268-.225L6.136-.696c.385-.397 1.018-.406 1.414-.022z" transform="translate(1 1) rotate(-90 5.077 3.971)"/>
                        </g>
                    </g>
                </g>
            </g>
        </g>
    </g>
</svg>
