<svg xmlns="http://www.w3.org/2000/svg" width="13" height="14" viewBox="0 0 13 14">
    <g fill="none" fill-rule="evenodd">
        <g fill="#FFF">
            <path d="M462.94 911c.692-.019 1.394.692 1.35 1.355-.022.32-.004.64-.004.985h3.232c.279 0 .485.206.482.472-.003.26-.206.456-.48.46h-.912v2.237c0 2.2.001 4.4-.001 6.6-.002 1.025-.858 1.888-1.875 1.889-2.161.003-4.323.002-6.484 0-.99 0-1.853-.876-1.854-1.881V914.273h-.803c-.077-.001-.156.002-.23-.014-.234-.052-.386-.275-.358-.511.028-.233.226-.407.472-.408h3.231c.004-.048.009-.09.009-.131v-.889c0-.69.62-1.312 1.31-1.313.971 0 1.943.02 2.914-.007zm2.739 3.278h-8.357v6.28c0 .865-.001 1.73.001 2.594.002.463.213.773.6.871.12.03.247.041.372.041 1.392.003 2.785.002 4.178.002.768 0 1.537.003 2.306-.001.514-.003.814-.26.89-.753.01-.072.01-.146.01-.218v-8.816zm-1.691 2.147c.012.06.012.123.012.184v5.8c0 .353-.21.595-.508.591-.289-.004-.492-.248-.492-.591V919.5c0-.987-.001-1.973.001-2.96.001-.282.195-.51.444-.538.254-.028.488.151.543.422zm-4.272-.367c.203.108.285.294.284.535-.002.969 0 1.938 0 2.907h-.001l-.001 2.94c0 .299-.185.526-.443.557-.248.03-.474-.14-.538-.405-.013-.053-.016-.11-.016-.166v-5.847c0-.433.372-.704.715-.521zm2 0c.203.108.285.295.284.535-.002.97 0 1.938 0 2.907h-.001l-.001 2.94c0 .3-.186.526-.443.557-.248.029-.475-.14-.538-.405-.013-.054-.016-.11-.016-.166v-5.848c0-.433.372-.703.715-.52zm-1.753-4.117c-.222 0-.317.098-.318.323-.003.33-.002.66 0 .99 0 .027.008.054.014.083h3.681c.009-.021.015-.03.015-.039.001-.344.003-.69.002-1.034-.002-.225-.095-.322-.319-.322-1.025-.002-2.05-.002-3.075 0z" transform="translate(-455 -911)"/>
        </g>
    </g>
</svg>
