<svg xmlns="http://www.w3.org/2000/svg" width="17" height="14" viewBox="0 0 17 14">
    <g fill="none" fill-rule="evenodd">
        <g fill="#798189">
            <path d="M401.709 781c.628 0 1.158.46 1.222 1.064l.006.123v.79h3.375c.358 0 .648.291.648.649 0 .358-.29.648-.648.648l-.803-.001v1.027c0 .391-.317.709-.709.709-.358 0-.655-.267-.702-.613l-.006-.096v-.696h-7.224v7.797c0 .622.411 1.112.912 1.175l.108.006h1c.39 0 .708.318.708.71 0 .358-.267.655-.613.702l-.096.006h-.999c-1.308 0-2.353-1.088-2.432-2.436l-.005-.163v-8.128h-.803c-.358 0-.648-.29-.648-.647 0-.358.29-.648.648-.648l3.375-.001v-.79c0-.622.49-1.121 1.104-1.181l.125-.006h2.457zm3.173 6.143c2.318 0 4.423 1.354 5.687 3.54l.11.199.014.007-.005.008.005.008-.014.007-.123.225c-1.261 2.2-3.374 3.566-5.7 3.566-2.319 0-4.424-1.354-5.688-3.541l-.11-.2-.014-.006.004-.008-.004-.008.012-.007.125-.225c1.262-2.2 3.374-3.565 5.701-3.565zm0 1.262c-1.712 0-3.305.947-4.362 2.537 1.058 1.568 2.638 2.499 4.335 2.499 1.712 0 3.305-.948 4.363-2.537-1.058-1.568-2.638-2.499-4.336-2.499zm.071.987c.804 0 1.455.651 1.455 1.454 0 .804-.651 1.455-1.455 1.455-.803 0-1.454-.651-1.454-1.455 0-.803.65-1.454 1.454-1.454zm-3.244-7.258h-2.457c-.045 0-.076.018-.088.036l-.007.017v.79h2.646v-.79c0-.015-.02-.038-.054-.048l-.04-.005z" transform="translate(-394 -781)"/>
        </g>
    </g>
</svg>
