<svg xmlns="http://www.w3.org/2000/svg" width="8" height="8" viewBox="0 0 8 8">
    <g fill="none" fill-rule="evenodd">
        <g fill="#525C73">
            <path d="M169.071 1172.071c.395 0 .714.32.714.714v3.571h3.572c.394 0 .714.32.714.715 0 .395-.32.714-.714.714h-3.572v3.572c0 .394-.32.714-.714.714-.394 0-.714-.32-.714-.714v-3.572h-3.572c-.394 0-.714-.32-.714-.714 0-.394.32-.714.714-.714h3.571v-3.572c0-.394.32-.714.715-.714z" transform="translate(-165 -1173) rotate(-45 169.071 1177.071)"/>
        </g>
    </g>
</svg>
