<?xml version="1.0" encoding="UTF-8"?>
<svg width="17px" height="14px" viewBox="0 0 17 14" version="1.1" xmlns="http://www.w3.org/2000/svg" xmlns:xlink="http://www.w3.org/1999/xlink">
    <title>deleted-rows-red</title>
    <defs>
        <linearGradient x1="91.1942915%" y1="50%" x2="1.9106138%" y2="50%" id="linearGradient-1">
            <stop stop-color="#5E6973" offset="0%"></stop>
            <stop stop-color="#CA0000" offset="100%"></stop>
        </linearGradient>
    </defs>
    <g id="Patient-sheet" stroke="none" stroke-width="1" fill="none" fill-rule="evenodd">
        <g id="15.2-Icons" transform="translate(-257.000000, -493.000000)">
            <g id="Group-56" transform="translate(22.000000, 493.000000)">
                <g id="deleted-rows-red" transform="translate(235.080096, 0.000000)">
                    <path d="M7.70877531,0 C8.33748026,0 8.86713832,0.459716256 8.9308897,1.06441834 L8.93731919,1.18719865 L8.937,1.977 L12.3124397,1.97782064 C12.670333,1.97782064 12.9604629,2.26795048 12.9604629,2.62584378 C12.9604629,2.98373708 12.670333,3.27386692 12.3124397,3.27386692 L11.509,3.273 L11.509161,4.29990357 C11.509161,4.69134936 11.1918315,5.00867888 10.8003857,5.00867888 C10.4415604,5.00867888 10.1450134,4.74203394 10.0980807,4.39608018 L10.0916104,4.29990357 L10.0910704,3.60435873 L2.86817743,3.60435873 L2.86885246,11.4011572 C2.86885246,12.0226476 3.27934754,12.5130593 3.77966907,12.5756854 L3.88813886,12.5824494 L4.88717454,12.5824494 C5.27862034,12.5824494 5.59594986,12.8997789 5.59594986,13.2912247 C5.59594986,13.65005 5.32930491,13.9465971 4.98335115,13.9935297 L4.88717454,14 L3.88813886,14 C2.57976438,14 1.53450186,12.9117839 1.45603251,11.5640748 L1.45130183,11.4011572 L1.451,3.273 L0.648023144,3.27386692 C0.290129844,3.27386692 4.38292884e-17,2.98373708 0,2.62584378 C-4.38292884e-17,2.26795048 0.290129844,1.97782064 0.648023144,1.97782064 L4.023,1.977 L4.02314368,1.18719865 C4.02314368,0.564563922 4.51350769,0.0659329955 5.1273759,0.00603629662 L5.25168756,0 L7.70877531,0 Z M7.70877531,1.1340405 L5.25168756,1.1340405 C5.2066274,1.1340405 5.17599933,1.15219334 5.16350156,1.17008122 L5.15718419,1.18719865 L5.157,1.977 L7.803,1.977 L7.80327869,1.18719865 C7.80327869,1.17153382 7.78391566,1.14946478 7.74888781,1.13940931 L7.70877531,1.1340405 Z" fill="#CA0000"></path>
                    <path d="M10.8823586,6.14271938 C13.1999823,6.14271938 15.305395,7.49702654 16.5694246,9.68381405 L16.6794797,9.88171938 L16.6929997,9.88946431 L16.6884797,9.89671938 L16.6929997,9.90524841 L16.6794797,9.91171938 L16.5563355,10.1373455 C15.2945626,12.3375977 13.1821772,13.7029894 10.8551207,13.7029894 C8.53749708,13.7029894 6.43208438,12.3486822 5.16805471,10.1618947 L5.05747965,9.96271938 L5.04447965,9.95624446 L5.04847965,9.94771938 L5.04447965,9.94046037 L5.05647965,9.93271938 L5.18114386,9.70836331 C6.4429167,7.50811105 8.55530211,6.14271938 10.8823586,6.14271938 Z M10.8823586,7.40505685 C9.170186,7.40505685 7.57744981,8.35239166 6.51966692,9.94238643 C7.57809934,11.5101737 9.15809988,12.4406519 10.8551207,12.4406519 C12.5672216,12.4406519 14.1598961,11.4933965 15.2176795,9.90352217 C14.160046,8.33592727 12.5797371,7.40505685 10.8823586,7.40505685 Z M10.9532405,8.39177284 C11.7565702,8.39177284 12.4077976,9.0430002 12.4077976,9.84632987 C12.4077976,10.6496595 11.7565702,11.3008869 10.9532405,11.3008869 C10.1499109,11.3008869 9.49868349,10.6496595 9.49868349,9.84632987 C9.49868349,9.0430002 10.1499109,8.39177284 10.9532405,8.39177284 Z" id="Combined-Shape" fill="url(#linearGradient-1)"></path>
                </g>
            </g>
        </g>
    </g>
</svg>