<?xml version="1.0" encoding="UTF-8"?>
<svg width="17px" height="14px" viewBox="0 0 17 14" version="1.1" xmlns="http://www.w3.org/2000/svg" xmlns:xlink="http://www.w3.org/1999/xlink">
    <title>deleted-rows-red-h</title>
    <g id="Patient-sheet" stroke="none" stroke-width="1" fill="none" fill-rule="evenodd">
        <g id="15.2-Icons" transform="translate(-285.000000, -493.000000)" fill="#CA0000">
            <g id="Group-56" transform="translate(22.000000, 493.000000)">
                <g id="deleted-rows-red-h" transform="translate(263.080096, 0.000000)">
                    <path d="M7.70877531,0 C8.33748026,0 8.86713832,0.459716256 8.9308897,1.06441834 L8.93731919,1.18719865 L8.937,1.977 L12.2225489,1.97782064 C12.6300875,1.97782064 12.9604629,2.30819599 12.9604629,2.71573465 C12.9604629,3.1232733 12.6300875,3.45364866 12.2225489,3.45364866 L11.509,3.453 L11.509161,4.29990357 C11.509161,4.69134936 11.0284709,5.00867888 10.6370251,5.00867888 C10.2781997,5.00867888 10.0237113,4.74203394 9.97677861,4.39608018 L9.97030833,4.29990357 L9.96976831,3.85066197 L3.18393104,3.85066197 L3.18460607,11.2147916 C3.18460607,11.836282 3.27934754,12.3266937 3.77966907,12.3893198 L3.88813886,12.3960838 L4.88717454,12.3960838 C5.27862034,12.3960838 5.59594986,12.6610942 5.59594986,13.2912247 C5.59594986,13.9213552 5.32930491,13.9465971 4.98335115,13.9935297 L4.88717454,14 L3.88813886,14 C2.57976438,14 1.53450186,12.9117839 1.45603251,11.5640748 L1.45130183,11.4011572 L1.451,3.453 L0.737914011,3.45364866 C0.330375356,3.45364866 4.9909091e-17,3.1232733 0,2.71573465 C-4.9909091e-17,2.30819599 0.330375356,1.97782064 0.737914011,1.97782064 L4.023,1.977 L4.02314368,1.18719865 C4.02314368,0.564563922 4.51350769,0.0659329955 5.1273759,0.00603629662 L5.25168756,0 L7.70877531,0 Z M7.38732875,1.33773083 L5.61930642,1.33773083 C5.57424626,1.33773083 5.54361819,1.35588367 5.53112042,1.37377155 L5.52480304,1.39088898 L5.524,1.977 L7.481,1.977 L7.48183212,1.39088898 C7.48183212,1.37522415 7.46246909,1.35315511 7.42744124,1.34309964 L7.38732875,1.33773083 Z" id="deleted-rows-red"></path>
                    <path d="M10.8823586,6.14271938 C13.1999823,6.14271938 15.305395,7.49702654 16.5694246,9.68381405 L16.6764797,9.87671938 L16.6929997,9.88946431 L16.6884797,9.89671938 L16.6929997,9.90524841 L16.6764797,9.91871938 L16.5563355,10.1373455 C15.2945626,12.3375977 13.1821772,13.7029894 10.8551207,13.7029894 C8.53749708,13.7029894 6.43208438,12.3486822 5.16805471,10.1618947 L5.06047965,9.96871938 L5.04447965,9.95624446 L5.04847965,9.94771938 L5.04447965,9.94046037 L5.05947965,9.92771938 L5.18114386,9.70836331 C6.4429167,7.50811105 8.55530211,6.14271938 10.8823586,6.14271938 Z M10.8823586,7.73538226 C9.28327145,7.73538226 7.78836467,8.56171065 6.73614122,9.96616253 C7.78711314,11.3514857 9.27007332,12.1632246 10.8551207,12.1632246 C12.4543086,12.1632246 13.9493029,11.3367922 15.0015368,9.93217911 C13.9503662,8.54712115 12.467406,7.73538226 10.8823586,7.73538226 Z M10.9532405,8.39177284 C11.7565702,8.39177284 12.4077976,9.0430002 12.4077976,9.84632987 C12.4077976,10.6496595 11.7565702,11.3008869 10.9532405,11.3008869 C10.1499109,11.3008869 9.49868349,10.6496595 9.49868349,9.84632987 C9.49868349,9.0430002 10.1499109,8.39177284 10.9532405,8.39177284 Z" id="Combined-Shape"></path>
                </g>
            </g>
        </g>
    </g>
</svg>