<svg xmlns="http://www.w3.org/2000/svg" width="19" height="15" viewBox="0 0 19 15">
    <path fill="#FFF" fill-rule="evenodd" d="M7.27 1.15c.537.416.622 1.127.173 1.729-.557.746-.12.457-.689 1.195-.088.114-.165.236-.33.474h9.558c.306 0 .612-.012.916.004.804.039 1.3.532 1.277 1.256-.021.684-.526 1.153-1.303 1.16-1.374.015-2.747.005-4.12.007-.104 0-.206.013-.33.021.858.995.822 1.506-.138 2.328 1.034.901 1.015 1.61.08 2.267.161.231.4.465.501.747.102.285.149.639.074.925-.162.617-.623.841-1.506.842-1.853.002-3.706.013-5.56-.002-2.078-.018-3.689-.886-4.566-2.78C.448 9.47.775 7.73 2.074 6.128 3.507 4.36 3.861 3.562 5.26 1.768c.093-.12.183-.243.283-.357C6.058.82 6.715.722 7.27 1.15zm8.87 7.123l.296.01c.54 1.143 1.122 2.27 1.607 3.436.313.752.007 1.533-.631 2.007a1.836 1.836 0 01-2.19.033c-.658-.456-1.007-1.229-.705-1.98.48-1.193 1.077-2.34 1.624-3.506z"/>
</svg>
