<svg width="26" height="26" viewBox="0 0 26 26" xmlns="http://www.w3.org/2000/svg">
    <g fill="none" fill-rule="evenodd">
        <rect fill="#7887A9" width="26" height="26" rx="13"/>
        <path d="M10.887 6.09c.51.393.59 1.068.164 1.637-.527.707-.113.434-.652 1.133-.084.107-.157.223-.314.448h9.056c.29 0 .58-.01.868.004.761.037 1.23.504 1.21 1.19-.02.648-.5 1.092-1.235 1.1-1.301.014-2.603.004-3.904.006-.097 0-.194.012-.313.02.814.942.78 1.426-.13 2.205.98.854.962 1.525.076 2.148.153.219.38.44.475.708.096.27.14.605.07.876-.154.584-.59.797-1.427.798-1.755.001-3.511.012-5.266-.003-1.97-.017-3.496-.839-4.327-2.633-.813-1.757-.504-3.404.727-4.922 1.358-1.674 1.692-2.43 3.018-4.13.088-.114.173-.23.267-.338.49-.56 1.111-.653 1.637-.247zm8.404 6.747.28.01c.512 1.083 1.063 2.15 1.523 3.255.296.713.006 1.452-.599 1.902a1.739 1.739 0 0 1-2.075.03c-.623-.431-.953-1.163-.667-1.875.454-1.13 1.02-2.217 1.538-3.322z" fill="#FFF"/>
    </g>
</svg>
