<svg xmlns="http://www.w3.org/2000/svg" width="13" height="13" viewBox="0 0 13 13">
    <g fill="none" fill-rule="evenodd">
        <g fill="#B6B9C0">
            <path d="M333.6 1169c.331 0 .6.269.6.6 0 .298-.218.546-.503.592l-.097.008h-3c-.193 0-.355.137-.392.32l-.008.08v9c0 .193.137.355.32.392l.08.008h9c.193 0 .355-.137.392-.32l.008-.08v-2.5c0-.331.269-.6.6-.6.298 0 .546.218.592.503l.008.097v2.5c0 .835-.639 1.52-1.454 1.593l-.146.007h-9c-.835 0-1.52-.639-1.593-1.454l-.007-.146v-9c0-.835.639-1.52 1.454-1.593l.146-.007h3zm7.2.2c.276 0 .5.224.5.5v4.1c0 .331-.269.6-.6.6-.331 0-.6-.269-.6-.6v-2.553l-2.82 2.82c-.234.234-.613.234-.848 0-.234-.234-.234-.614 0-.849l2.817-2.818H336.9c-.331 0-.6-.269-.6-.6 0-.331.269-.6.6-.6h3.9z" transform="translate(-329 -1169)"/>
        </g>
    </g>
</svg>
