<svg width="26" height="26" viewBox="0 0 26 26" xmlns="http://www.w3.org/2000/svg">
    <g fill="none" fill-rule="evenodd">
        <rect fill="#7887A9" width="26" height="26" rx="13"/>
        <g fill="#FFF" fill-rule="nonzero">
            <path d="M10.5 7c1.103 0 2-.898 2-2 0-1.102-.897-2-2-2s-2 .898-2 2c0 1.102.897 2 2 2zM13 21c3.033 0 5.5-2.388 5.5-5.325 0-.123-.004-.247-.027-.37l-.726.124-.78-.003c0 .043.004.093.013.136.006.037.003.075.003.113 0 2.127-1.787 3.856-3.983 3.856s-3.983-1.73-3.983-3.856c0-1.408.795-2.706 2.074-3.389L10.357 11c-1.762.942-2.857 2.733-2.857 4.675C7.5 18.612 9.967 21 13 21z"/>
            <path d="M20.102 20h.812c.19 0 .369-.094.478-.254a.613.613 0 0 0 .075-.546L19.673 14c-.412-1.196-1.524-2-2.765-2h-1.975a.97.97 0 0 1-.906-.626l-.84-2.148A1.901 1.901 0 0 0 11.414 8c-.621 0-1.188.296-1.55.813a1.976 1.976 0 0 0-.263 1.762l.84 2.58c.399 1.223 1.513 2.047 2.772 2.051l3.069.01a.979.979 0 0 1 .922.68l.862 2.608A2.152 2.152 0 0 0 20.102 20z"/>
        </g>
    </g>
</svg>
