<svg xmlns="http://www.w3.org/2000/svg" width="21" height="18" viewBox="0 0 21 18">
    <g fill="none" fill-rule="evenodd" transform="translate(-5 -6)">
        <rect width="28" height="28" fill="#D8D8D8" fill-opacity="0" rx="5"/>
        <g>
            <path fill="#0E75C3" d="M16.999 2c.552 0 1 .447 1 1v13c0 .552-.448.999-1 .999h-14c-.552 0-1-.447-1-1V3c0-.552.448-1 1-1h14zm-1 2h-12l-.001 7.999h2L7 14h6l1-2h2V4zm-2 5.999v1h-8v-1h8zm0-2v1h-8V8h8zm0-2v1h-8v-1h8z" transform="translate(3 4)"/>
            <path fill="#E8F4FD" d="M11.999 12.999L19.999 12.999 19.999 17.999 11.999 17.999z" transform="translate(3 4)"/>
            <path fill="#0E75C3" stroke="#E8F4FD" stroke-width="2" d="M19.715 5.589h0l1.668 1.654c.801.796.805 2.091.007 2.89l-7.254 7.272c-.382.384-.9.6-1.442.6H11.05c-1.125 0-2.037-.914-2.037-2.04v-1.65c0-.539.214-1.056.593-1.438l7.232-7.278c.792-.797 2.079-.802 2.877-.01zm-7.662 9.296h.004c-.002-.003-.003-.01-.002-.02l-.002.02zm.025.002c-.009.002-.016.004-.02-.001h-.005l-.003.04c0 .02.016.037-.022.034l.06.005c.017 0 .034-.015.031.02l.005-.06c0-.02-.014-.036.019-.035l-.065-.003z" transform="translate(3 4)"/>
        </g>
    </g>
</svg>
