<svg xmlns="http://www.w3.org/2000/svg" width="13" height="13" viewBox="0 0 13 13">
    <g fill="none" fill-rule="evenodd">
        <g fill="#0E75C3">
            <path d="M499.651 920.76l2.586 2.548c-.142.035-.288.072-.435.107l-2.374.568c-.305.073-.481-.093-.414-.395l.637-2.828zm7.415-7.328l2.513 2.512-6.433 6.43-2.518-2.511 6.438-6.43zm3.502-2.13c.407.402.811.809 1.192 1.236.33.37.316.853-.023 1.223-.402.438-.823.856-1.235 1.282-.005.005-.012.007-.016.008l-2.524-2.612.473-.481c.215-.219.425-.443.645-.656.412-.398 1.075-.407 1.488 0z" transform="translate(-499 -911)"/>
        </g>
    </g>
</svg>
