<svg width="19" height="16" viewBox="0 0 19 16" xmlns="http://www.w3.org/2000/svg" xmlns:xlink="http://www.w3.org/1999/xlink">
    <defs>
        <path id="a" d="M0 0h19v16H0z"/>
    </defs>
    <g fill="none" fill-rule="evenodd">
        <mask id="b" fill="#fff">
            <use xlink:href="#a"/>
        </mask>
        <use fill-opacity="0" fill="#D8D8D8" xlink:href="#a"/>
        <g mask="url(#b)" fill="#4F637F">
            <path d="M6 15.445c.066.173.133.34.2.499H1c-.553 0-1-.473-1-1.056V1.166C0 .583.446.11 1 .11h13.999c.552 0 1 .472 1 1.055L16 2.899c-.427.122-1.01.395-1.75.819l-.25.264-.001-1.76h-12v8.777h2l1 2h1zm4.117-7.446c-.369.375-.7.709-.994 1H3.999V8zM12 6v.068L11.093 7H4V6h8zm0-2v1h-8v-1h8z"/>
            <path d="m17.011 5.299 1.668 1.654c.408.406.41 1.067.003 1.474L11.428 15.7a1.035 1.035 0 0 1-.734.304H9.05a1.038 1.038 0 0 1-1.037-1.04v-1.649c0-.275.109-.539.303-.733l7.23-7.278a1.035 1.035 0 0 1 1.465-.005zm-6.924 7.587c-.534 0-.974.405-1.03.926l-.007.113c0 .536.405.977.924 1.034l.113.006c.535 0 .975-.406 1.031-.927l.006-.113c0-.536-.404-.977-.924-1.033l-.113-.006z"/>
        </g>
    </g>
</svg>
