<svg xmlns="http://www.w3.org/2000/svg" width="8" height="12" viewBox="0 0 8 12">
    <g fill="none" fill-rule="evenodd">
        <g fill="#1A91EB">
            <path d="M119.743 787.685c-.345.424-.903.424-1.248 0l-2.492-2.267-2.493 2.267c-.344.424-.903.424-1.246 0-.345-.424-.345-1.11 0-1.533l3.116-2.835c.344-.423.901-.423 1.246 0l3.117 2.835c.343.423.343 1.11 0 1.533zm-7.486 2.633c.345-.424.903-.424 1.248 0l2.491 2.267 2.494-2.267c.344-.424.903-.424 1.246 0 .345.423.345 1.11 0 1.533l-3.116 2.834c-.344.424-.901.424-1.246 0l-3.117-2.834c-.343-.423-.343-1.11 0-1.533z" transform="translate(-112 -783)"/>
        </g>
    </g>
</svg>
