<svg xmlns="http://www.w3.org/2000/svg" width="9" height="13" viewBox="0 0 9 13">
    <g fill="none" fill-rule="evenodd">
        <g fill="#FFF">
            <path d="M720.31 788.101c-.371.455-.97.455-1.34 0l-2.674-2.433-2.676 2.433c-.369.455-.968.455-1.337 0-.37-.455-.37-1.191 0-1.646l3.344-3.041c.37-.454.968-.454 1.338 0l3.344 3.041c.368.455.368 1.191 0 1.646zm-8.034 2.825c.37-.454.97-.454 1.339 0l2.673 2.433 2.677-2.433c.369-.454.969-.454 1.338 0 .369.455.369 1.192 0 1.646l-3.345 3.042c-.369.454-.967.454-1.337 0l-3.345-3.042c-.368-.454-.368-1.191 0-1.646z" transform="translate(-712 -783)"/>
        </g>
    </g>
</svg>
