<svg xmlns="http://www.w3.org/2000/svg" width="12" height="13" viewBox="0 0 12 13">
    <path fill="#798189" fill-rule="evenodd" d="M4.947 7.563c.293.293.293.768 0 1.061l-1.522 1.524 2.352.113c.543-.056.939.34.882.883-.055.543-.541 1.028-1.084 1.084l-4.211-.203c-.543.056-.938-.34-.883-.883l-.203-4.21c.056-.543.542-1.029 1.084-1.085.544-.055.94.34.884.883l.113 2.362 1.527-1.529c.293-.292.768-.292 1.061 0zm6.58-5.7l.202 4.212c-.056.542-.541 1.028-1.084 1.084-.544.055-.94-.34-.884-.883l-.113-2.362-1.527 1.528c-.293.293-.768.293-1.06 0-.294-.292-.294-.767 0-1.06l1.522-1.524-2.352-.113c-.543.056-.94-.34-.883-.883.056-.543.541-1.029 1.084-1.084l4.212.203c.542-.056.937.34.882.883z"/>
</svg>
