<svg width="16" height="14" viewBox="0 0 16 14" xmlns="http://www.w3.org/2000/svg" xmlns:xlink="http://www.w3.org/1999/xlink">
    <defs>
        <filter color-interpolation-filters="auto" id="c">
            <feColorMatrix in="SourceGraphic" values="0 0 0 0 0.474510 0 0 0 0 0.505882 0 0 0 0 0.537255 0 0 0 1.000000 0"/>
        </filter>
        <path id="a" d="M0 0h16v14H0z"/>
    </defs>
    <g fill="none" fill-rule="evenodd">
        <mask id="b" fill="#fff">
            <use xlink:href="#a"/>
        </mask>
        <g mask="url(#b)">
            <g filter="url(#c)" transform="translate(.6 .62)">
                <path d="M4.147 7.305v1.1H1.65v-1.1h2.497zm2.268-2.527v1.1H1.65v-1.1h4.765zM8.836 2.25v1.1H1.65v-1.1h7.186z" fill="#004DFF" fill-rule="nonzero"/>
            </g>
            <path d="M11.043 3.97V1.72a1.097 1.097 0 0 0-1.1-1.1H1.7a1.1 1.1 0 0 0-1.1 1.1v10.3a1.1 1.1 0 0 0 1.1 1.1h4.163" stroke="#798189" stroke-width="1.2" stroke-linecap="round"/>
            <path d="M14.126 8.887a.565.565 0 0 0-.241-.045l-2.336.03v-2.28c0-.502-.543-.277-.864.075L6.334 10.02l4.351 3.411c.32.357.864.582.864.08v-2.304l4.028-.031c.195 0 .319-.065.37-.195.05-.13 0-.266-.153-.408l-1.51-1.583a.62.62 0 0 0-.158-.104z" fill="#47AB00"/>
        </g>
    </g>
</svg>
