<svg xmlns="http://www.w3.org/2000/svg" width="17" height="15" viewBox="0 0 17 15">
    <g fill="none" fill-rule="evenodd" transform="translate(-5 -6)">
        <path fill="#383F51" d="M21.946 12.47l-1.767 6.768c-.197.99-1.06 1.702-2.064 1.702h-3.537v-3.176h2.105l-3.158-3.177-3.158 3.177h2.105v3.176H8.935c-1.003 0-1.867-.712-2.064-1.702L5.104 12.47h16.842zm-3.157-3.177c.58 0 1.052.474 1.052 1.06v1.058H7.209v-1.059c0-.585.472-1.059 1.053-1.059H18.79zm-1.054-3.176c.582 0 1.054.474 1.054 1.059v1.059H8.262v-1.06c0-.584.471-1.058 1.052-1.058h8.421z"/>
        <rect width="28" height="28" fill="#D8D8D8" fill-opacity="0" rx="5"/>
    </g>
</svg>
