<svg xmlns="http://www.w3.org/2000/svg" width="19" height="19" viewBox="0 0 19 19">
    <g fill="none" fill-rule="evenodd">
        <g fill="#0E75C3" fill-rule="nonzero">
            <g>
                <g>
                    <g>
                        <path d="M5 0c.327 0 .622.169.76.431.466.887 1.092 1.858 1.72 2.827l.376.58C8.977 5.576 10 7.249 10 8.355c0 2.447-2.239 4.126-5 4.126S0 10.8 0 8.354c0-1.106 1.023-2.78 2.144-4.515l.375-.58c.629-.97 1.255-1.94 1.721-2.828C4.378.17 4.673 0 5 0zM3.442 5.02l-.04.054c-.166.217-.458.599-.554.78-.82 1.556-1.066 2.739-.706 3.613.443 1.08 1.708 1.343 2.196.998.487-.345.355-.849-.215-1.763-.52-.835-.924-2.944-.708-3.612l.027-.07z" transform="translate(-566 -453) translate(122 453) translate(444) translate(4.6 2.88)"/>
                    </g>
                    <g>
                        <path d="M17.216 15.795h-.564C18.172 14.062 19 11.877 19 9.567c0-2.556-1.014-4.958-2.855-6.765C14.305.995 11.857 0 9.253 0 7.9 0 6.593.282 5.383.78c-.813.336-.199 1.43.6 1.06 1.008-.466 2.13-.635 3.27-.635 2.276 0 4.415.87 6.024 2.449 3.129 3.07 3.31 7.954.546 11.236v-.462c0-.332-.274-.602-.613-.602-.34 0-.614.27-.614.602v1.97c0 .332.275.602.614.602h2.006c.339 0 .614-.27.614-.602 0-.333-.275-.603-.614-.603z" transform="translate(-566 -453) translate(122 453) translate(444)"/>
                        <path d="M12.223 17.795h-.562C13.174 16.062 14 13.877 14 11.567c0-2.556-1.01-4.958-2.843-6.765C9.323 2.995 6.885 2 4.292 2c-1.347 0-2.659.248-3.854.78-.84.375-.379 1.51.597 1.06 1.005-.464 2.121-.635 3.257-.635 2.267 0 4.398.87 6 2.449 3.116 3.07 3.297 7.954.544 11.236v-.462c0-.332-.274-.602-.611-.602-.338 0-.611.27-.611.602v1.97c0 .332.273.602.61.602h2c.337 0 .61-.27.61-.602 0-.333-.273-.603-.61-.603z" transform="translate(-566 -453) translate(122 453) translate(444) rotate(-180 7 10.5)"/>
                    </g>
                </g>
            </g>
        </g>
    </g>
</svg>
