<svg xmlns="http://www.w3.org/2000/svg" width="18" height="18" viewBox="0 0 18 18">
    <g fill="none" fill-rule="evenodd">
        <g fill="#EC0FE6">
            <path d="M349 453c4.97 0 9 4.03 9 9s-4.03 9-9 9-9-4.03-9-9 4.03-9 9-9zm0 2.842c-2.354 0-4.263 1.838-4.263 4.105 0 1.986 1.464 3.643 3.41 4.023v.903h-1.737c-.453 0-.82.368-.82.821 0 .454.367.822.82.822l1.736-.001.001.79c0 .471.382.853.853.853s.852-.382.852-.853v-.79h1.738c.453 0 .82-.367.82-.82 0-.454-.367-.822-.82-.822h-1.738l.001-.903c1.946-.38 3.41-2.037 3.41-4.023 0-2.267-1.908-4.105-4.263-4.105zm0 1.642c1.413 0 2.558 1.103 2.558 2.463s-1.145 2.463-2.558 2.463c-1.413 0-2.558-1.103-2.558-2.463s1.145-2.463 2.558-2.463z" transform="translate(-340 -453)"/>
        </g>
    </g>
</svg>
