<svg xmlns="http://www.w3.org/2000/svg" width="18" height="18" viewBox="0 0 18 18">
    <g fill="none" fill-rule="evenodd">
        <g fill="#20AEFF">
            <path d="M379 453c4.97 0 9 4.03 9 9s-4.03 9-9 9-9-4.03-9-9 4.03-9 9-9zm3.961 3.108h-2.956c-.544 0-.985.44-.985.985 0 .544.441.985.985.985h.844l-1.383 1.424c-.582-.281-1.234-.438-1.924-.438-2.448 0-4.433 1.985-4.433 4.433 0 2.449 1.985 4.434 4.433 4.434 2.449 0 4.434-1.985 4.434-4.434 0-1.133-.425-2.167-1.124-2.95l1.222-1.258v.76c0 .544.442.985.986.985s.985-.441.985-.985v-2.956c0-.544-.441-.985-.985-.985h-.099zm-5.419 4.729c1.47 0 2.66 1.191 2.66 2.66 0 1.47-1.19 2.66-2.66 2.66-1.469 0-2.66-1.19-2.66-2.66 0-1.469 1.191-2.66 2.66-2.66z" transform="translate(-370 -453)"/>
        </g>
    </g>
</svg>
