<svg xmlns="http://www.w3.org/2000/svg" width="13" height="13" viewBox="0 0 13 13">
    <path fill="#189BE6" d="M11 1c.47 0 .85.38.85.85v3.3c0 .47-.38.85-.85.85s-.85-.38-.85-.85l-.001-1.229-1.622 1.623c.608.735.973 1.678.973 2.706 0 2.347-1.903 4.25-4.25 4.25S1 10.597 1 8.25 2.903 4 5.25 4c.707 0 1.374.173 1.961.478.027-.042.06-.082.097-.12L8.966 2.7H7.7c-.47 0-.85-.38-.85-.85S7.23 1 7.7 1H11zM5.25 5.7C3.842 5.7 2.7 6.842 2.7 8.25s1.142 2.55 2.55 2.55S7.8 9.658 7.8 8.25 6.658 5.7 5.25 5.7z"/>
</svg>
