<svg xmlns="http://www.w3.org/2000/svg" width="13" height="13" viewBox="0 0 13 13">
    <g fill="none" fill-rule="evenodd">
        <path fill="#FFF" d="M6.5 0C8.986 0 11 1.94 11 4.333 11 6.43 9.454 8.179 7.4 8.58l-.001.953h1.835c.478 0 .866.388.866.866 0 .48-.388.868-.866.868l-1.835-.001v.834c0 .497-.402.9-.899.9s-.9-.403-.9-.9l-.001-.834H3.766c-.478 0-.866-.387-.866-.867 0-.478.388-.866.866-.866H5.6v-.954C3.545 8.177 2 6.43 2 4.333 2 1.94 4.015 0 6.5 0zm0 1.733c-1.491 0-2.7 1.164-2.7 2.6 0 1.436 1.209 2.6 2.7 2.6s2.7-1.164 2.7-2.6c0-1.436-1.209-2.6-2.7-2.6z"/>
    </g>
</svg>
