<svg xmlns="http://www.w3.org/2000/svg" width="23" height="15" viewBox="0 0 23 15">
    <g fill="#02AA6D" fill-rule="evenodd">
        <path d="M13.999 0c.552 0 1 .447 1 1 0 .552-.448 1-1 1h-2.001v7.5c0 2.414-1.9 4.384-4.287 4.494L7.499 14c-2.486 0-4.5-2.014-4.5-4.5L2.998 2h-2c-.552 0-1-.447-1-1 0-.552.448-1 1-1h13zm-3.001 2h-7v5h7V2z"/>
        <path stroke="#FFF" d="M15.999 1.5c3.59 0 6.5 2.91 6.5 6.5s-2.91 6.5-6.5 6.5-6.5-2.91-6.5-6.5 2.91-6.5 6.5-6.5zm3.385 5.1h0c-.16-.143-.44-.143-.606.004L15.16 9.755l-.328-.287-1.65-1.442c-.144-.13-.391-.144-.528-.055l-.073.055c-.128.113-.128.271-.004.382l2.283 1.995c.07.061.164.1.237.105l.063.004.093-.011c.08-.015.152-.05.212-.103l3.92-3.413c.126-.113.126-.271 0-.385z"/>
    </g>
</svg>
