<svg xmlns="http://www.w3.org/2000/svg" width="11" height="14" viewBox="0 0 11 14">
    <g fill="none" fill-rule="evenodd">
        <g fill="#FFF">
            <path d="M795.585 794.507v1.702h-1.723v-1.702h1.723zm-1.458-10.897c3.074 0 4.904 1.754 4.904 4.147 0 1.06-.514 1.826-1.626 2.868l-.796.734c-.391.368-.461.463-.554.64-.296.568-.46.305-.483 1.195l-.002.208h-1.731c0-1.227.218-1.283.668-2.145.16-.307.393-.594.72-.92l.15-.146.17-.16.514-.468c.887-.813 1.24-1.307 1.24-1.806 0-1.477-1.056-2.488-3.174-2.488-1.472 0-2.494.803-3.156 2.58l-.06.17-1.643-.524c.88-2.528 2.531-3.885 4.86-3.885z" transform="translate(-789 -783)"/>
        </g>
    </g>
</svg>
