<svg xmlns="http://www.w3.org/2000/svg" width="10" height="12" viewBox="0 0 10 12">
    <g fill="none" fill-rule="evenodd">
        <g fill="#1A91EB">
            <g>
                <path d="M5.886 10.154v1.586H4.281v-1.586h1.605zM4.528 0c2.864 0 4.569 1.634 4.569 3.864 0 .99-.479 1.702-1.515 2.673l-.741.684c-.366.343-.43.43-.517.596-.276.53-.43.284-.45 1.113l-.002.195H4.259c0-1.143.204-1.196.623-2 .149-.285.365-.553.67-.857l.14-.136c.049-.047.1-.096.158-.148l.48-.437c.826-.757 1.154-1.218 1.154-1.683 0-1.376-.983-2.318-2.956-2.318-1.372 0-2.325.748-2.941 2.405l-.057.158L0 3.62C.819 1.265 2.359 0 4.528 0z" transform="translate(-219 -783) translate(219 783)"/>
            </g>
        </g>
    </g>
</svg>
