<svg xmlns="http://www.w3.org/2000/svg" width="13" height="14" viewBox="0 0 13 14">
    <g fill="none" fill-rule="evenodd">
        <g fill="#1A91EB">
            <path d="M383.432 781c.912 0 1.685.654 1.756 1.519l.006.131v10.7c0 .884-.73 1.58-1.626 1.645l-.136.005h-8.67c-.912 0-1.685-.654-1.757-1.519l-.005-.131v-1.946c0-.374.303-.677.677-.677.343 0 .627.255.672.586l.006.091v1.946c0 .127.127.258.32.288l.086.007h8.671c.21 0 .364-.114.4-.24l.007-.055v-10.7c0-.127-.128-.258-.32-.288l-.087-.007h-8.67c-.21 0-.364.114-.4.24l-.007.055v1.946c0 .374-.303.677-.678.677-.343 0-.626-.255-.67-.586l-.007-.091v-1.946c0-.884.73-1.58 1.626-1.645l.135-.005h8.671zm-5.722 3.122l2.834 3.122c.423.344.423.902 0 1.248l-2.834 3.121c-.424.344-1.11.344-1.534 0-.423-.346-.423-.904 0-1.25l1.59-1.75-3.628.001c-.414 0-.75-.335-.75-.75 0-.414.336-.75.75-.75h3.621l-1.583-1.744c-.423-.344-.423-.904 0-1.248.424-.345 1.11-.345 1.534 0z" transform="translate(-373 -781)"/>
        </g>
    </g>
</svg>
