<?xml version="1.0" encoding="UTF-8"?>
<svg width="11px" height="13px" viewBox="0 0 11 13" version="1.1" xmlns="http://www.w3.org/2000/svg" xmlns:xlink="http://www.w3.org/1999/xlink">
    <title>E4D4D76B-C6FE-48AD-A0E9-80C458626985</title>
    <g id="Page-1" stroke="none" stroke-width="1" fill="none" fill-rule="evenodd">
        <g id="0.9.1-מדדים-חדש-/-עריכה" transform="translate(-521.000000, -907.000000)" fill="#1A91EB">
            <g id="Card-Copy-7" transform="translate(18.000000, 837.000000)">
                <g id="Group-7-Copy-5" transform="translate(395.000000, 66.000000)">
                    <g id="indices" transform="translate(108.000000, 4.000000)">
                        <path d="M10.2825646,0 C10.6255848,0 10.9036576,0.283645642 10.9036576,0.633540273 C10.9036576,0.948445441 10.6784186,1.03713868 10.3833091,1.08623832 L10.2825646,1.0945303 L1.50549587,1.0945303 C1.30540073,1.0945303 1.13845582,1.41185801 1.09984608,1.60432042 L1.09143381,1.68944073 L1.09984608,10.8400793 C1.09984608,11.0441845 1.2417791,11.2144751 1.43046019,11.2538586 L1.51390813,11.2624395 C3.55880906,11.2624395 5.06735937,11.2624395 6.03955905,11.2624395 C7.19391251,11.2624395 8.2981692,11.2624395 9.35232914,11.2624395 C9.55242428,11.2624395 9.86892956,11.0325417 9.9075393,10.8400793 L9.91595157,10.754959 L9.9075393,3.79618411 C9.9075393,3.44628948 9.95428659,3.24776415 10.379072,3.24776415 C10.8038574,3.24776415 10.943901,3.47751712 10.992036,3.7785409 L11.0001651,3.88130442 L11.0001651,10.6185222 C11.0001651,11.4997383 10.3387408,12.2233745 9.49466922,12.3010587 L9.34391687,12.3079629 L1.65624821,12.3079629 C0.792345396,12.3079629 0.0829265001,11.6332832 0.00676854509,10.7722957 L0,10.6185222 L0,1.68944073 C0,0.80822462 0.661424295,0.0845884123 1.50549587,0.00690419205 L1.65624821,0 L10.2825646,0 Z" id="Path" fill-rule="nonzero"></path>
                        <g id="Group-22" transform="translate(2.152173, 2.273292)">
                            <rect id="Rectangle" x="0.121118072" y="0" width="3" height="1"></rect>
                            <circle id="Oval" cx="5.75" cy="0.75" r="1"></circle>
                            <circle id="Oval-Copy" cx="5.75" cy="3.75" r="1"></circle>
                            <rect id="Rectangle-Copy-17" x="0.121118072" y="3.78881928" width="3" height="1"></rect>
                            <g id="Group-11" transform="translate(0.000000, 5.726708)">
                                <rect id="Rectangle-Copy-18" x="0.5" y="0" width="6" height="1"></rect>
                                <polygon id="Rectangle-Copy-22" transform="translate(6.319875, 1.054347) rotate(90.000000) translate(-6.319875, -1.054347) " points="5.26552751 0.675465063 7.3742215 0.675465063 7.3742215 1.43322892 5.26552751 1.43322892"></polygon>
                                <polygon id="Rectangle-Copy-23" transform="translate(0.500000, 1.054347) rotate(90.000000) translate(-0.500000, -1.054347) " points="-0.554346991 0.675465063 1.55434699 0.675465063 1.55434699 1.43322892 -0.554346991 1.43322892"></polygon>
                                <rect id="Rectangle-Copy-19" x="0.5" y="1.35093013" width="6" height="1"></rect>
                            </g>
                            <rect id="Rectangle-Copy-16" x="0.121118072" y="1.89440964" width="3" height="1"></rect>
                        </g>
                    </g>
                </g>
            </g>
        </g>
    </g>
</svg>