<svg xmlns="http://www.w3.org/2000/svg" width="10" height="14" viewBox="0 0 10 14">
    <path fill="#798189" fill-rule="evenodd" d="M6.377 11.5v1.719h-1.74V11.5h1.74zM4.905.5c3.103 0 4.95 1.77 4.95 4.187 0 1.07-.519 1.843-1.641 2.894l-.803.741c-.396.372-.467.468-.56.646-.3.574-.465.308-.487 1.207l-.003.21H4.614c0-1.238.22-1.295.675-2.166.161-.31.396-.599.726-.928l.15-.148c.054-.05.11-.104.173-.16l.519-.474c.895-.82 1.251-1.32 1.251-1.822 0-1.492-1.065-2.512-3.203-2.512-1.486 0-2.518.81-3.186 2.605l-.062.171L0 4.421C.887 1.872 2.555.5 4.905.5z"/>
</svg>
