<svg width="18" height="15" viewBox="0 0 18 15" xmlns="http://www.w3.org/2000/svg">
    <g fill="none" fill-rule="evenodd">
        <path d="M14.057 12.979c-2.635 2.096-6.367 2.151-8.977.133-.394-.304-.478-.599-.253-.88.204-.254.484-.266.833-.05l.107.072c2.064 1.488 4.302 1.72 6.59.525 2.353-1.23 3.44-3.25 3.27-5.828a5.426 5.426 0 0 0-.03-.31c.347-.379.657-.715.93-1.008.722 2.628-.21 5.548-2.47 7.346zm-.815-11.503-.852.781a6.113 6.113 0 0 0-3.082-.615c-3.254.203-5.802 2.91-5.802 6.04 0 .278.021.487.044.632l.028.145.03.113.388-.273.2-.145.195-.135c.325-.216.558-.32.825-.088.206.178.064.399-.166.62l-.146.133-.077.065c-.438.37-.667.624-.842.862l-.123.177-.119.18c-.209.322-.473.426-.772.212l-.519-.376-.463-.338a17.91 17.91 0 0 0-.216-.155l-.494-.336c-.259-.188-.424-.364-.334-.59.11-.277.45-.22.767-.09l.212.096.177.084.157.081.232.13-.055-.304-.018-.13C2.151 4.866 4.355 1.78 7.726.813a7.212 7.212 0 0 1 5.516.662z" fill="#525C73"/>
        <path d="m8.074 8.577 2.24 2.027-2.478.823c-.33.112-.424.078-.389-.162l.031-.151.596-2.537zm8.044-7.252c.355.31.708.623 1.042.955.29.287.3.68.033.996l-6.395 6.815-2.183-1.999 6.27-6.703a.899.899 0 0 1 1.233-.064z" fill="#A92BFF"/>
    </g>
</svg>
