<svg xmlns="http://www.w3.org/2000/svg" width="14" height="18" viewBox="0 0 14 18">
    <g fill="none" fill-rule="evenodd">
        <g fill="#FFF" fill-rule="nonzero">
            <g>
                <g>
                    <g>
                        <g>
                            <path d="M11 4c-1.103 0-2-.898-2-2 0-1.102.897-2 2-2s2 .898 2 2c0 1.102-.897 2-2 2zM8.5 18C5.467 18 3 15.612 3 12.675c0-.123.004-.247.027-.37l.726.124.78-.003c0 .043-.004.093-.013.136-.006.037-.003.075-.003.113 0 2.127 1.787 3.856 3.983 3.856s3.983-1.73 3.983-3.856c0-1.408-.795-2.706-2.074-3.389L11.143 8C12.905 8.942 14 10.733 14 12.675 14 15.612 11.533 18 8.5 18z" transform="translate(-1163 -189) translate(0 186) translate(1031) translate(124) matrix(-1 0 0 1 22 3)"/>
                            <path d="M1.398 17H.586c-.19 0-.369-.094-.478-.254-.11-.159-.138-.362-.075-.546L1.827 11c.412-1.196 1.524-2 2.765-2h1.975c.402 0 .757-.246.906-.626l.84-2.148C8.602 5.482 9.3 5 10.086 5c.621 0 1.188.296 1.55.813.363.517.46 1.158.263 1.762l-.84 2.58c-.399 1.223-1.513 2.047-2.772 2.051l-3.069.01c-.417.002-.788.274-.922.68l-.862 2.608C3.14 16.399 2.322 17 1.398 17z" transform="translate(-1163 -189) translate(0 186) translate(1031) translate(124) matrix(-1 0 0 1 22 3)"/>
                        </g>
                    </g>
                </g>
            </g>
        </g>
    </g>
</svg>
