<svg width="13" height="18" viewBox="0 0 13 18" xmlns="http://www.w3.org/2000/svg">
    <g fill="none" fill-rule="evenodd">
        <path d="M6.5.75a5.73 5.73 0 0 1 3.988 1.608 5.732 5.732 0 0 1 1.758 3.913l.004 9.437a.872.872 0 0 1-.875.875h-9.75a.872.872 0 0 1-.875-.875V6.5c0-1.588.644-3.025 1.684-4.066A5.732 5.732 0 0 1 6.5.75z" stroke="#FFF" stroke-width="1.5"/>
        <path d="M6.491 8.97c2.588 0 3.53 2.817 3.53 3.725 0 .908-.186 1.072-.366 1.275-.203.229-.797.765-3.166.765-2.37 0-2.83-.555-2.988-.697-.172-.156-.522-.434-.522-1.343 0-.908.925-3.724 3.512-3.724zm.007-4.637a2.206 2.206 0 1 1 0 4.412 2.206 2.206 0 0 1 0-4.412z" fill="#FFF"/>
    </g>
</svg>
