<svg width="18" height="16" viewBox="0 0 18 16" xmlns="http://www.w3.org/2000/svg">
    <g fill="none" fill-rule="evenodd">
        <path d="M4.762.5c.01 0 .018.01.018.02 0 .971.857 2.148 1.848 3.511.468.643.957 1.315 1.396 2.017a6.331 6.331 0 0 0-1.849 4.48c0 .89.183 1.737.513 2.506a3.461 3.461 0 0 1-2.357.895c-1.328 0-2.35-.487-3.119-1.512.713 1.38 1.958 2.354 3.543 2.354.931 0 1.742-.33 2.38-.884.161.26.342.508.54.742a4.523 4.523 0 0 1-2.911 1.07H4.74C2.127 15.7 0 13.434 0 10.648v-.321c0-.069.002-.137.004-.204 0-.032.004-.064.005-.096l.006-.1.012-.135c.002-.018.003-.035.006-.052.223-2.111 1.606-4.014 2.84-5.708C3.864 2.668 4.72 1.491 4.72.52c0-.01.009-.02.02-.02h.02zM4.75 3.002c-.795 1.2-2.089 2.844-2.089 2.844A27.01 27.01 0 0 0 4.75 3.935c.62 1.068 2.158 2.44 2.4 2.653l.032.028C5.874 5.009 4.898 3.27 4.765 3.03l-.015-.028z" fill="#DF0000"/>
        <path d="M12.5 5a5.5 5.5 0 1 1 0 11 5.5 5.5 0 0 1 0-11zm3.894 2.649c-.236-.172-2.943.748-4.791 3.553-1.205-1.505-3.042-1.97-3.246-1.791-.158.139.006.387.95 1.543.743.91 1.757 2.722 1.997 2.933.294.259.546.204.741 0 .543-.565 1.606-2.736 3.777-5.178.752-.846.673-.987.572-1.06z" fill="#37A664"/>
    </g>
</svg>
