<svg width="20" height="11" viewBox="0 0 20 11" xmlns="http://www.w3.org/2000/svg">
    <defs>
        <filter color-interpolation-filters="auto" id="a">
            <feColorMatrix in="SourceGraphic" values="0 0 0 0 0.000000 0 0 0 0 0.596078 0 0 0 0 1.000000 0 0 0 1.000000 0"/>
        </filter>
    </defs>
    <g transform="translate(0 .763)" filter="url(#a)" fill="none" fill-rule="evenodd">
        <g fill="#1990EA">
            <path d="M6.533 1.4c-.292.322-.532.8-.72 1.434H4.648a2.866 2.866 0 0 0-.168 5.728l.168.005h3.174a2.866 2.866 0 0 0 2.086-4.832 2.062 2.062 0 0 1 1.097-1.265A4.3 4.3 0 0 1 8.169 10h-3.87a4.3 4.3 0 0 1 0-8.599z"/>
            <path d="M15.048 0a4.299 4.299 0 1 1 0 8.598l-2.251.002a5.014 5.014 0 0 0 .813-1.65l-.066.215H14.7a2.866 2.866 0 1 0 0-5.732h-3.174a2.866 2.866 0 0 0-2.088 4.83c-.185.545-.752 1.043-1.13 1.236a4.299 4.299 0 0 1 2.87-7.5l3.87.001z"/>
        </g>
    </g>
</svg>
