<svg xmlns="http://www.w3.org/2000/svg" width="11" height="10" viewBox="0 0 11 10">
    <g fill="none" fill-rule="evenodd">
        <g fill="#1A91EB" fill-rule="nonzero">
            <path d="M120.25 1180.2c.414 0 .75.336.75.75s-.336.75-.75.75h-9.5c-.414 0-.75-.336-.75-.75s.336-.75.75-.75h9.5zm0-4.2c.414 0 .75.336.75.75s-.336.75-.75.75h-9.5c-.414 0-.75-.336-.75-.75s.336-.75.75-.75h9.5zm0-4c.414 0 .75.336.75.75s-.336.75-.75.75h-9.5c-.414 0-.75-.336-.75-.75s.336-.75.75-.75h9.5z" transform="translate(-110 -1172)"/>
        </g>
    </g>
</svg>
