<svg xmlns="http://www.w3.org/2000/svg" width="16" height="17" viewBox="0 0 16 17">
    <g fill="none" fill-rule="evenodd" transform="translate(-6 -5)">
        <rect width="28" height="28" fill="#D8D8D8" fill-opacity="0" rx="5"/>
        <path fill="#383F51" fill-rule="nonzero" d="M18 5.25c2.004 0 3.641 1.572 3.745 3.55l.005.2v5h-1.5V9c0-1.243-1.007-2.25-2.25-2.25-1.19 0-2.166.925-2.245 2.096L15.75 9v3H16c1.105 0 2 .895 2 2v6c0 1.105-.895 2-2 2H8c-1.105 0-2-.895-2-2v-6c0-1.105.895-2 2-2h6.25V9c0-2.071 1.679-3.75 3.75-3.75zM13 15h-2v4h2v-4z"/>
    </g>
</svg>
