<svg xmlns="http://www.w3.org/2000/svg" width="16" height="16" viewBox="0 0 16 16">
    <g fill="none" fill-rule="evenodd">
        <g fill="#0E75C3" fill-rule="nonzero">
            <path d="M627 384.25c2.004 0 3.641 1.572 3.745 3.55l.005.2v5h-1.5v-5c0-1.243-1.007-2.25-2.25-2.25-1.19 0-2.166.925-2.245 2.096l-.005.154v3h.25c1.105 0 2 .895 2 2v5c0 1.105-.895 2-2 2h-8c-1.105 0-2-.895-2-2v-5c0-1.105.895-2 2-2h6.25v-3c0-2.071 1.679-3.75 3.75-3.75zm-5 9.45h-2v3.6h2v-3.6z" transform="translate(-615 -384)"/>
        </g>
    </g>
</svg>
