<svg xmlns="http://www.w3.org/2000/svg" width="13" height="17" viewBox="0 0 13 17">
    <path fill="#4B4E59" fill-rule="nonzero" d="M11.222 7a1 1 0 0 1 1 1v8a1 1 0 0 1-1 1H1a1 1 0 0 1-1-1V8a1 1 0 0 1 1-1h10.222zm0 1H1v8h10.222V8zm-5.11 2.5a1 1 0 0 1 .5 1.866V13.5h-1l-.001-1.134a1 1 0 0 1 .5-1.866zM2.13 4.8C2.255 2.016 3.308.5 6.11.5c2.72 0 3.793 1.428 3.968 4.057l.014.243c.011.255.016.472.017.812L10.111 7h-1l-.005-1.8a14.674 14.674 0 0 0-.012-.355C8.989 2.532 8.273 1.5 6.11 1.5c-2.09 0-2.829.964-2.97 3.118l-.012.227"/>
</svg>
