<svg xmlns="http://www.w3.org/2000/svg" width="10" height="14" viewBox="0 0 10 14">
    <g fill="none" fill-rule="evenodd">
        <g fill="#FFF">
            <path d="M190 1228c1.67 0 3.034 1.31 3.12 2.959l.005.166v2.504l.024.001c1.035.077 1.851.94 1.851 1.995v4.333c0 1.105-.895 2-2 2h-6c-1.105 0-2-.895-2-2v-4.333c0-1.063.829-1.932 1.875-1.996v-2.504c0-1.726 1.4-3.125 3.125-3.125zm0 8.125c-.425 0-.775.318-.827.729l-.006.104v1.667c0 .46.373.833.833.833.425 0 .775-.318.827-.728l.006-.105v-1.667c0-.46-.373-.833-.833-.833zm0-6.875c-.992 0-1.805.771-1.87 1.747l-.005.128v2.5h3.75v-2.5c0-1.036-.84-1.875-1.875-1.875z" transform="translate(-185 -1228)"/>
        </g>
    </g>
</svg>
