<svg xmlns="http://www.w3.org/2000/svg" xmlns:xlink="http://www.w3.org/1999/xlink" width="28" height="20" viewBox="0 0 28 20">
    <defs>
        <path id="hdzca0usja" d="M0 0H28V19.731H0z"/>
    </defs>
    <g fill="none" fill-rule="evenodd">
        <g>
            <g>
                <g transform="translate(-208 -295) translate(102 291) translate(106 4)">
                    <mask id="q9wmt4scxb" fill="#fff">
                        <use xlink:href="#hdzca0usja"/>
                    </mask>
                    <g mask="url(#q9wmt4scxb)">
                        <g>
                            <g fill="#C1C6D0" transform="translate(1.038 1.038) translate(3.115 4.154)">
                                <path d="M5.677 6.715c3.22 0 5.137 2.329 5.355 5.308-1.45 1.226-3.304 1.962-5.326 1.962-2.046 0-3.922-.755-5.38-2.008.235-2.958 2.148-5.262 5.351-5.262z"/>
                                <ellipse cx="5.678" cy="3.115" rx="3.024" ry="3.115"/>
                            </g>
                            <path stroke="#C1C6D0" stroke-linecap="round" stroke-linejoin="round" stroke-width="1.2" d="M16.573 4.384C15.032 1.762 12.168 0 8.89 0 3.98 0 0 3.952 0 8.827s3.98 8.827 8.89 8.827c3.308 0 6.195-1.795 7.725-4.457" transform="translate(1.038 1.038)"/>
                            <path fill="#C1C6D0" fill-rule="nonzero" d="M23.393 7.469c-.877-.313-2.163-.258-3.858.163-1.696.421-3.015 1.685-3.958 3.791 1.297-.798 2.76-1.246 4.39-1.344 1.63-.099 2.715-.085 3.255.041.366 0 .663-.51.663-1.138 0-.628-.126-1.513-.492-1.513z" transform="translate(1.038 1.038)"/>
                            <path fill="#C1C6D0" d="M24.365 6.231L28 10.385 20.731 10.385z" transform="translate(1.038 1.038) rotate(90 24.365 8.308)"/>
                        </g>
                    </g>
                </g>
            </g>
        </g>
    </g>
</svg>
