<svg xmlns="http://www.w3.org/2000/svg" width="27" height="27" viewBox="0 0 27 27">
    <g fill="none" fill-rule="evenodd">
        <g>
            <g transform="translate(-691.000000, -538.000000) translate(691.000000, 538.000000)">
                <path fill="#6FBB84" fill-rule="nonzero" d="M13.5 0C6.039 0 0 6.038 0 13.5 0 20.961 6.038 27 13.5 27 20.961 27 27 20.962 27 13.5 27 6.039 20.962 0 13.5 0z"/>
                <path fill="#FFF" fill-rule="nonzero" d="M13.5 0C6.039 0 0 6.038 0 13.5 0 20.961 6.038 27 13.5 27 20.961 27 27 20.962 27 13.5 27 6.039 20.962 0 13.5 0z"/>
                <circle cx="13.5" cy="13.5" r="10.5" fill="#CFA700" fill-rule="nonzero"/>
                <path fill="#CFA700" fill-rule="nonzero" d="M13.5 0C20.962 0 27 6.039 27 13.5 27 20.962 20.961 27 13.5 27 6.038 27 0 20.961 0 13.5 0 6.038 6.039 0 13.5 0zm0 1.5c-6.632 0-12 5.367-12 12 0 6.632 5.367 12 12 12 6.632 0 12-5.367 12-12 0-6.632-5.367-12-12-12z"/>
                <text fill="#FFF" font-family="Heebo-Medium, Heebo" font-size="13" font-weight="400" letter-spacing=".095">
                    <tspan x="9.51" y="14.5">1</tspan>
                </text>
                <g fill="#FFF" fill-rule="nonzero">
                    <path d="M11.471 6.279L10.205 2.577 9.48 4.602 7.522 4.602 6.879 3.594 5.804 6.222 4.567 2.85 3.616 4.602 0 4.602 0 3.824 3.119 3.824 4.567 0.625 5.837 4.185 6.816 2.03 7.882 3.824 8.779 3.824 10.205 0 11.7 4.185 12.187 3.824 17 3.824 17 4.602 12.41 4.602z" transform="translate(5.000000, 16.000000) translate(8.500000, 3.139735) scale(-1, 1) translate(-8.500000, -3.139735)"/>
                </g>
            </g>
        </g>
    </g>
</svg>
