<svg width="16" height="16" viewBox="0 0 16 16" xmlns="http://www.w3.org/2000/svg">
    <g fill="none" fill-rule="evenodd">
        <path d="m5.803 7.983.596 1.62h1.904l.363-.567 1.548 3.595 1.387-3.994.448.965h1.475A5.756 5.756 0 0 1 8 13.75a5.756 5.756 0 0 1-5.524-4.147h.989l1.034 1.955 1.304-3.575zM8 2.25a5.73 5.73 0 0 1 3.937 1.56 5.735 5.735 0 0 1 1.78 3.568h-.652l-1.49-3.285-1.718 3.559L8.716 5.37l-.907 1.716-2.024-3.942L3.91 7.379l-1.626-.001a5.735 5.735 0 0 1 1.78-3.569A5.73 5.73 0 0 1 8 2.25z" stroke="#1a91eb" stroke-width=".5" fill="#1a91eb" fill-rule="nonzero"/>
    </g>
</svg>
