<svg xmlns="http://www.w3.org/2000/svg" width="27" height="27" viewBox="0 0 27 27">
    <g fill="none" fill-rule="evenodd">
        <g fill-rule="nonzero">
            <g>
                <path fill="#319727" d="M13.5 0C6.039 0 0 6.038 0 13.5 0 20.961 6.038 27 13.5 27 20.961 27 27 20.962 27 13.5 27 6.039 20.962 0 13.5 0z" transform="translate(-536.000000, -538.000000) translate(536.000000, 538.000000)"/>
                <path fill="#FFF" d="M13.5 0C6.039 0 0 6.038 0 13.5 0 20.961 6.038 27 13.5 27 20.961 27 27 20.962 27 13.5 27 6.039 20.962 0 13.5 0zm0 24.124c-5.858 0-10.624-4.766-10.624-10.624 0-5.858 4.766-10.624 10.624-10.624 3.269 0 6.197 1.484 8.147 3.813h-3.404c-1.66 0-2.504 2.022-1.326 3.2.596.596 1.33.55 1.325.549h2.08c.479 0 .866.387.866.866 0 .477-.388.865-.865.865h-1.697c-.92 0-1.767.5-2.213 1.303l-.986 1.777c-.16.039-.32.084-.475.132.62-1.212.634-2.3.612-2.712.705-1.092.402-2.133-1.117-2.25-.663-.051-1.017.204-1.197.426-.345.427-.38 1.113-.105 2.041.281.949-.534 1.954-.867 2.13-.493.26-1.389-.196-1.924-.468-.07-.036-.124-.066-.166-.091.064-.052.14-.11.208-.162 5.385-4.115-1.065-9.132-4.218-6.21-2.098 1.943-1.634 4.208-.598 5.556.454.592.7 1.39.746 1.546.03.25.22 1.616.947 3.063 1.061 2.115 2.762 3.377 4.917 3.65 1.455.183 2.852-.587 3.47-1.923 0-.005-.034.075.429-.923.096-.207.382-.215.493-.022l.454.794c.482.84 1.512 1.125 2.251.81l1.03-.434c.606-.255.948-.903.82-1.546-.116-.96-.998-1.165-1.975-.931-.243.058-.495-.067-.598-.296-.404-.9-1.119-2.215-2.105-2.3l.692-1.247c.297-.536.862-.869 1.475-.869h1.697c.942 0 1.71-.767 1.71-1.71 0-.944-.765-1.71-1.71-1.71l-2.08.001c-.276 0-.535-.107-.73-.302-.647-.648-.183-1.76.73-1.76h4.043c4.752 6.975-.229 16.592-8.786 16.592z" transform="translate(-536.000000, -538.000000) translate(536.000000, 538.000000)"/>
                <path fill="#319727" d="M13.5 0C20.962 0 27 6.039 27 13.5 27 20.962 20.961 27 13.5 27 6.038 27 0 20.961 0 13.5 0 6.038 6.039 0 13.5 0zm0 1.5c-6.632 0-12 5.367-12 12 0 6.632 5.367 12 12 12 6.632 0 12-5.367 12-12 0-6.632-5.367-12-12-12z" transform="translate(-536.000000, -538.000000) translate(536.000000, 538.000000)"/>
            </g>
        </g>
    </g>
</svg>
