<svg xmlns="http://www.w3.org/2000/svg" width="13" height="13" viewBox="0 0 13 13">
    <path fill="#323A4D" fill-rule="evenodd" d="M1.497 5a1.5 1.5 0 1 1 0 3 1.5 1.5 0 0 1 0-3zm0 4.999A1.5 1.5 0 1 1 1.496 13a1.5 1.5 0 0 1 0-3.001zm0-10a1.5 1.5 0 1 1-.001 3.002 1.5 1.5 0 0 1 0-3.002zm5 5a1.5 1.5 0 1 1 0 3.002 1.5 1.5 0 0 1 0-3.002zm0 5a1.501 1.501 0 1 1 0 3.002 1.501 1.501 0 0 1 0-3.002zm0-10a1.501 1.501 0 1 1-.001 3.002 1.501 1.501 0 0 1 0-3.002zm5 5a1.5 1.5 0 1 1 0 2.999 1.5 1.5 0 0 1 0-2.999zm0 5a1.5 1.5 0 1 1 0 3 1.5 1.5 0 0 1 0-3zm0-10a1.5 1.5 0 1 1 0 3 1.5 1.5 0 0 1 0-3z"/>
</svg>
