<svg xmlns="http://www.w3.org/2000/svg" width="13" height="13" viewBox="0 0 13 13">
    <path fill="#0E75C3" fill-rule="evenodd" d="M6.5 9.996c.828 0 1.5.672 1.5 1.5s-.672 1.5-1.5 1.5-1.5-.672-1.5-1.5.672-1.5 1.5-1.5zm5 0c.828 0 1.5.672 1.5 1.5s-.672 1.5-1.5 1.5-1.5-.672-1.5-1.5.672-1.5 1.5-1.5zm-10 0c.828 0 1.5.672 1.5 1.5s-.672 1.5-1.5 1.5-1.5-.672-1.5-1.5.672-1.5 1.5-1.5zm5-4.998c.828 0 1.5.671 1.5 1.5 0 .828-.672 1.5-1.5 1.5S5 7.325 5 6.497c0-.829.672-1.5 1.5-1.5zm5 0c.828 0 1.5.671 1.5 1.5 0 .828-.672 1.5-1.5 1.5s-1.5-.672-1.5-1.5c0-.829.672-1.5 1.5-1.5zm-10 0c.828 0 1.5.671 1.5 1.5 0 .828-.672 1.5-1.5 1.5S0 7.325 0 6.497c0-.829.672-1.5 1.5-1.5zM6.5 0C7.328 0 8 .671 8 1.5 8 2.328 7.328 3 6.5 3S5 2.327 5 1.5C5 .67 5.672 0 6.5 0zm5 0c.828 0 1.5.671 1.5 1.5 0 .828-.672 1.5-1.5 1.5S10 2.327 10 1.5c0-.829.672-1.5 1.5-1.5zm-10 0C2.328 0 3 .671 3 1.5 3 2.328 2.328 3 1.5 3S0 2.327 0 1.5C0 .67.672 0 1.5 0z"/>
</svg>
