<svg width="13" height="13" viewBox="0 0 13 13" xmlns="http://www.w3.org/2000/svg">
    <path d="M6.5 9.996a1.5 1.5 0 1 1 0 3 1.5 1.5 0 0 1 0-3zm5 0a1.5 1.5 0 1 1 0 3 1.5 1.5 0 0 1 0-3zm-10 0a1.5 1.5 0 1 1 0 3 1.5 1.5 0 0 1 0-3zm5-4.998a1.5 1.5 0 1 1 0 3 1.5 1.5 0 0 1 0-3zm5 0a1.5 1.5 0 1 1 0 3 1.5 1.5 0 0 1 0-3zm-10 0a1.5 1.5 0 1 1 0 3 1.5 1.5 0 0 1 0-3zM6.5 0a1.5 1.5 0 1 1 0 3 1.5 1.5 0 0 1 0-3zm5 0a1.5 1.5 0 1 1 0 3 1.5 1.5 0 0 1 0-3zm-10 0a1.5 1.5 0 1 1 0 3 1.5 1.5 0 0 1 0-3z" fill="#4F637F" fill-rule="evenodd"/>
</svg>
