<svg xmlns="http://www.w3.org/2000/svg" width="18" height="16" viewBox="0 0 18 16">
    <path fill="#0E75C3" fill-rule="evenodd" d="M17.505 6.901l-1.767 7.22c-.197 1.055-1.06 1.815-2.064 1.815h-3.537v-3.388h2.105L9.084 9.16l-3.158 3.388h2.105v3.388H4.494c-1.004 0-1.867-.76-2.064-1.816L.663 6.901h16.842zm-3.158-3.388c.581 0 1.053.506 1.053 1.13v1.129H2.768v-1.13c0-.623.471-1.13 1.053-1.13h10.526zM13.294.125c.582 0 1.053.505 1.053 1.13v1.129H3.821v-1.13c0-.624.471-1.129 1.052-1.129h8.421z"/>
</svg>
