<svg xmlns="http://www.w3.org/2000/svg" width="24" height="28" viewBox="0 0 24 28">
    <g fill="none" fill-rule="evenodd">
        <g>
            <g>
                <g>
                    <path fill="#17D464" fill-rule="nonzero" d="M16.633 11.95L16.633 8.782 19.808 8.782 19.808 6.518 16.633 6.518 16.633 3.35 14.366 3.35 14.366 6.518 11.198 6.518 11.198 8.782 14.366 8.782 14.366 11.95z" transform="translate(-171.000000, -291.000000) translate(129.999972, 291.000000) translate(41.000000, 0.850000)"/>
                    <path fill="#C1C6D0" d="M21.3 0c1.38 0 2.5 1.12 2.5 2.5v21.353c0 1.381-1.12 2.5-2.5 2.5L.684 26.346c-.338 0-.684-.303-.684-.679 0-3.501 2.94-6.77 5.89-7.01l.183-.012h-.022C4.072 18.54 2.5 16.905 2.5 14.9c0-2.071 1.679-3.75 3.75-3.75 2.071 0 3.75 1.679 3.75 3.75 0 1.956-1.497 3.561-3.407 3.735l-.176.011c2.55.125 5.276 2.7 5.934 5.615l7.809.05c1.054 0 1.924-.816 2-1.851V3.318c0-1.055-.815-1.918-1.85-1.995L5.084 1.316l-.433-.003-.385.007-.137.007-.285.02-.294.032c-1.293.17-2.458.763-2.58 2.757L0 12.823V2.5C0 1.12 1.12 0 2.5 0h18.8z" transform="translate(-171.000000, -291.000000) translate(129.999972, 291.000000) translate(41.000000, 0.850000)"/>
                </g>
            </g>
        </g>
    </g>
</svg>
