<svg xmlns="http://www.w3.org/2000/svg" width="24" height="28" viewBox="0 0 24 28">
    <g fill="none" fill-rule="evenodd">
        <g fill="#C1C6D0">
            <g>
                <g>
                    <g>
                        <path d="M21.3 0c1.38 0 2.5 1.12 2.5 2.5v21.353c0 1.381-1.12 2.517-2.5 2.517L.63 26.368c-.312 0-.63-.279-.63-.625 0-3.145 2.578-6.085 5.226-6.429-1.729-.238-3.058-1.72-3.058-3.514 0-1.96 1.59-3.55 3.55-3.55 1.96 0 3.55 1.59 3.55 3.55 0 1.79-1.325 3.27-3.047 3.515 2.188.285 4.445 2.456 5.094 4.938l9.045.058c1.054 0 1.724-.816 1.8-1.851V3.318c0-1.055-.815-1.918-1.85-1.995l-.15-.005-15.076-.002-.433-.003-.385.007-.137.007-.285.02-.294.032c-1.293.17-2.458.763-2.58 2.757L0 12.823V2.5C0 1.12 1.12 0 2.5 0h18.8z" transform="translate(-130.000000, -291.000000) translate(129.999972, 291.000000) translate(0.000000, 0.850000)"/>
                    </g>
                    <path fill-rule="nonzero" d="M14.39 14.15l.456-3.111h1.568l-.441 3.111h1.584l.44-3.111h1.42V9.624H18.21l.277-1.948h1.42V6.26H18.7l.441-3.111h-1.583l-.441 3.111h-1.584l.457-3.111h-1.584l-.457 3.111h-1.55v1.415h1.354l-.293 1.948h-1.551v1.415h1.355l-.458 3.111h1.584zm2.22-4.583h-1.702l.315-1.834h1.685l-.299 1.834z" transform="translate(-130.000000, -291.000000) translate(129.999972, 291.000000) translate(0.000000, 0.850000)"/>
                </g>
            </g>
        </g>
    </g>
</svg>
