<svg width="16" height="15" viewBox="0 0 16 15" xmlns="http://www.w3.org/2000/svg">
    <g fill="none" fill-rule="evenodd">
        <path d="M3.03 0a2.941 2.941 0 0 1 2.94 2.941v2.574a5.32 5.32 0 0 0-1.35 1.543H.35v1.324h3.728a5.303 5.303 0 0 0 1.344 5.027A2.941 2.941 0 0 1 .088 11.7V2.941A2.941 2.941 0 0 1 3.03 0z" fill="#525C73"/>
        <path d="M10.528 4.412a5.294 5.294 0 1 1 .001 10.587 5.294 5.294 0 0 1 0-10.587zM9.66 5.968c.132-.112.33-.168.597-.168.267 0 .466.056.596.168l.297 3.219 3.766 2.393c-.044.171-.12.335-.23.49-.11.154-.25.297-.42.428l-4.839-2.079.233-4.451z" fill="#CA0000"/>
    </g>
</svg>
