<svg width="18" height="16" viewBox="0 0 18 16" xmlns="http://www.w3.org/2000/svg">
    <g fill="none" fill-rule="evenodd">
        <path d="M4.762.5c.01 0 .018.01.018.02 0 .971.857 2.148 1.848 3.511.468.643.957 1.315 1.396 2.017a6.331 6.331 0 0 0-1.849 4.48c0 .89.183 1.737.513 2.506a3.461 3.461 0 0 1-2.357.895c-1.328 0-2.35-.487-3.119-1.512.713 1.38 1.958 2.354 3.543 2.354.931 0 1.742-.33 2.38-.884.161.26.342.508.54.742a4.523 4.523 0 0 1-2.911 1.07H4.74C2.127 15.7 0 13.434 0 10.648v-.321c0-.069.002-.137.004-.204 0-.032.004-.064.005-.096l.006-.1.012-.135c.002-.018.003-.035.006-.052.223-2.111 1.606-4.014 2.84-5.708C3.864 2.668 4.72 1.491 4.72.52c0-.01.009-.02.02-.02h.02zM4.75 3.002c-.795 1.2-2.089 2.844-2.089 2.844A27.01 27.01 0 0 0 4.75 3.935c.62 1.068 2.158 2.44 2.4 2.653l.032.028C5.874 5.009 4.898 3.27 4.765 3.03l-.015-.028z" fill="#DF0000"/>
        <path d="M12.502 5a5.502 5.502 0 1 1 0 11.004 5.502 5.502 0 0 1 0-11.004zm-.072 8.002c-.21 0-.388.07-.532.212a.701.701 0 0 0-.217.522c0 .233.075.414.224.544.15.13.324.194.525.194a.748.748 0 0 0 .512-.197c.148-.13.222-.312.222-.541a.71.71 0 0 0-.212-.522.71.71 0 0 0-.522-.212zm.118-5.985c-.512 0-.96.106-1.345.316-.384.21-.676.475-.876.795-.2.32-.3.636-.3.948 0 .151.062.292.189.421.126.13.281.195.465.195.312 0 .524-.186.636-.557.118-.354.262-.623.433-.805.17-.182.437-.273.798-.273.309 0 .56.09.756.27a.87.87 0 0 1 .293.665c0 .135-.032.26-.096.375-.064.115-.143.219-.236.313-.094.093-.246.232-.456.416-.24.21-.43.391-.571.544a1.82 1.82 0 0 0-.34.532c-.086.202-.128.44-.128.717 0 .22.058.385.175.497a.6.6 0 0 0 .43.168c.329 0 .524-.171.587-.513.036-.16.063-.273.08-.337a1.04 1.04 0 0 1 .077-.192 1.09 1.09 0 0 1 .15-.212c.068-.077.157-.167.269-.268.404-.362.684-.619.84-.771.156-.153.29-.334.404-.544.113-.21.17-.455.17-.734 0-.355-.1-.683-.298-.985a2.045 2.045 0 0 0-.845-.717c-.365-.176-.785-.264-1.261-.264z" fill="#DA9D29"/>
    </g>
</svg>
