<svg width="16" height="14" viewBox="0 0 16 14" xmlns="http://www.w3.org/2000/svg" xmlns:xlink="http://www.w3.org/1999/xlink">
    <defs>
        <filter color-interpolation-filters="auto" id="c">
            <feColorMatrix in="SourceGraphic" values="0 0 0 0 0.474510 0 0 0 0 0.505882 0 0 0 0 0.537255 0 0 0 1.000000 0"/>
        </filter>
        <path id="a" d="M0 0h16v14H0z"/>
    </defs>
    <g fill="none" fill-rule="evenodd">
        <mask id="b" fill="#fff">
            <use xlink:href="#a"/>
        </mask>
        <g mask="url(#b)">
            <g filter="url(#c)" transform="translate(.6 .62)">
                <path d="M4.147 7.305v1.1H1.65v-1.1h2.497zm2.268-2.527v1.1H1.65v-1.1h4.765zM8.836 2.25v1.1H1.65v-1.1h7.186z" fill="#004DFF" fill-rule="nonzero"/>
            </g>
            <path d="M11.043 3.97V1.72a1.097 1.097 0 0 0-1.1-1.1H1.7a1.1 1.1 0 0 0-1.1 1.1v10.3a1.1 1.1 0 0 0 1.1 1.1h3.163" stroke="#798189" stroke-width="1.2" stroke-linecap="round"/>
            <path d="m15.836 9.625.101.193.012.006-.005.008.005.008-.012.005-.113.22c-1.154 2.127-3.085 3.448-5.212 3.448a5.137 5.137 0 0 1-1.495-.222l.912-1.041c.192.028.387.042.583.042 1.565 0 3.02-.916 3.987-2.453a5.842 5.842 0 0 0-1.23-1.4l.788-.9a7.27 7.27 0 0 1 1.679 2.086zm-5.2-3.425c.63 0 1.243.116 1.823.334l-.89.997a4.02 4.02 0 0 0-.932-.11c-1.565 0-3.021.916-3.988 2.454a5.734 5.734 0 0 0 1.438 1.56l-.799.898c-.737-.572-1.377-1.334-1.875-2.245l-.102-.194-.011-.005.004-.009-.004-.006.011-.007.114-.218C6.578 7.521 8.509 6.2 10.637 6.2zM12.8 9.7a2 2 0 0 1-2.273 1.982L12.73 9.17c.046.169.071.347.071.53zm-2-2c.19 0 .375.027.55.077l-2.398 2.689A2 2 0 0 1 10.8 7.7z" fill="#798189"/>
            <path d="m14.559 5.187.253.184c.204.148.249.433.1.637l-.026.034-6.834 7.762a.456.456 0 0 1-.611.068l-.253-.184a.456.456 0 0 1-.1-.637l.026-.034 6.834-7.762a.456.456 0 0 1 .611-.068z" fill="#E70040"/>
        </g>
    </g>
</svg>
