<svg xmlns="http://www.w3.org/2000/svg" width="22" height="22" viewBox="0 0 22 22">
    <g fill="none" fill-rule="evenodd">
        <g fill="#1782D2">
            <g>
                <path d="M237 0c6.075 0 11 4.925 11 11s-4.925 11-11 11-11-4.925-11-11 4.925-11 11-11zm8.41 6.031c-.264-.31-5.912 1.666-9.408 6.97C233.724 10.154 230 8.783 230 9.66c0 .39.152.39 1.283 1.55 1.562 1.604 3.701 5.063 4.155 5.462.555.489 1.032.385 1.4 0 1.026-1.07 2.56-5.05 7.322-9.193.7-.609 1.396-1.275 1.25-1.448z" transform="translate(-720.000000, -1024.000000) translate(494.000000, 1024.000000)"/>
            </g>
        </g>
    </g>
</svg>
