<svg xmlns="http://www.w3.org/2000/svg" width="19" height="19" viewBox="0 0 19 19">
    <g fill="none" fill-rule="evenodd">
        <g>
            <g>
                <g>
                    <path fill="#525C73" d="M9.5 0c1.735 0 3.36.465 4.76 1.277.251.145 1.226.695.822 1.244-.404.55-1.346-.16-1.471-.233C12.399 1.596 10.996 1.2 9.5 1.2c-4.584 0-8.3 3.716-8.3 8.3 0 4.584 3.716 8.3 8.3 8.3 4.584 0 9.5-4.008 9.5-8.592V9.5c0 5.247-4.253 9.5-9.5 9.5S0 14.747 0 9.5 4.253 0 9.5 0z" transform="translate(-868.000000, -1024.000000) translate(494.000000, 1024.000000) translate(374.000000, 0.000000)"/>
                    <path fill="#02AA6D" d="M18.41 4.53c.138.161-.513.784-1.168 1.353-4.453 3.874-5.888 7.597-6.847 8.598-.344.359-.79.456-1.31 0-.424-.374-2.424-3.608-3.885-5.109C4.142 8.287 4 8.287 4 7.922c0-.82 3.483.463 5.613 3.125 3.269-4.96 8.551-6.809 8.798-6.518z" transform="translate(-868.000000, -1024.000000) translate(494.000000, 1024.000000) translate(374.000000, 0.000000)"/>
                </g>
            </g>
        </g>
    </g>
</svg>
