<svg xmlns="http://www.w3.org/2000/svg" width="18" height="15" viewBox="0 0 18 15">
    <path fill="#FFF" fill-rule="evenodd" d="M8.955 6.555c2.017 0 3.652 1.691 3.652 3.778 0 2.086-1.635 3.777-3.652 3.777-2.017 0-3.652-1.69-3.652-3.777s1.635-3.778 3.652-3.778zm6.848.945c.757 0 1.37.634 1.37 1.416 0 .782-.613 1.417-1.37 1.417-.756 0-1.37-.635-1.37-1.417s.614-1.416 1.37-1.416zM2.107 6.555c.757 0 1.37.634 1.37 1.417 0 .782-.613 1.416-1.37 1.416-.756 0-1.369-.634-1.369-1.416 0-.783.613-1.417 1.37-1.417zm10.044-3.777c.756 0 1.37.634 1.37 1.416 0 .782-.614 1.417-1.37 1.417-.756 0-1.37-.635-1.37-1.417s.614-1.416 1.37-1.416zM6.216.888c1.008 0 1.826.846 1.826 1.89 0 1.042-.818 1.888-1.826 1.888S4.39 3.82 4.39 2.778c0-1.044.818-1.89 1.826-1.89z"/>
</svg>
