<svg width="26" height="26" viewBox="0 0 26 26" xmlns="http://www.w3.org/2000/svg">
    <g fill="none" fill-rule="evenodd">
        <rect fill="#7887A9" width="26" height="26" rx="13"/>
        <path d="M15.55 3.5a2.35 2.35 0 0 1 2.29 2.881A7.607 7.607 0 0 1 20.413 10a3.001 3.001 0 1 1-.498 5.962 7.61 7.61 0 0 1-1.485 1.953 2.5 2.5 0 0 1-4.46 2.047 7.602 7.602 0 0 1-2.924-.27 3 3 0 0 1-4.59-3.782 7.567 7.567 0 0 1-.81-4.351A3 3 0 0 1 8.55 6.389a7.56 7.56 0 0 1 4.896-1.585A2.35 2.35 0 0 1 15.55 3.5zM16 18a.5.5 0 1 0 0 1 .5.5 0 0 0 0-1zm-6.4-1.2a1.1 1.1 0 1 0 0 2.2 1.1 1.1 0 0 0 0-2.2zm2.8-4.4a1.5 1.5 0 1 0 0 3 1.5 1.5 0 0 0 0-3zm7.536-.4a1.5 1.5 0 1 0 0 3 1.5 1.5 0 0 0 0-3zM7.8 8.2a1.9 1.9 0 1 0 0 3.8 1.9 1.9 0 0 0 0-3.8zm8.4 1.3a.8.8 0 1 0 0 1.6.8.8 0 0 0 0-1.6zm-.4-4a1 1 0 1 0 0 2 1 1 0 0 0 0-2z" fill="#FFF"/>
    </g>
</svg>
