<svg xmlns="http://www.w3.org/2000/svg" width="12" height="12" viewBox="0 0 12 12">
    <g fill="none" fill-rule="evenodd">
        <g fill="#1A91EB">
            <path d="M197.167 784.008v4.22c0 .584-.05 1.123-.771 1.123-.586 0-.698-.41-.72-.833l-.004-.195v-2.672l-1.91 1.96c-.293.296-.767.296-1.06 0-.293-.294-.293-.772 0-1.067l1.953-1.995h-2.47l-.257-.006c-.536-.025-.936-.141-.936-.689 0-.64.244-.815 1.124-.845l.338-.005h3.832c.543-.056.937.457.881 1.004zm-11.162 10.1v-4.429c.056-.544.355-.887.879-.887s.749.269.749.887v2.595l1.962-2.092c.76-.733 1.077-.676 1.381-.405l.108.103c.343.35.185.795-.394 1.391l-1.928 2.022h2.322c.541-.057 1.098.128 1.098.816 0 .687-.557.827-1.098.883l-4.199.003c-.541.056-.935-.34-.88-.886z" transform="translate(-186 -783)"/>
        </g>
    </g>
</svg>
