<svg width="19" height="15" viewBox="0 0 19 15" xmlns="http://www.w3.org/2000/svg">
    <g fill="none" fill-rule="evenodd">
        <path d="M14.058 12.838c-2.719 2.163-6.57 2.22-9.265.138-.406-.314-.493-.618-.26-.909.21-.262.499-.274.86-.051l.11.074c2.13 1.536 4.44 1.775 6.8.541 2.43-1.269 3.552-3.354 3.376-6.015a5.6 5.6 0 0 0-.03-.32c.357-.39.678-.737.96-1.04.744 2.713-.218 5.726-2.55 7.582zM13.218.967l-.88.805a6.31 6.31 0 0 0-3.18-.635c-3.36.21-5.989 3.003-5.989 6.235 0 .286.022.501.046.652l.028.149.032.117.4-.282.207-.15.2-.139c.335-.222.576-.33.852-.091.212.184.066.412-.171.64l-.15.137-.08.068c-.453.382-.689.643-.87.889l-.127.183-.122.186c-.216.332-.488.44-.797.219L2.08 9.56l-.477-.349-.224-.16-.51-.347C.603 8.512.432 8.33.526 8.096c.114-.285.464-.227.791-.092l.22.099.182.086.162.085.24.133-.057-.313-.019-.135c-.274-3.493 2-6.68 5.48-7.676a7.443 7.443 0 0 1 5.693.684z" fill="#1A91EB"/>
        <path d="m7.884 8.295 2.312 2.092-2.558.85c-.34.115-.438.08-.402-.168l.033-.156.615-2.618zM16.186.811c.366.319.73.642 1.076.985.299.296.308.702.033 1.028l-6.6 7.033-2.253-2.062 6.47-6.919a.928.928 0 0 1 1.274-.065z" fill="#CB2AFF"/>
    </g>
</svg>
