<svg width="18" height="16" viewBox="0 0 18 16" xmlns="http://www.w3.org/2000/svg">
    <g fill="none" fill-rule="evenodd">
        <path d="M4.762 0c.01 0 .018.01.018.02 0 .971.857 2.148 1.848 3.511.468.643.957 1.315 1.396 2.017a6.331 6.331 0 0 0-1.849 4.48c0 .89.183 1.737.513 2.506a3.461 3.461 0 0 1-2.357.895c-1.328 0-2.35-.487-3.119-1.512.713 1.38 1.958 2.354 3.543 2.354.931 0 1.742-.33 2.38-.884.161.26.342.508.54.742a4.523 4.523 0 0 1-2.911 1.07H4.74C2.127 15.2 0 12.934 0 10.148v-.321c0-.069.002-.137.004-.204 0-.032.004-.064.005-.096l.006-.1.012-.135c.002-.018.003-.035.006-.052.223-2.111 1.606-4.014 2.84-5.708C3.864 2.168 4.72.991 4.72.02c0-.01.009-.02.02-.02h.02zM4.75 2.502c-.795 1.2-2.089 2.844-2.089 2.844A27.01 27.01 0 0 0 4.75 3.435c.62 1.068 2.158 2.44 2.4 2.653l.032.028C5.874 4.509 4.898 2.77 4.765 2.53l-.015-.028z" fill="#DF0000"/>
        <path d="M12.5 15.5a5.5 5.5 0 1 0 0-11 5.5 5.5 0 0 0 0 11zm.05-3.2a1.05 1.05 0 1 0 0 2.1 1.05 1.05 0 0 0 0-2.1zm0-6.3c-.538 0-1.14.24-1.14.94s.41 2.716.49 3.16c.08.444.07 1.154.65 1.154.538 0 .574-.71.65-1.154.333-1.636.5-2.688.5-3.157 0-.703-.57-.943-1.15-.943z" fill="#AC0000"/>
    </g>
</svg>
