<svg width="22" height="14" viewBox="0 0 22 14" xmlns="http://www.w3.org/2000/svg">
    <g fill="#0FC885" fill-rule="evenodd">
        <path d="M14 0a1 1 0 0 1 .999.963 7.028 7.028 0 0 0-4 1.749V2h-7v5h4.698a7.12 7.12 0 0 0-.068.988c0 1.869.726 3.567 1.911 4.83a4.484 4.484 0 0 1-2.828 1.177L7.5 14A4.5 4.5 0 0 1 3 9.5L2.999 2H1a1 1 0 0 1 0-2h13z"/>
        <path d="M16 2a6 6 0 1 1 0 12 6 6 0 0 1 0-12zm3.718 4.228a.973.973 0 0 0-1.267 0L15.162 9.09l-1.646-1.438a.973.973 0 0 0-1.267 0 .74.74 0 0 0 0 1.131l2.279 1.992c.159.142.362.22.57.232h.125l.124-.015a.93.93 0 0 0 .448-.217l3.923-3.417a.74.74 0 0 0 0-1.131z"/>
    </g>
</svg>
