<svg xmlns="http://www.w3.org/2000/svg" width="19" height="15" viewBox="0 0 19 15">
    <g fill="none" fill-rule="evenodd">
        <g>
            <g>
                <g>
                    <path fill="#4FB9FF" d="M13.75 7.79c3.451 0 4.708 3.758 4.708 4.97 0 1.21-.134 1.31-.543 1.31h-8.31c-.329 0-.542-.099-.542-1.31 0-1.212 1.234-4.97 4.686-4.97zm.008-5.855c1.442 0 2.611 1.169 2.611 2.61 0 1.443-1.169 2.612-2.61 2.612-1.443 0-2.612-1.169-2.612-2.611 0-1.442 1.17-2.611 2.611-2.611z" transform="translate(-1228 -309) translate(953 278) translate(275 31)"/>
                    <path fill="#353E53" d="M6.87 6.046c3.997 0 5.452 5.074 5.452 6.71 0 1.636-.155 1.77-.628 1.77h-9.62c-.382 0-.629-.133-.629-1.77 0-1.636 1.428-6.71 5.425-6.71zM6.397 0C8.067 0 9.42 1.353 9.42 3.023c0 1.67-1.353 3.023-3.023 3.023-1.67 0-3.023-1.353-3.023-3.023C3.374 1.353 4.727 0 6.397 0z" transform="translate(-1228 -309) translate(953 278) translate(275 31)"/>
                    <path fill="#46B5FF" d="M5.425 6.78c3.997 0 5.452 4.35 5.452 5.752 0 1.403-.155 1.518-.628 1.518H.628c-.381 0-.628-.114-.628-1.517 0-1.403 1.428-5.754 5.425-5.754zM5.435 0C7.106 0 8.46 1.353 8.46 3.023c0 1.67-1.354 3.023-3.023 3.023-1.67 0-3.023-1.353-3.023-3.023C2.413 1.353 3.766 0 5.436 0z" transform="translate(-1228 -309) translate(953 278) translate(275 31)"/>
                </g>
            </g>
        </g>
    </g>
</svg>
