<svg xmlns="http://www.w3.org/2000/svg" width="17" height="14" viewBox="0 0 17 14">
    <g fill="none" fill-rule="evenodd">
        <g>
            <g>
                <g>
                    <path fill="#11A0FF" d="M12.436 7.046c3.123 0 4.26 3.399 4.26 4.495s-.122 1.185-.492 1.185H8.688c-.298 0-.49-.089-.49-1.185s1.116-4.495 4.238-4.495zm.008-5.296c1.305 0 2.362 1.057 2.362 2.362 0 1.304-1.057 2.361-2.362 2.361-1.304 0-2.362-1.057-2.362-2.361 0-1.305 1.058-2.362 2.362-2.362z" transform="translate(-1189 -311) translate(953 278) translate(236 33)"/>
                    <path fill="#353E53" d="M6.214 5.469c3.615 0 4.931 4.589 4.931 6.069 0 1.48-.14 1.6-.568 1.6H1.875c-.345 0-.568-.12-.568-1.6s1.292-6.07 4.907-6.07zM5.786 0C7.296 0 8.52 1.224 8.52 2.734S7.296 5.47 5.786 5.47 3.052 4.245 3.052 2.734C3.052 1.224 4.276 0 5.786 0z" transform="translate(-1189 -311) translate(953 278) translate(236 33)"/>
                    <path fill="#11A0FF" d="M4.907 6.132c3.615 0 4.931 3.935 4.931 5.203 0 1.27-.14 1.373-.568 1.373H.568c-.345 0-.568-.103-.568-1.372 0-1.27 1.292-5.204 4.907-5.204zM4.917 0C6.426 0 7.65 1.224 7.65 2.734S6.427 5.47 4.916 5.47c-1.51 0-2.734-1.224-2.734-2.735C2.182 1.224 3.406 0 4.916 0z" transform="translate(-1189 -311) translate(953 278) translate(236 33)"/>
                </g>
            </g>
        </g>
    </g>
</svg>
