<svg xmlns="http://www.w3.org/2000/svg" width="12" height="15" viewBox="0 0 12 15">
    <g fill="none" fill-rule="evenodd" stroke="#BB0505">
        <path fill="#BB0505" stroke-width=".2" d="M2.481 10.339l.134.112.977-1.178-.092-.078-1.019 1.144M8.4 8.05c.429.187.847.449 1.42.247-.465-.392-.954-.26-1.42-.247M5.62 4.809l.084-.009c.274-.5.227-1.331-.164-1.567l.08 1.576M4.73 8.338l1.967-.541-1.073-1.28-.894 1.82M6.165 3.82c-.07.509-.15 1.017-.203 1.528-.018.175-.008.376.06.534.295.688.708 1.292 1.368 1.686.095.057.228.07.344.07.567.005 1.134-.027 1.699.003.388.02.556.213.566.51.016.478-.167.677-.647.655-.65-.03-1.24-.275-1.823-.541-.135-.062-.312-.105-.451-.074-.805.176-1.606.369-2.403.577-.126.032-.247.153-.332.263-.377.49-.714 1.014-1.117 1.481-.3.348-.62.38-.955.217-.261-.126-.354-.308-.188-.556.193-.289.443-.547.7-.785.179-.166.398-.306.623-.401.385-.162.625-.435.8-.801.341-.72.708-1.428 1.048-2.149.057-.121.055-.286.037-.426-.085-.656-.222-1.308-.268-1.967-.032-.478.177-.655.576-.642.34.01.535.254.546.682.002.044 0 .089 0 .133l.02.003"/>
        <rect width="11" height="14" x=".5" y=".5" rx="1"/>
    </g>
</svg>
