<svg width="16" height="17" viewBox="0 0 16 17" xmlns="http://www.w3.org/2000/svg">
    <g fill="none" fill-rule="evenodd">
        <path d="M4 11.5c0 .112.003.223.01.334H2.228v-1.297H4.08c-.052.313-.08.635-.08.963zm.788-2.907h-2.56V7.296h3.6a5.775 5.775 0 0 0-1.04 1.297zm5.218-4.537v1.296H2.228V4.056h7.778z" fill="#465877" fill-rule="nonzero"/>
        <g transform="translate(5.5 6.5)">
            <circle fill="#CA0000" cx="5" cy="5" r="5"/>
            <g fill="#FFF">
                <path d="M4.21 2.093c.118-.1.298-.151.538-.151.24 0 .418.05.536.15L5.653 6.1H4l.21-4.007z"/>
                <path d="M8.941 7.145c-.04.154-.108.301-.207.44-.099.14-.225.268-.378.386L4 6.1l1.327-1.251 3.614 2.296z"/>
            </g>
        </g>
        <path d="m11.817 5-.007-2.195a1.339 1.339 0 0 0-1.342-1.342H1.842C1.101 1.463.5 2.064.5 2.805V14.54c0 .741.601 1.342 1.342 1.342H5.5" stroke="#465877" stroke-linecap="round"/>
    </g>
</svg>
