<svg width="18" height="15" viewBox="0 0 18 15" xmlns="http://www.w3.org/2000/svg">
    <g fill="none" fill-rule="evenodd">
        <path d="M13.558 13.338c-2.719 2.163-6.57 2.22-9.265.138-.406-.314-.493-.618-.26-.909.21-.262.499-.274.86-.051l.11.074c2.13 1.536 4.44 1.775 6.8.541 2.43-1.269 3.552-3.354 3.376-6.015a5.578 5.578 0 0 0-.105-.767c.192-.228.356-.4.492-.518.134-.116.287-.233.457-.35.894 2.782-.053 5.938-2.465 7.857zm.45-10.949-1.119.536a6.305 6.305 0 0 0-4.232-1.288C5.298 1.847 2.67 4.64 2.67 7.872c0 .286.022.501.046.652l.028.149.032.117.4-.282.207-.15.2-.139c.335-.222.576-.33.852-.091.212.184.066.412-.171.64l-.15.137-.08.068c-.453.382-.689.643-.87.889l-.127.183-.122.186c-.216.332-.488.44-.797.219l-.536-.389-.477-.349-.224-.16-.51-.347c-.267-.193-.438-.375-.344-.609.114-.285.464-.227.791-.092l.22.099.182.086.162.085.24.133-.057-.313-.019-.135c-.274-3.493 2-6.68 5.48-7.676a7.456 7.456 0 0 1 6.983 1.606z" fill="#525C73"/>
        <path d="M17.46 2.9c.079.104-1.505 1.001-3.24 2.39-2.118 1.695-4.106 4.858-4.655 5.506-.197.233-.452.296-.75 0-.242-.241-1.71-2.82-2.546-3.792C5.664 6.3 4.918 5.526 4.918 5.29c0-.53 3.596.8 4.375 2.936 1.5-2.67 3.91-4.049 4.927-4.48 1.543-.653 3.134-.988 3.24-.846z" fill="#A92BFF"/>
    </g>
</svg>
