<?xml version="1.0" encoding="UTF-8"?>
<svg width="8px" height="8px" viewBox="0 0 8 8" version="1.1" xmlns="http://www.w3.org/2000/svg" xmlns:xlink="http://www.w3.org/1999/xlink">
    <title>04E2B5B2-BD15-449D-AB5B-1EAD266C3529</title>
    <g id="Patient-sheet" stroke="none" stroke-width="1" fill="none" fill-rule="evenodd">
        <g id="15.2-Icons" transform="translate(-878.000000, -1030.000000)" fill="#525C73">
            <g id="Group-24" transform="translate(384.000000, 1024.000000)">
                <g id="add-sentence" transform="translate(491.000000, 3.000000)">
                    <path d="M6.90983007,3.14948041 C7.30867059,3.14948041 7.55327422,3.41970304 7.64364094,3.96014829 L7.643467,6.20248041 L9.88638595,6.20289329 C10.4017733,6.30380249 10.659467,6.55299638 10.659467,6.95047496 C10.659467,7.34795354 10.4017733,7.59714743 9.88638595,7.69805663 L7.643467,7.69748041 L7.64364094,9.94080164 C7.54452333,10.3996338 7.29532944,10.6290499 6.89605927,10.6290499 C6.4967891,10.6290499 6.24759521,10.3996338 6.1484776,9.94080164 L6.148467,7.69748041 L3.9057326,7.69805663 C3.4082222,7.60159345 3.159467,7.34188519 3.159467,6.91893186 C3.159467,6.49597853 3.4082222,6.25729901 3.9057326,6.20289329 L6.148467,6.20248041 L6.1484776,3.96014829 C6.2572054,3.41970304 6.51098955,3.14948041 6.90983007,3.14948041 Z" id="Plus-Icon"></path>
                </g>
            </g>
        </g>
    </g>
</svg>