<svg xmlns="http://www.w3.org/2000/svg" width="21" height="17" viewBox="0 0 21 17">
    <g fill="none" fill-rule="evenodd">
        <g>
            <g>
                <path fill="#7887A9" d="M5.486 6.111C9.528 6.111 11 10.5 11 11.914s-.157 1.53-.636 1.53H.635c-.386 0-.635-.114-.635-1.53C0 10.5 1.444 6.111 5.486 6.111zM5.5 0c1.688 0 3.056 1.368 3.056 3.056 0 1.687-1.368 3.055-3.056 3.055S2.444 4.743 2.444 3.056C2.444 1.368 3.812 0 5.5 0z" transform="translate(-906 -714) translate(906 714)"/>
                <g>
                    <path fill="#FFF" d="M8.206 2.28l2.896 2.897-7.411 7.416-2.727.287c-.353.085-.557-.108-.479-.457L.79 9.696 8.206 2.28zM12.03.283c.382.377.76.758 1.118 1.159.31.347.296.8-.022 1.147l-.382.405-.776.797-.015.007L9.586 1.35l.443-.45c.202-.206.399-.417.605-.616.386-.373 1.008-.382 1.395 0z" transform="translate(-906 -714) translate(906 714) translate(5.5 4)"/>
                    <path fill="#7887A9" d="M3.16 9.15l2.425 2.39s-2.072.612-2.802.835c-.44.135-.506.05-.387-.37.064-.227.176-.642.295-1.086l.134-.503.288-1.086.035-.132.012-.048zM12.723.927c.385.365.767.735 1.128 1.124.312.338.307.784-.003 1.133l-7.411 7.48-2.361-2.355L11.342.95c.376-.375.992-.394 1.381-.023z" transform="translate(-906 -714) translate(906 714) translate(5.5 4)"/>
                </g>
            </g>
        </g>
    </g>
</svg>
