<svg xmlns="http://www.w3.org/2000/svg" width="11" height="16" viewBox="0 0 11 16">
    <path fill="#DF0000" fill-rule="evenodd" d="M5.824 0c.01 0 .02.01.02.02 0 1.023.901 2.262 1.945 3.697 1.417 1.947 3.023 4.154 3.023 6.626v.337c0 2.933-2.237 5.32-4.986 5.32h-.025c-2.751 0-4.99-2.387-4.99-5.32v-.337c0-.072.002-.144.005-.215 0-.034.004-.067.005-.1l.006-.107.013-.142.006-.054C1.08 7.502 2.537 5.5 3.836 3.717 4.88 2.282 5.78 1.043 5.78.02c0-.01.01-.02.02-.02h.023zM9.27 7.59c.346.671.543 1.44.543 2.26 0 2.593-1.976 4.696-4.414 4.696-1.398 0-2.644-.692-3.453-1.771.75 1.453 2.203 2.437 3.87 2.437 2.438 0 4.415-2.102 4.415-4.696 0-1.106-.36-2.123-.961-2.925zM5.82 1.689c-.78 1.163-1.608 2.2-1.608 2.2C5.38 2.707 5.821 2.055 5.821 2.055c.71 1.222 2.027 2.522 2.027 2.522C6.365 2.755 5.82 1.688 5.82 1.688z"/>
</svg>
