<svg width="15" height="15" viewBox="0 0 15 15" xmlns="http://www.w3.org/2000/svg">
    <g fill="#1a91eb" fill-rule="evenodd">
        <path d="M10.5.5v3.904a4.545 4.545 0 0 0-.873-.222l-.002-.979H.875v9.913h3.557c.282.371.586.667.915.9H.477c-.263 0-.477-.193-.477-.433V2.636c0-.24.214-.442.477-.442h2.156L3.978.5H10.5zM3.337 10.863H1.75V9.51h1.462c-.02.461.02.917.124 1.352zm1.762-5.407H2.625v1.802h1.157a6.086 6.086 0 0 0-.343.901H1.75V4.555h4.698c-.501.23-.953.537-1.349.901z"/>
        <path d="M9.97 4.924c1.57.26 2.541.892 3.217 1.657l1.448-1.397v4.021h-4.192l1.441-1.382c-.444-.553-2.061-1.299-3.55-.854-1.489.444-2.3 1.706-2.011 3.339.257 1.45 1.092 2.475 2.625 2.752 1.583.287 2.771-.184 3.541-.811.77-.628 1.424-1.476 1.649-2.143.074 2.726-2.183 4.393-4.353 4.394-2.538.001-4.201-1.376-4.947-3.105-.278-.646-.762-2.101.173-3.975.998-2.002 3.388-2.755 4.959-2.496z" fill-rule="nonzero"/>
    </g>
</svg>
