<svg width="16" height="15" viewBox="0 0 16 15" xmlns="http://www.w3.org/2000/svg" xmlns:xlink="http://www.w3.org/1999/xlink">
    <defs>
        <filter color-interpolation-filters="auto" id="b">
            <feColorMatrix in="SourceGraphic" values="0 0 0 0 0.101961 0 0 0 0 0.568627 0 0 0 0 0.921569 0 0 0 1.000000 0"/>
        </filter>
        <filter color-interpolation-filters="auto" id="d">
            <feColorMatrix in="SourceGraphic" values="0 0 0 0 0.847000 0 0 0 0 0.847000 0 0 0 0 0.847000 0 0 0 1.000000 0"/>
        </filter>
        <path id="a" d="M0 0h16v14H0z"/>
    </defs>
    <g transform="translate(0 .5)" fill="none" fill-rule="evenodd">
        <mask id="c" fill="#fff">
            <use xlink:href="#a"/>
        </mask>
        <g filter="url(#b)">
            <g mask="url(#c)">
                <path d="m3.179 2.196 3.065 4.16H4.136c-.233 2.46 1.71 5.425 5.011 5.695 3.3.27 5.906-2.807 5.906-5.446 0-.293-.021-.591-.067-.89l-.055-.298a5.006 5.006 0 0 0-.761-1.922l.508-.692c.824 1.085 1.222 2.423 1.31 3.866.236 3.894-2.88 7.307-6.566 7.23-2.835-.06-5.286-1.444-6.729-4.941-.237-.7-.53-1.938-.513-2.602H0l3.179-4.16zM9.147.1c1.623 0 3.115.543 4.288 1.45l-.61.535C11.315.965 9.112.413 6.512.828c-.246.039-.471.035-.665.084A7.052 7.052 0 0 1 9.147.1z" fill="#798189" fill-rule="nonzero"/>
                <path fill="#798189" d="M9.362 8.215 5.808 3.08l3.554 2.513L15.985.1z"/>
                <g filter="url(#d)" transform="translate(0 .1)">
                    <g transform="translate(8.635 1.274)" fill="#798189">
                        <rect width="1" height="1.025" rx=".5"/>
                        <rect y="8.962" width="1" height="1.025" rx=".5"/>
                        <rect x="4.635" y="5.125" width="1" height="1.025" rx=".5"/>
                    </g>
                </g>
            </g>
        </g>
    </g>
</svg>
