<svg xmlns="http://www.w3.org/2000/svg" xmlns:xlink="http://www.w3.org/1999/xlink" width="18" height="8" viewBox="0 0 18 8">
    <defs>
        <path id="prefix__a" d="M0 0L17.999 0 17.999 7.431 0 7.431z"/>
    </defs>
    <g fill="none" fill-rule="evenodd">
        <mask id="prefix__b" fill="#fff">
            <use xlink:href="#prefix__a"/>
        </mask>
        <path fill="#0E75C3" d="M6.028 3.786c.067-1.232-.949-2.324-2.22-2.387-1.235-.06-2.33.926-2.405 2.166-.078 1.292.905 2.388 2.209 2.462 1.265.072 2.345-.93 2.416-2.24m10.624.628v.212c0 .393.005.785 0 1.177-.006.42-.31.73-.701.726-.397-.004-.693-.315-.695-.732-.002-.453 0-.906 0-1.37h-.787c0 .234.004.473-.002.711-.002.111-.005.227-.037.332-.098.325-.416.515-.76.47-.329-.044-.585-.314-.596-.65-.01-.284-.002-.569-.002-.864H7.367c-.262 1.15-.9 2.031-1.954 2.586-.8.42-1.652.519-2.53.319C1.118 6.93-.137 5.279.012 3.38.146 1.663 1.594.179 3.339.017 5.326-.168 6.987 1.17 7.366 3.011H17.226c.415 0 .71.227.764.585.067.433-.24.805-.68.818-.212.006-.424.001-.658.001" mask="url(#prefix__b)"/>
    </g>
</svg>
