<svg xmlns="http://www.w3.org/2000/svg" width="15" height="14" viewBox="0 0 15 14">
    <path fill="#525C73" fill-rule="evenodd" d="M8.558.005c3.174.12 5.885 2.661 6.368 5.97.468 3.213-1.314 6.38-4.253 7.555-2.95 1.18-6.285.08-8.024-2.647-.262-.41-.252-.717.03-.915.28-.197.558-.086.83.312 1.405 2.053 3.329 2.964 5.71 2.535 2.449-.442 4-2.028 4.593-4.533.72-3.04-1.147-6.192-4.087-7-2.953-.813-6.051.96-6.906 3.951-.014.048-.023.097-.055.228.178-.174.292-.296.416-.405.242-.214.5-.23.726.008.225.24.211.518-.01.754-.485.52-.979 1.031-1.478 1.537-.257.261-.533.246-.786-.013-.478-.49-.956-.98-1.424-1.48-.265-.283-.277-.594-.037-.813.26-.236.525-.2.756.048.205.22.393.459.64.75.063-.213.097-.31.12-.41.74-3.3 3.593-5.556 6.87-5.432zM7.502 3c.291.007.47.238.473.649l.004 1.366V6.87h1.134c.122 0 .244-.008.365.002.32.027.537.254.521.564-.018.366-.22.549-.528.554-.646.012-1.292.015-1.938-.002-.365-.01-.528-.232-.53-.68C7 6.093 7 4.878 7.004 3.664c0-.425.193-.671.499-.664z" opacity=".5"/>
</svg>
