<svg xmlns="http://www.w3.org/2000/svg" width="16" height="16" viewBox="0 0 16 16">
    <g fill="none" stroke="#525C73">
        <path d="M7.766 13.754H6.294c-.221 0-.298 0-1.053-1.873l-.583-.238c-1.587.722-1.775.722-1.838.722h-.122l-.103-.089-1.043-1.023c-.159-.159-.214-.214.602-2.064l-.237-.563C0 7.937 0 7.857 0 7.63V6.184c0-.227 0-.298 1.91-1.039l.238-.565c-.864-1.821-.804-1.878-.634-2.039L2.636 1.44l.14-.005c.169 0 .797.23 1.869.684l.58-.237C5.926 0 6.012 0 6.233 0h1.471c.22 0 .298 0 1.053 1.875l.583.236c1.586-.722 1.776-.722 1.84-.722h.12l.104.088L12.446 2.5c.159.16.213.215-.603 2.066l.238.566C14 5.817 14 5.897 14 6.124v1.445c0 .221 0 .3-1.913 1.04l-.236.565c.86 1.814.802 1.87.642 2.033l-1.13 1.11-.14.004c-.17 0-.796-.23-1.866-.684l-.585.236c-.701 1.881-.781 1.881-1.006 1.881z" transform="translate(1 1)"/>
        <path d="M6.879 9.333c-1.355 0-2.458-1.102-2.458-2.457 0-1.353 1.103-2.455 2.458-2.455 1.354 0 2.454 1.102 2.454 2.455 0 1.355-1.1 2.457-2.454 2.457z" transform="translate(1 1)"/>
    </g>
</svg>
