<svg xmlns="http://www.w3.org/2000/svg" width="13" height="14" viewBox="0 0 13 14">
    <path fill="#525C73" fill-rule="evenodd" d="M7.94 0c.692-.019 1.394.692 1.35 1.355-.022.32-.004.64-.004.985h3.232c.279 0 .485.206.482.472-.003.26-.206.456-.48.46h-.912V5.51c0 2.2.001 4.4-.001 6.6-.002 1.025-.858 1.888-1.875 1.889-2.161.003-4.323.002-6.484 0-.99 0-1.853-.876-1.854-1.881V3.273H.591c-.077-.001-.156.002-.23-.014-.234-.052-.386-.275-.358-.511.028-.233.226-.407.472-.408h3.231c.004-.048.009-.09.009-.131V1.32c0-.69.62-1.312 1.31-1.313.971 0 1.943.02 2.914-.007zm2.739 3.278H2.322v6.28c0 .865-.001 1.73.001 2.594.002.463.213.773.6.871.12.03.247.041.372.041 1.392.003 2.785.002 4.178.002.768 0 1.537.003 2.306-.001.514-.003.814-.26.89-.753.01-.072.01-.146.01-.218V3.278zM8.988 5.425C9 5.485 9 5.548 9 5.61v5.8c0 .353-.21.595-.508.591-.289-.004-.492-.248-.492-.591V8.5c0-.987-.001-1.973.001-2.96.001-.282.195-.51.444-.538.254-.028.488.151.543.422zm-4.272-.367c.203.108.285.294.284.535-.002.969 0 1.938 0 2.907h-.001l-.001 2.94c0 .299-.185.526-.443.557-.248.03-.474-.14-.538-.405-.013-.053-.016-.11-.016-.166V5.58c0-.433.372-.704.715-.521zm2 0c.203.108.285.295.284.535-.002.97 0 1.938 0 2.907h-.001l-.001 2.94c0 .3-.186.526-.443.557-.248.029-.475-.14-.538-.405-.013-.054-.016-.11-.016-.166V5.578c0-.433.372-.703.715-.52zM4.963.941c-.222 0-.317.098-.318.323-.003.33-.002.66 0 .99 0 .027.008.054.014.083H8.34c.009-.021.015-.03.015-.039.001-.344.003-.69.002-1.034-.002-.225-.095-.322-.319-.322C7.013.94 5.988.94 4.963.942z" opacity=".5"/>
</svg>
