<svg xmlns="http://www.w3.org/2000/svg" width="16" height="16" viewBox="0 0 16 16">
    <path fill="#FFF" d="M8.776.501c.452.023.623.208 1.13 1.42l.233.569.188.077.212-.095c.883-.392 1.315-.548 1.567-.578l.052-.004.324-.001.27.23 1.05 1.028c.355.36.361.6-.163 1.838l-.252.584.069.165.421.154c1.329.488 1.577.662 1.618 1.123l.004.065v1.566c-.024.457-.21.627-1.447 1.125l-.586.23-.068.164c.762 1.617.853 1.937.529 2.313l-.064.07-1.29 1.267-.35.01c-.205 0-.599-.126-1.28-.4l-.591-.244-.189.077-.158.418c-.507 1.32-.684 1.557-1.15 1.58l-.065.002H7.294l-.09-.002c-.054-.003-.098-.01-.158-.028-.342-.1-.51-.327-.95-1.377l-.24-.584-.188-.076-.21.095c-.884.393-1.315.55-1.566.579l-.052.004-.327.001-.268-.233-1.047-1.027c-.358-.358-.364-.6.16-1.837l.251-.584-.069-.164-.77-.285C.75 9.342.542 9.16.505 8.743L.501 8.68V7.11c.025-.48.211-.635 1.615-1.192l.415-.163.069-.164-.188-.404c-.604-1.31-.642-1.605-.298-1.955l1.311-1.288.35-.01c.205 0 .6.125 1.283.399l.59.242.186-.075.082-.22C6.464.833 6.644.55 7.118.506l.067-.004zM8.61 1.5H7.329l-.012.028c-.089.166-.214.457-.398.933l-.301.8-.977.398-.38-.16c-.737-.308-1.256-.503-1.427-.555l-.901.887.033.102c.064.18.18.454.365.858l.365.777-.407.967-.407.158c-.603.235-.982.393-1.214.504l-.134.068-.034.014V8.53l.09.043c.18.087.47.205.92.372l.782.284.407.965-.328.75c-.163.381-.271.65-.337.838l-.059.185.899.884.197-.069c.15-.057.369-.146.668-.277l.909-.406.978.399.235.58c.17.414.296.706.393.911l.12.241.009.024h1.283c.092-.165.222-.467.421-.983l.294-.779.98-.397.728.305c.385.158.688.275.881.345l.194.065.904-.887-.052-.15c-.088-.236-.251-.607-.522-1.184l-.19-.402.404-.967.598-.233c.49-.194.815-.33 1.024-.431l.135-.069.034-.015V7.223l-.16-.075c-.157-.07-.38-.16-.688-.276l-.946-.344-.407-.968.255-.581c.23-.532.367-.871.436-1.083l.033-.113-.898-.88-.07.023c-.195.067-.604.233-1.308.55l-.395.179-.98-.396-.238-.589c-.197-.48-.336-.798-.438-1.002l-.078-.15L8.61 1.5zm-.731 3.421c1.63 0 2.954 1.325 2.954 2.955 0 1.631-1.324 2.957-2.954 2.957-1.631 0-2.958-1.326-2.958-2.957 0-1.63 1.327-2.955 2.958-2.955zm0 1c-1.08 0-1.958.878-1.958 1.955 0 1.079.88 1.957 1.958 1.957 1.077 0 1.954-.878 1.954-1.957 0-1.077-.877-1.955-1.954-1.955z"/>
</svg>
