<svg xmlns="http://www.w3.org/2000/svg" width="14" height="16" viewBox="0 0 14 16">
    <path fill="#FFF" d="M12.09.5c.733 0 1.335.559 1.404 1.273l.006.136v10c0 .733-.559 1.334-1.273 1.403l-.136.006H11.5v.5c0 .78-.595 1.42-1.356 1.493l-.144.007H2c-.828 0-1.5-.671-1.5-1.5V4c0-.828.672-1.5 1.5-1.5h.5v-.59c0-.733.559-1.335 1.273-1.404L3.91.5h8.182zM10 3.5H2c-.276 0-.5.224-.5.5v9.818c0 .276.224.5.5.5h8c.276 0 .5-.224.5-.5V4c0-.276-.224-.5-.5-.5zm2.09-2H3.91c-.199 0-.364.14-.402.327l-.008.082V2.5H10c.78 0 1.42.595 1.493 1.356L11.5 4v8.318h.59c.199 0 .364-.14.402-.326l.008-.083v-10c0-.198-.14-.363-.327-.4l-.082-.009z"/>
</svg>
