<svg xmlns="http://www.w3.org/2000/svg" width="26" height="17" viewBox="0 0 26 17">
    <g fill="none" fill-rule="evenodd">
        <g>
            <g>
                <path fill="#7887A9" fill-rule="nonzero" d="M3.71 0l4.198 4.198L9.277 2.83l4.274 4.273-1.369 1.37 4.198 4.197-3.58 3.58-4.198-4.198-1.278 1.278-1.634-1.634-.509.525c.57.944.598 2.123.083 3.09L1 11.089c.996-.544 2.224-.506 3.188.112l.497-.51-1.634-1.635 1.277-1.278L.13 3.58 3.71 0zm7.467 9.477l-1.57 1.57L12.8 14.24l1.57-1.57-3.193-3.193zM3.71 2.01L2.14 3.58l3.194 3.193 1.57-1.57L3.71 2.01zm7.457-.4l3.674 3.677-.952 1.168-3.9-3.887 1.178-.958z" transform="translate(-1074 -753) translate(1074 753)"/>
                <path fill="#3F7BFF" d="M18.784 4.36c-.03.062-.044.144-.044.244V8.39H15.45c-.508 0-.28.551.076.876l4.4 4.38 4.392-4.38c.36-.325.589-.876.08-.876h-3.293v-5.5c0-.198-.066-.323-.198-.375-.132-.051-.27 0-.413.155L18.89 4.2c-.04.044-.076.097-.106.16z" transform="translate(-1074 -753) translate(1074 753) matrix(0 1 1 0 11.855 -11.855)"/>
            </g>
        </g>
    </g>
</svg>
