<svg xmlns="http://www.w3.org/2000/svg" width="26" height="16" viewBox="0 0 26 16">
    <g fill="none" fill-rule="evenodd">
        <g>
            <g>
                <g>
                    <g>
                        <g>
                            <g fill="#A2AFCD" fill-rule="nonzero">
                                <path d="M3.37 0l3.95 3.951L8.61 2.663l4.022 4.023-1.288 1.288 3.951 3.95-3.37 3.37-3.95-3.951-1.203 1.203-1.538-1.538-.48.494c.538.888.563 1.998.079 2.908L.819 10.437c.937-.512 2.093-.477 3 .105l.468-.48L2.75 8.522 3.95 7.321 0 3.369 3.37 0zm7.027 8.92L8.92 10.397l3.005 3.005 1.477-1.477-3.005-3.005zM3.37 1.892L1.892 3.369l3.005 3.006 1.478-1.478L3.37 1.892zm7.018-.377l3.458 3.46-.896 1.1-3.67-3.658 1.108-.902z" transform="translate(-1543.000000, -290.000000) translate(1401.000000, 223.000000) translate(0.000000, 43.000000) translate(71.000000, 4.000000) translate(71.000000, 20.000000) translate(8.357647, 8.000000) scale(-1, 1) translate(-8.357647, -8.000000) translate(0.357647, 0.000000) translate(7.647059, 7.647059) scale(-1, 1) translate(-7.647059, -7.647059)"/>
                                <path d="M10.462 14.41c-.594-1.114-.42-2.53.518-3.47.947-.946 2.377-1.114 3.495-.503" transform="translate(-1543.000000, -290.000000) translate(1401.000000, 223.000000) translate(0.000000, 43.000000) translate(71.000000, 4.000000) translate(71.000000, 20.000000) translate(8.357647, 8.000000) scale(-1, 1) translate(-8.357647, -8.000000) translate(0.357647, 0.000000)"/>
                            </g>
                            <path fill="#5AD900" d="M18.62 4.103c-.028.06-.042.136-.042.23v3.563h-3.094c-.479 0-.265.519.07.824l4.141 4.122L23.83 8.72c.34-.305.555-.824.076-.824h-3.1V2.719c0-.186-.061-.304-.186-.352-.124-.05-.254 0-.389.145l-1.51 1.441c-.038.041-.071.091-.1.15z" transform="translate(-1543.000000, -290.000000) translate(1401.000000, 223.000000) translate(0.000000, 43.000000) translate(71.000000, 4.000000) translate(71.000000, 20.000000) translate(19.694258, 7.595185) rotate(90.000000) translate(-19.694258, -7.595185)"/>
                        </g>
                    </g>
                </g>
            </g>
        </g>
    </g>
</svg>
