<svg xmlns="http://www.w3.org/2000/svg" width="25" height="16" viewBox="0 0 25 16">
    <g fill="none" fill-rule="evenodd">
        <g>
            <g>
                <g>
                    <g>
                        <g>
                            <path fill="#A2AFCD" fill-rule="nonzero" d="M3.37 0l3.95 3.951L8.61 2.663l4.022 4.023-1.288 1.288 3.951 3.95-3.37 3.37-3.95-3.951-1.203 1.203-1.538-1.538-.48.494c.538.888.563 1.998.079 2.908L.819 10.437c.937-.512 2.093-.477 3 .105l.468-.48L2.75 8.522 3.95 7.321 0 3.369 3.37 0zm7.027 8.92L8.92 10.397l3.005 3.005 1.477-1.477-3.005-3.005zM3.37 1.892L1.892 3.369l3.005 3.006 1.478-1.478L3.37 1.892zm7.018-.377l3.458 3.46-.896 1.1-3.67-3.658 1.108-.902z" transform="translate(-1552.000000, -505.000000) translate(1401.000000, 223.000000) translate(0.000000, 258.000000) translate(0.000000, 4.000000) translate(151.000000, 20.000000) translate(0.122353, 0.000000)"/>
                            <path fill="#13A7FF" d="M17.557 4.103c-.028.06-.042.136-.042.23v3.563H14.42c-.478 0-.264.519.071.824l4.14 4.122 4.135-4.122c.34-.305.554-.824.076-.824h-3.1V2.719c0-.186-.062-.304-.186-.352-.124-.05-.254 0-.39.145l-1.51 1.441c-.038.041-.071.091-.099.15z" transform="translate(-1552.000000, -505.000000) translate(1401.000000, 223.000000) translate(0.000000, 258.000000) translate(0.000000, 4.000000) translate(151.000000, 20.000000) translate(0.122353, 0.000000) translate(18.630680, 7.595185) scale(-1, 1) rotate(90.000000) translate(-18.630680, -7.595185)"/>
                        </g>
                    </g>
                </g>
            </g>
        </g>
    </g>
</svg>
