<svg xmlns="http://www.w3.org/2000/svg" width="27" height="17" viewBox="0 0 27 17">
    <g fill="none" fill-rule="evenodd">
        <g>
            <g>
                <g fill="#7887A9" fill-rule="nonzero">
                    <path d="M3.58 0l4.198 4.198L9.147 2.83l4.274 4.273-1.369 1.37 4.198 4.197-3.58 3.58-4.198-4.198-1.278 1.278-1.634-1.634-.509.525c.57.944.598 2.123.083 3.09L.87 11.089c.996-.544 2.224-.506 3.188.112l.497-.51-1.634-1.635 1.277-1.278L0 3.58 3.58 0zm7.467 9.477l-1.57 1.57 3.193 3.193 1.57-1.57-3.193-3.193zM3.58 2.01L2.01 3.58l3.194 3.193 1.57-1.57L3.58 2.01zm7.457-.4l3.674 3.677-.952 1.168-3.9-3.887 1.178-.958z" transform="translate(-1067 -713) translate(1067 713) matrix(-1 0 0 1 17.38 0) matrix(-1 0 0 1 16.25 0)"/>
                    <path d="M11.116 15.31c-.63-1.183-.447-2.688.55-3.686 1.006-1.005 2.526-1.184 3.714-.535" transform="translate(-1067 -713) translate(1067 713) matrix(-1 0 0 1 17.38 0)"/>
                </g>
                <path fill="#47AB00" d="M19.784 4.36c-.03.062-.044.144-.044.244V8.39H16.45c-.508 0-.28.551.076.876l4.4 4.38 4.392-4.38c.36-.325.589-.876.08-.876h-3.293v-5.5c0-.198-.066-.323-.198-.375-.132-.051-.27 0-.413.155L19.89 4.2c-.04.044-.076.097-.106.16z" transform="translate(-1067 -713) translate(1067 713) rotate(90 20.925 8.07)"/>
            </g>
        </g>
    </g>
</svg>
