<svg xmlns="http://www.w3.org/2000/svg" width="17" height="18" viewBox="0 0 17 18">
    <path fill="#525C73" fill-rule="evenodd" d="M8.498 16.006c1.532.004 2.823-1.255 2.83-2.759.006-1.596-1.232-2.891-2.768-2.895-1.594-.005-2.884 1.236-2.886 2.776-.003 1.607 1.24 2.873 2.824 2.878zM1.905 6.558h9.42V2.804h-9.42v3.754zM8.481 17.9H1.89C.829 17.9 0 17.07 0 16.006V2.788C0 1.738.832.903 1.879.902c3.72 0 7.44.001 11.16-.002.13 0 .222.03.315.124 1.172 1.179 2.35 2.351 3.52 3.531.07.07.12.193.12.29.007 3.733.006 7.466.006 11.199 0 1.007-.846 1.855-1.853 1.855H8.481z"/>
</svg>
