<svg xmlns="http://www.w3.org/2000/svg" xmlns:xlink="http://www.w3.org/1999/xlink" width="17" height="19" viewBox="0 0 17 19">
    <defs>
        <path id="ep9b8amxda" d="M0 0H17V19H0z"/>
    </defs>
    <g fill="none" fill-rule="evenodd">
        <g>
            <g>
                <g transform="translate(-560 -712) translate(485 712) translate(75)">
                    <mask id="2vtt0i0zrb" fill="#fff">
                        <use xlink:href="#ep9b8amxda"/>
                    </mask>
                    <path d="M0 0H17V19H0z" mask="url(#2vtt0i0zrb)"/>
                    <path fill="#0E75C3" d="M8.667 15.688c1.443.004 2.658-1.18 2.663-2.596.006-1.503-1.158-2.721-2.604-2.725-1.5-.004-2.714 1.163-2.717 2.613-.002 1.513 1.167 2.704 2.658 2.708zM2.462 6.796h8.866V3.263H2.462v3.533zm6.19 10.675H2.447c-.999 0-1.777-.781-1.778-1.782V3.248c0-.989.783-1.775 1.768-1.775 3.501 0 7.003 0 10.504-.002.121 0 .209.029.296.117 1.103 1.11 2.212 2.213 3.313 3.323.065.066.113.181.114.274.005 3.513.005 7.026.004 10.539 0 .948-.796 1.746-1.743 1.747H8.65z" mask="url(#2vtt0i0zrb)"/>
                </g>
            </g>
        </g>
    </g>
</svg>
