<svg width="14" height="14" viewBox="0 0 14 14" xmlns="http://www.w3.org/2000/svg">
    <path d="M11.538 0 14 2.45V13.5a.5.5 0 0 1-.5.5H.5a.5.5 0 0 1-.5-.5V.5A.5.5 0 0 1 .5 0h11.038zM10 1.006V4a.5.5 0 0 1-.5.5H3a.5.5 0 0 1-.5-.5V1.004H1.482a.5.5 0 0 0-.492.41l-.008.09V12.5a.5.5 0 0 0 .41.492l.09.008H2.5V7.447a.5.5 0 0 1 .41-.492L3 6.947h7.976a.5.5 0 0 1 .492.41l.008.09V13h1.274c.245 0 .198-.177.24-.41l.008-.09V2.812L11.16 1 10 1.006zM10.5 8h-7v5h7V8zm-1.303 3.09c.223 0 .403.228.403.51 0 .282-.18.51-.403.51H4.503c-.223 0-.403-.228-.403-.51 0-.282.18-.51.403-.51h4.694zm0-2c.223 0 .403.228.403.51 0 .282-.18.51-.403.51H4.503c-.223 0-.403-.228-.403-.51 0-.282.18-.51.403-.51h4.694zM9 1H3.5v2.5H9V1z" fill="#525C73" fill-rule="evenodd"/>
</svg>
