<svg xmlns="http://www.w3.org/2000/svg" width="32" height="28" viewBox="0 0 32 28">
    <defs>
        <filter id="q5jt5fjmha" color-interpolation-filters="auto">
            <feColorMatrix in="SourceGraphic" values="0 0 0 0 0.243137 0 0 0 0 0.698039 0 0 0 0 1.000000 0 0 0 1.000000 0"/>
        </filter>
    </defs>
    <g fill="none" fill-rule="evenodd">
        <g>
            <g>
                <g fill="#C1C6D0" filter="url(#q5jt5fjmha)" transform="translate(-295 -38) translate(19 37) translate(276 1)">
                    <path d="M23.5.85c1.38 0 2.5 1.12 2.5 2.5v21.353c0 1.381-1.12 2.5-2.5 2.5H2.7c-.984 0-2.7-.599-2.7-2.092 0-.715.067-1.195.2-1.44.19.417.417.761.684 1.032.4.407 1.116.458 6.116.407 1.97-.02 2.597.016 5.551.001l9.809.05c1.054 0 1.924-.816 2-1.851V4.168c0-1.055-.627-1.995-1.85-1.995-4.456-.004-10.198-.007-17.226-.007-2.244 0-3.842-.119-4.4 1.184C.512 4.219.284 4.769.2 5V3.35C.2 1.819.884.85 2.7.85h20.8z" transform="matrix(-1 0 0 1 26 0)"/>
                    <path d="M17.02 14.872c.836 0 1.63.173 2.347.485-1.367.958-2.385 2.168-2.978 3.577h-3.98c-.235 0-.442-.174-.485-.392l-.009-.083.001-.475.004-.047.012-.04.037-.101c.953-1.734 2.86-2.924 5.051-2.924zm.006-6.487c1.416 0 2.563 1.091 2.563 2.437 0 1.347-1.147 2.438-2.563 2.438-1.416 0-2.563-1.091-2.563-2.438 0-1.346 1.147-2.437 2.563-2.437zM10.352 19c0 .496.01 1.005.046 1.5H4.4c-.22 0-.4-.18-.4-.4v-.7c0-.22.18-.4.4-.4zm.594-4.001c-.155.419-.282.945-.377 1.502L4.4 16.5c-.22 0-.4-.18-.4-.4v-.7c0-.22.18-.4.4-.4zm1.28-4c-.224.473-.432 1.004-.578 1.502L4.4 12.5c-.22 0-.4-.18-.4-.4v-.7c0-.22.18-.4.4-.4zM14.814 7c-.474.522-.86 1.034-1.173 1.5H4.533C4.24 8.5 4 8.32 4 8.1v-.7c0-.22.239-.4.533-.4zM24.989 15c2.907 0 5.451 1.79 6.792 4.453l.123.253.048.163c.016.036.032.084.041.129l.007.061v.68c0 .374-.263.702-.587.754l-.09.008H18.677c-.332 0-.624-.297-.67-.661L18 20.739v-.68c0-.054 0-.109.007-.155l.066-.225C19.379 16.904 21.99 15 24.989 15zM25 6.25c2.071 0 3.75 1.679 3.75 3.75 0 2.071-1.679 3.75-3.75 3.75-2.071 0-3.75-1.679-3.75-3.75 0-2.071 1.679-3.75 3.75-3.75z"/>
                </g>
            </g>
        </g>
    </g>
</svg>
