<svg xmlns="http://www.w3.org/2000/svg" width="16" height="14" viewBox="0 0 16 14">
    <g fill="none" fill-rule="evenodd">
        <g stroke="#1A91EB" stroke-width="2">
            <path d="M311.632 791.643l.238.043 2.182 2.167-2.42-2.21zM306.46 782c1.507 0 2.873.611 3.86 1.599.989.988 1.6 2.352 1.6 3.86 0 .999-.268 1.935-.737 2.74h0l-.718 1.234.41.074-.155.084c-1.178.63-2.485 1.233-3.926 1.316l-.334.01c-1.508 0-2.873-.61-3.86-1.599-.989-.987-1.6-2.352-1.6-3.86 0-1.507.611-2.871 1.599-3.86.988-.987 2.353-1.598 3.86-1.598z" transform="translate(-300 -781)"/>
        </g>
    </g>
</svg>
