<?xml version="1.0" encoding="UTF-8"?>
<svg width="20px" height="16px" viewBox="0 0 20 16" version="1.1" xmlns="http://www.w3.org/2000/svg" xmlns:xlink="http://www.w3.org/1999/xlink">
    <title>9C78CB73-387F-429A-B814-7DD1600E55D5</title>
    <g id="Patient-sheet" stroke="none" stroke-width="1" fill="none" fill-rule="evenodd">
        <g id="15.2-Icons" transform="translate(-339.000000, -525.000000)" fill="#FFFFFF">
            <g id="Alerts" transform="translate(255.000000, 520.000000)">
                <g id="sensitivity" transform="translate(81.000000, 0.000000)">
                    <g id="sensitivity-ico" transform="translate(3.750000, 5.759535)">
                        <path d="M6.24772215,9.72593014 C6.47788513,9.72593014 6.66464386,9.90755866 6.66464386,10.1310739 L6.66464386,10.9416645 C6.66464386,11.1654829 6.47788513,11.3471114 6.24772215,11.3471114 L5.41494082,11.3471114 C5.18506106,11.3471114 4.99828817,11.1654829 4.99828817,10.9416645 L4.99828817,10.1310739 C4.99828817,9.90755866 5.18506106,9.72593014 5.41494082,9.72593014 L6.24772215,9.72593014 Z M9.57965464,8.10503823 C9.80954856,8.10503823 9.99684541,8.2863774 9.99684541,8.51048511 L9.99684541,9.32077261 C9.99684541,9.54430162 9.80954856,9.72593014 9.57965464,9.72593014 L8.74714238,9.72593014 C8.51697939,9.72593014 8.33047557,9.54430162 8.33047557,9.32077261 L8.33047557,8.51048511 C8.33047557,8.2863774 8.51697939,8.10503823 8.74714238,8.10503823 L9.57965464,8.10503823 Z M2.91580381,8.10503823 C3.14542867,8.10503823 3.33245646,8.2863774 3.33245646,8.51048511 L3.33245646,9.32077261 C3.33245646,9.54430162 3.14542867,9.72593014 2.91580381,9.72593014 L2.08302249,9.72593014 C1.8526046,9.72593014 1.66635568,9.54430162 1.66635568,9.32077261 L1.66635568,8.51048511 C1.66635568,8.2863774 1.8526046,8.10503823 2.08302249,8.10503823 L2.91580381,8.10503823 Z M5.36178864,3.31397088 C6.62362608,3.31397088 7.64675328,4.33734432 7.64675328,5.59907808 C7.64675328,6.861084 6.62362608,7.88418528 5.36178864,7.88418528 C4.09945872,7.88418528 3.07657776,6.861084 3.07657776,5.59907808 C3.07657776,4.33734432 4.09945872,3.31397088 5.36178864,3.31397088 Z M11.2462794,4.86296507 C11.4761733,4.86296507 11.662139,5.04429046 11.662139,5.26810882 L11.662139,6.07869945 C11.662139,6.30251781 11.4761733,6.48414633 11.2462794,6.48414633 L10.4129741,6.48414633 C10.1830802,6.48414633 9.99684541,6.30251781 9.99684541,6.07869945 L9.99684541,5.26810882 C9.99684541,5.04429046 10.1830802,4.86296507 10.4129741,4.86296507 L11.2462794,4.86296507 Z M1.2499721,4.86296507 C1.47985186,4.86296507 1.66635568,5.04429046 1.66635568,5.26810882 L1.66635568,6.07869945 C1.66635568,6.30251781 1.47985186,6.48414633 1.2499721,6.48414633 L0.416652646,6.48414633 C0.186772882,6.48414633 0,6.30251781 0,6.07869945 L0,5.26810882 C0,5.04429046 0.186772882,4.86296507 0.416652646,4.86296507 L1.2499721,4.86296507 Z M2.91580381,1.62089191 C3.14542867,1.62089191 3.33245646,1.80252042 3.33245646,2.02632501 L3.33245646,2.83662629 C3.33245646,3.06044465 3.14542867,3.24178381 2.91580381,3.24178381 L2.08302249,3.24178381 C1.8526046,3.24178381 1.66635568,3.06044465 1.66635568,2.83662629 L1.66635568,2.02632501 C1.66635568,1.80252042 1.8526046,1.62089191 2.08302249,1.62089191 L2.91580381,1.62089191 Z M9.57965464,1.62089191 C9.80954856,1.62089191 9.99684541,1.80252042 9.99684541,2.02632501 L9.99684541,2.83662629 C9.99684541,3.06044465 9.80954856,3.24178381 9.57965464,3.24178381 L8.74714238,3.24178381 C8.51697939,3.24178381 8.33047557,3.06044465 8.33047557,2.83662629 L8.33047557,2.02632501 C8.33047557,1.80252042 8.51697939,1.62089191 8.74714238,1.62089191 L9.57965464,1.62089191 Z M6.24772215,0 C6.47788513,0 6.66464386,0.18132539 6.66464386,0.40514375 L6.66464386,1.21573438 C6.66464386,1.43955274 6.47788513,1.62089191 6.24772215,1.62089191 L5.41494082,1.62089191 C5.18506106,1.62089191 4.99828817,1.43955274 4.99828817,1.21573438 L4.99828817,0.40514375 C4.99828817,0.18132539 5.18506106,0 5.41494082,0 L6.24772215,0 Z" id="Combined-Shape"></path>
                        <path d="M12.85,2.84046464 C16.0532515,2.84046464 18.65,5.43721309 18.65,8.64046464 C18.65,11.8437162 16.0532515,14.4404646 12.85,14.4404646 C9.64674845,14.4404646 7.05,11.8437162 7.05,8.64046464 C7.05,5.43721309 9.64674845,2.84046464 12.85,2.84046464 Z M13,10.8404646 C12.4203328,10.8404646 11.95,11.3110155 11.95,11.8904704 C11.95,12.4699138 12.4203328,12.9404646 13,12.9404646 C13.5793366,12.9404646 14.05,12.4699138 14.05,11.8904704 C14.05,11.3110155 13.5793366,10.8404646 13,10.8404646 Z M13,4.54046464 C12.4617376,4.54046464 12.0177482,4.98294331 11.9570674,5.39022031 L11.95,5.483365 L11.95,8.89069067 C11.95,9.32041194 12.4203328,9.79466394 13,9.79466394 C13.5379554,9.79466394 13.9822079,9.38574258 14.0429279,8.98326633 L14.05,8.89069067 L14.05,5.483365 C14.05,5.05363516 13.5793366,4.54046464 13,4.54046464 Z" id="Shape"></path>
                    </g>
                </g>
            </g>
        </g>
    </g>
</svg>