<svg xmlns="http://www.w3.org/2000/svg" width="23" height="19" viewBox="0 0 23 19">
    <g fill="none" fill-rule="evenodd">
        <g fill="#FFF">
            <g>
                <path d="M18.982 0c.552 0 1 .466 1 1.042v1.041h1.2c.442 0 .8.373.8.834v12.916c0 .46-.358.834-.8.834h-7.893c.307-.321.588-.67.838-1.042h6.705v-12.5h-2.101l.001 1.563c0 .115-.09.208-.2.208h-4.1c-.11 0-.2-.093-.2-.208l-.001-1.563h-2.149v1.478c-.348-.237-.715-.444-1.1-.62V2.918c0-.46.358-.834.8-.834h7.049l.001-1.041h-8.7v2.617c-.372-.116-.756-.202-1.15-.257v-2.36c0-.576.448-1.042 1-1.042h9zm.2 13.02v1.043h-4.24c.13-.336.238-.685.323-1.042h3.917zm0-2.603v1.041l-3.706.001c.004-.104.006-.208.006-.313 0-.246-.01-.49-.032-.73h3.732zm0-2.604v1.041h-4.028c-.105-.359-.235-.707-.387-1.042h4.415z" transform="translate(-145.000000, -543.000000) translate(146.017963, 543.645833)"/>
                <path stroke="#FFF" stroke-width=".5" d="M7.819 4.692c3.036.112 5.63 2.48 6.092 5.565.448 2.994-1.257 5.946-4.068 7.041-2.584 1.007-5.479.231-7.225-1.859-.079-.094-.428-.646-.05-.938.38-.29.729.177.787.248 1.306 1.573 3.02 2.247 5.096 1.882 2.343-.412 3.827-1.89 4.394-4.224.69-2.835-1.097-5.772-3.909-6.525-2.825-.758-5.79.895-6.607 3.683-.013.044-.186.642-.186.74.246-.099.5-.252.68-.336.314-.148.661-.254.814 0 .153.254-.093.577-.455.794-.363.218-.793.515-1.157.693-.327.16-.712.186-1.024-.244-.326-.45-.529-.699-.747-1.06-.237-.392-.378-.763-.102-.93.276-.168.495-.027.67.226.175.254.236.343.372.605.03-.133.03-.205.051-.298.71-3.076 3.438-5.178 6.574-5.063zM7.46 8.199c.28 0 .426.25.429.655l.002.54V10.807l-.001.133v.209l-.001.121h.213l.413-.002h.661c.102.001.175.003.2.005.3.026.518.118.518.455 0 .342-.237.456-.524.462-.602.011-1.206.015-1.809-.002-.34-.01-.492-.018-.494-.46l-.001-.706v-.584c0-.464.003-.902.005-1.568 0-.42.109-.67.389-.67z" transform="translate(-145.000000, -543.000000) translate(146.017963, 543.645833)"/>
            </g>
        </g>
    </g>
</svg>
