<svg xmlns="http://www.w3.org/2000/svg" width="22" height="22" viewBox="0 0 22 22">
    <path fill="#E2E4EA" d="M3.293 3.366l2.065 2.227C3.855 7.052 3 9.023 3 11.125c0 4.297 3.569 7.805 8 7.805 4.432 0 8-3.508 8-7.805 0-1.992-.768-3.866-2.126-5.298l-.22-.222 2.07-2.223C20.803 5.41 22 8.174 22 11.125 22 17.145 17.062 22 11 22S0 17.145 0 11.125C0 8.28 1.112 5.61 3.056 3.603l.237-.237zM11.001 0c.828 0 1.5.688 1.5 1.535v9.21c0 .847-.672 1.534-1.5 1.534-.829 0-1.501-.687-1.501-1.535v-9.21C9.5.689 10.172 0 11 0z"/>
</svg>
