<?xml version="1.0" encoding="UTF-8"?>
<svg width="23px" height="35px" viewBox="0 0 23 35" version="1.1" xmlns="http://www.w3.org/2000/svg" xmlns:xlink="http://www.w3.org/1999/xlink">
    <title>tab-right</title>
    <defs>
        <polygon id="path-1" points="0 0 23 0 23 35 0 35"></polygon>
        <polygon id="path-3" points="0 0 23 0 23 35 0 35"></polygon>
    </defs>
    <g id="Page-1" stroke="none" stroke-width="1" fill="none" fill-rule="evenodd">
        <g id="Group" transform="translate(11.500000, 17.500000) scale(-1, 1) translate(-11.500000, -17.500000) ">
            <g id="Clipped">
                <mask id="mask-2" fill="white">
                    <use xlink:href="#path-1"></use>
                </mask>
                <g id="gj175gg7wa"></g>
                <path d="M23,0.576 L23,35 L0,35 C5.675,35 8.345,31.392 9.807,26.468 L9.964,25.914 L10.112,25.344 L10.252,24.761 L10.382,24.164 C10.404,24.064 10.424,23.963 10.445,23.861 L10.565,23.244 L10.677,22.614 L10.783,21.972 L10.932,20.987 L11.069,19.976 L11.197,18.941 L11.416,17.017 L11.518,16.177 L11.626,15.36 L11.739,14.566 L11.857,13.797 L11.981,13.051 L12.045,12.687 L12.179,11.976 L12.319,11.288 L12.467,10.623 L12.621,9.981 L12.701,9.668 L12.868,9.06 L12.955,8.764 L13.134,8.19 C14.847,2.93 17.713,0.576 23,0.576 Z" id="Path" fill="#D5DDE7" fill-rule="nonzero" mask="url(#mask-2)"></path>
            </g>
            <g id="Clipped">
                <mask id="mask-4" fill="white">
                    <use xlink:href="#path-3"></use>
                </mask>
                <g id="gj175gg7wa"></g>
                <path d="M0,34.5 C5.675,34.5 8.345,31.392 9.807,26.468 L9.964,25.914 L10.112,25.344 L10.252,24.761 L10.382,24.164 C10.404,24.064 10.424,23.963 10.445,23.861 L10.565,23.244 L10.677,22.614 L10.783,21.972 L10.932,20.987 L11.069,19.976 L11.197,18.941 L11.416,17.017 L11.518,16.177 L11.626,15.36 L11.739,14.566 L11.857,13.797 L11.981,13.051 L12.045,12.687 L12.179,11.976 L12.319,11.288 L12.467,10.623 L12.621,9.981 L12.701,9.668 L12.868,9.06 L12.955,8.764 L13.134,8.19 C14.847,2.93 17.713,0.576 23,0.576" id="Path" stroke="#B1C0D3" mask="url(#mask-4)"></path>
            </g>
        </g>
    </g>
</svg>