<?xml version="1.0" encoding="UTF-8"?>
<svg width="23px" height="35px" viewBox="0 0 23 35" version="1.1" xmlns="http://www.w3.org/2000/svg" xmlns:xlink="http://www.w3.org/1999/xlink">
    <title>tab-left</title>
    <defs>
        <rect id="path-1" x="0" y="0" width="23" height="35"></rect>
        <rect id="path-3" x="0" y="0" width="23" height="35"></rect>
    </defs>
    <g id="Page-1" stroke="none" stroke-width="1" fill="none" fill-rule="evenodd">
        <g id="tab-left">
            <g id="tab-left-bg-Clipped">
                <mask id="mask-2" fill="white">
                    <use xlink:href="#path-1"></use>
                </mask>
                <g id="path-1"></g>
                <path d="M23,0.575615383 L23,35 L0,35 C5.67541988,35 8.34505174,31.3918379 9.80659802,26.4680463 L9.96411184,25.9135523 L10.1122306,25.3445088 L10.2515022,24.7613099 L10.3824747,24.1643496 C10.4036423,24.0637313 10.424487,23.962556 10.4450201,23.860832 L10.5645714,23.2439683 L10.6771937,22.6143281 L10.7834348,21.9723055 L10.9320307,20.9869165 L11.0693515,19.9758833 L11.1972468,18.9405356 L11.4157686,17.0172768 L11.518457,16.1764398 L11.625978,15.3595426 L11.7386785,14.5664355 L11.8569051,13.7969688 L11.9810048,13.0509929 C12.0021968,12.9286129 12.0236479,12.8072053 12.0453655,12.6867672 L12.1789249,11.9757468 L12.3192244,11.2878428 L12.4666106,10.6229057 L12.6214305,9.98078562 C12.6478725,9.87565872 12.6746387,9.7714763 12.7017363,9.66823524 L12.8683568,9.06006019 C12.8968089,8.96057208 12.9256069,8.86201909 12.954758,8.76439811 L13.1339594,8.18983124 C14.8471292,2.93112557 17.7128771,0.575615383 23,0.575615383 Z" id="tab-left-bg" fill="#D5DDE7" fill-rule="nonzero" mask="url(#mask-2)"></path>
            </g>
            <g id="tab-left-stroke-Clipped">
                <mask id="mask-4" fill="white">
                    <use xlink:href="#path-3"></use>
                </mask>
                <g id="path-1"></g>
                <path d="M0,34.5 C5.67541988,34.5 8.34505174,31.3918379 9.80659802,26.4680463 L9.96411184,25.9135523 L10.1122306,25.3445088 L10.2515022,24.7613099 L10.3824747,24.1643496 C10.4036423,24.0637313 10.424487,23.962556 10.4450201,23.860832 L10.5645714,23.2439683 L10.6771937,22.6143281 L10.7834348,21.9723055 L10.9320307,20.9869165 L11.0693515,19.9758833 L11.1972468,18.9405356 L11.4157686,17.0172768 L11.518457,16.1764398 L11.625978,15.3595426 L11.7386785,14.5664355 L11.8569051,13.7969688 L11.9810048,13.0509929 C12.0021968,12.9286129 12.0236479,12.8072053 12.0453655,12.6867672 L12.1789249,11.9757468 L12.3192244,11.2878428 L12.4666106,10.6229057 L12.6214305,9.98078562 C12.6478725,9.87565872 12.6746387,9.7714763 12.7017363,9.66823524 L12.8683568,9.06006019 C12.8968089,8.96057208 12.9256069,8.86201909 12.954758,8.76439811 L13.1339594,8.18983124 C14.8471292,2.93112557 17.7128771,0.575615383 23,0.575615383" id="tab-left-stroke" stroke="#B1C0D3" mask="url(#mask-4)"></path>
            </g>
        </g>
    </g>
</svg>