<svg xmlns="http://www.w3.org/2000/svg" xmlns:xlink="http://www.w3.org/1999/xlink" width="22" height="15" viewBox="0 0 22 15">
    <defs>
        <path id="i2mg4i5jca" d="M6 6.522c3.314 0 6 2.686 6 6v1.304H0v-1.304c0-3.314 2.686-6 6-6z"/>
        <path id="hkw3lbgo5b" d="M6 6.522c3.314 0 6 2.686 6 6v1.304H0v-1.304c0-3.314 2.686-6 6-6z"/>
    </defs>
    <g fill="none" fill-rule="evenodd">
        <g>
            <g>
                <g transform="translate(-274 -1168) translate(275 1168)">
                    <g>
                        <path fill="#FFF" stroke="#B6B9C0" stroke-linejoin="square" stroke-width="1.5" d="M6 7.272c1.45 0 2.762.587 3.712 1.537.95.95 1.538 2.263 1.538 3.713h0v.554H.75v-.554c0-1.45.588-2.763 1.538-3.713C3.238 7.86 4.55 7.272 6 7.272z"/>
                        <use stroke="#FFF" xlink:href="#i2mg4i5jca"/>
                    </g>
                    <circle cx="6" cy="3.652" r="3.152" fill="#FFF" stroke="#B6B9C0"/>
                </g>
                <g transform="translate(-274 -1168) translate(275 1168) translate(7.333)">
                    <g>
                        <path fill="#FFF" stroke="#B6B9C0" stroke-linejoin="square" stroke-width="1.5" d="M6 7.272c1.45 0 2.762.587 3.712 1.537.95.95 1.538 2.263 1.538 3.713h0v.554H.75v-.554c0-1.45.588-2.763 1.538-3.713C3.238 7.86 4.55 7.272 6 7.272z"/>
                        <use stroke="#FFF" xlink:href="#hkw3lbgo5b"/>
                    </g>
                    <circle cx="6" cy="3.652" r="3.152" fill="#FFF" stroke="#B6B9C0"/>
                </g>
            </g>
        </g>
    </g>
</svg>
