<svg xmlns="http://www.w3.org/2000/svg" xmlns:xlink="http://www.w3.org/1999/xlink" width="17" height="19" viewBox="0 0 17 19">
    <defs>
        <path id="flzlawa8la" d="M0 0H15.5V19H0z"/>
    </defs>
    <g fill="none" fill-rule="evenodd">
        <g>
            <g>
                <g transform="translate(-721 -712) translate(485 712) translate(236.375)">
                    <mask id="eezigosxnb" fill="#fff">
                        <use xlink:href="#flzlawa8la"/>
                    </mask>
                    <path fill="#0E75C3" stroke="#0E75C3" stroke-width=".7" d="M9.807 3.772c.01-.02.017-.029.017-.037 0-.335.003-.67.001-1.006-.001-.218-.104-.313-.35-.313-1.129-.002-2.257-.002-3.386 0-.244 0-.348.095-.35.313-.004.321-.002.642 0 .963 0 .027.01.053.015.08h4.053zM3.182 4.954v3.992c0 .55-.002 1.1 0 1.649.002.294.235.49.66.554.132.019.273.026.41.026h4.6c.846 0 1.693.003 2.54 0 .565-.002.895-.165.978-.479.012-.045.012-.092.012-.138V4.954h-9.2zm10.222 1.81c0 2.103.002 6.826 0 8.929-.002.98-.945 1.804-2.065 1.805-2.38.003-4.758.002-7.138 0-1.09 0-2.04-.837-2.04-1.798-.002-2.733-.001-8.088-.001-10.822v-.25h-.884c-.085-.001-.172.002-.254-.014-.257-.05-.425-.263-.393-.488.03-.222.248-.39.52-.39h3.556c.004-.046.01-.085.01-.125v-.85c0-.66.683-1.254 1.442-1.254 1.07 0 2.14.02 3.209-.007.762-.018 1.536.661 1.487 1.295-.024.305-.004.612-.004.94h.188l3.37.001c.307 0 .534.197.53.451-.003.25-.226.436-.528.44-.191.002-.383 0-.575 0h-.43v2.138z" mask="url(#eezigosxnb)"/>
                </g>
            </g>
        </g>
    </g>
</svg>
