<svg xmlns="http://www.w3.org/2000/svg" xmlns:xlink="http://www.w3.org/1999/xlink" width="18" height="19" viewBox="0 0 18 19">
    <defs>
        <path id="e935n86oca" d="M0.728 0H16.728V19H0.728z"/>
    </defs>
    <g fill="none" fill-rule="evenodd">
        <g>
            <g>
                <g transform="translate(-792 -712) translate(485 712) translate(307.272)">
                    <mask id="rp1gz12zab" fill="#fff">
                        <use xlink:href="#e935n86oca"/>
                    </mask>
                    <g stroke="#0E75C3" stroke-linecap="round" stroke-width="2" mask="url(#rp1gz12zab)">
                        <path d="M2.682 9.23c0 3.866 3.134 7 7 7s7-3.134 7-7-3.134-7-7-7" transform="rotate(-19 14.769 13.153)"/>
                    </g>
                    <path fill="#0E75C3" d="M9.202.683c.423.346.423.905 0 1.25L6.934 4.428l2.268 2.498c.423.344.423.904 0 1.248-.424.345-1.11.345-1.534 0L4.834 5.053c-.423-.345-.423-.903 0-1.248L7.668.683c.423-.343 1.11-.343 1.534 0z" mask="url(#rp1gz12zab)" transform="rotate(-17 7.018 4.43)"/>
                </g>
            </g>
        </g>
    </g>
</svg>
