<svg xmlns="http://www.w3.org/2000/svg" width="22" height="14" viewBox="0 0 22 14">
    <defs>
        <filter id="4t3518nq4a" color-interpolation-filters="auto">
            <feColorMatrix in="SourceGraphic" values="0 0 0 0 0.408403 0 0 0 0 0.763974 0 0 0 0 1.000000 0 0 0 1.000000 0"/>
        </filter>
    </defs>
    <g fill="none" fill-rule="evenodd">
        <g>
            <g filter="url(#4t3518nq4a)" transform="translate(-1204.000000, -313.000000) translate(953.307612, 242.000000)">
                <g>
                    <path fill="#40B3FF" d="M17.96 8.274c2.962 0 4.04 3.224 4.04 4.264s-.115 1.124-.466 1.124h-3.656c.052-.223.074-.58.074-1.146 0-.807-.413-2.59-1.416-3.957.415-.18.888-.285 1.424-.285zm.007-5.024c1.238 0 2.24 1.003 2.24 2.24 0 1.238-1.002 2.24-2.24 2.24-1.237 0-2.24-1.002-2.24-2.24 0-1.237 1.003-2.24 2.24-2.24zM12.041 7.394c3.426 0 4.673 3.728 4.673 4.93 0 1.202-.133 1.3-.539 1.3l-4.29.002c.05-.255.072-.647.072-1.248 0-.936-.491-3.035-1.691-4.598.511-.242 1.1-.386 1.775-.386zm.01-5.81c1.43 0 2.59 1.16 2.59 2.59 0 1.432-1.16 2.592-2.59 2.592-1.432 0-2.591-1.16-2.591-2.591 0-1.431 1.16-2.591 2.59-2.591zM5.265 6.579c3.878 0 5.29 4.221 5.29 5.582 0 1.361-.15 1.473-.61 1.473H.61c-.37 0-.609-.11-.609-1.472C0 10.8 1.386 6.579 5.265 6.579zM5.275 0c1.62 0 2.933 1.313 2.933 2.934 0 1.62-1.313 2.933-2.933 2.933-1.62 0-2.934-1.313-2.934-2.933C2.341 1.314 3.654 0 5.275 0z" transform="translate(250.692388, 71.000000)"/>
                </g>
            </g>
        </g>
    </g>
</svg>
