<svg xmlns="http://www.w3.org/2000/svg" width="37" height="36" viewBox="0 0 37 36">
    <g fill="#989CA6" fill-rule="evenodd" transform="translate(.035)">
        <path d="M23.928 35.001l-.127.044a17.86 17.86 0 0 1-5.364.95h.017a18.344 18.344 0 0 1-3.608-.27A17.896 17.896 0 0 1 12.072 35l-.353-.127a17.729 17.729 0 0 1-1.153-.476l-.05-.023a17.908 17.908 0 0 1-.75-.364l-.038-.02a17.95 17.95 0 0 1-2.816-1.81C2.704 28.886 0 23.759 0 18 0 8.059 8.059 0 18 0s18 8.059 18 18a17.96 17.96 0 0 1-6.334 13.708l-.048.04-.112.095.16-.135a18.1 18.1 0 0 1-1.493 1.144l-.075.05a11.36 11.36 0 0 1-.39.258l-.05.032a18.268 18.268 0 0 1-1.386.799l-.038.02a17.945 17.945 0 0 1-1.932.855l-.021.008-.353.127zM18 1C8.611 1 1 8.611 1 18c0 5.003 2.162 9.502 5.602 12.613C8.18 25.029 12.686 21 18 21s9.82 4.03 11.399 9.612A16.956 16.956 0 0 0 35 18c0-9.389-7.611-17-17-17z"/>
        <circle cx="18" cy="13" r="7"/>
    </g>
</svg>
