<svg xmlns="http://www.w3.org/2000/svg" width="36" height="26" viewBox="0 0 36 26">
    <g fill="none" fill-rule="evenodd">
        <rect width="35" height="25" x=".5" y=".5" fill="#4F576C" stroke="#B9BCC4" rx="2"/>
        <path fill="#B9BCC4" stroke="#4F576C" stroke-width="2" d="M6.007 16.516l.021-.06.064-.142c1.155-2.1 3.426-3.442 5.928-3.442 2.508 0 4.778 1.347 5.932 3.462l.067.152.007.03.036.086c.05.133.082.268.082.432v.425c0 .816-.686 1.476-1.495 1.476H7.41c-.808 0-1.494-.66-1.494-1.476v-.425-.003c0-.223.008-.33.092-.515zm6.019-10.13c1.957 0 3.563 1.526 3.563 3.436s-1.606 3.438-3.563 3.438-3.563-1.527-3.563-3.438c0-1.91 1.606-3.437 3.563-3.437z"/>
        <path fill="#B9BCC4" stroke="#4F576C" stroke-width="2" d="M11.14 19.073l.042-.118.074-.16c1.812-3.162 5.37-5.181 9.29-5.181 3.926 0 7.483 2.026 9.29 5.212l.07.155.024.077.053.12c.061.154.1.315.1.495v.68c0 .979-.846 1.761-1.824 1.761h-15.4c-.976 0-1.824-.783-1.824-1.761v-.68-.006c0-.09.001-.144.01-.22.013-.128.04-.25.095-.374zm9.415-15.19c2.9 0 5.272 2.256 5.272 5.063 0 2.808-2.372 5.063-5.272 5.063-2.902 0-5.273-2.255-5.273-5.063 0-2.807 2.371-5.062 5.273-5.062z"/>
    </g>
</svg>
