<svg xmlns="http://www.w3.org/2000/svg" width="24" height="16" viewBox="0 0 24 16">
    <g fill="none" fill-rule="evenodd">
        <path fill="#FF9B00" d="M12.088 2c.22 0 .438.085.593.251a.756.756 0 01-.063 1.079c-.096.092-2.262 2.126-.956 5.917.86 2.434.605 4.807-.67 6.44-1.178 1.51-3.057 2.311-5.383 2.311h-.317c-.447-.03-.766-.37-.766-.8.033-.433.383-.74.829-.74.089.002.177.004.264.004 1.817 0 3.249-.611 4.1-1.7.987-1.263 1.115-3.05.445-5.023-1.656-4.776 1.275-7.426 1.402-7.55a.792.792 0 01.522-.19zm-5.956 9.238l2.673 2.376a.49.49 0 01.031.707.531.531 0 01-.731.03l-2.673-2.376a.491.491 0 01-.031-.707.532.532 0 01.731-.03zm2.219-2.924c.145 0 .293.002.444.008.446.03.797.37.765.801-.032.432-.414.74-.829.74a7.366 7.366 0 00-1.911.154s-.93.298-1.114.4a3.533 3.533 0 00-1.074.831 7.435 7.435 0 01-.162.232 6.96 6.96 0 00-.94 1.617.842.842 0 01-1.04.42c-.418-.15-.591-.6-.435-1.005.472-1.112 1.061-2 1.767-2.662.066-.064.136-.127.207-.187l.175-.143c.12-.092.243-.18.371-.261l.013-.009c.078-.049.158-.096.24-.142l.079-.044a5.613 5.613 0 01.305-.15c.878-.401 1.927-.6 3.139-.6zm9.109-.723c.084 0 .17.017.254.053.254.123.35.431.223.709-.032.092-1.147 2.157-4.683 2.157h-.318a.521.521 0 01-.51-.524c0-.277.255-.493.542-.493.095.003.188.005.278.005a6.12 6.12 0 001.92-.282c.164-.05 1.019-.524 1.019-.524.573-.4.796-.801.796-.801.09-.197.277-.3.479-.3zm-4.42-2.266l2.227 1.98a.49.49 0 01.03.707.531.531 0 01-.73.03l-2.227-1.98a.49.49 0 01-.031-.707.532.532 0 01.731-.03z" transform="translate(-2 -2)"/>
        <path fill="#FF9B00" stroke="#FFF" d="M18.999 4.5a6.5 6.5 0 110 13 6.5 6.5 0 010-13z" transform="translate(-2 -2)"/>
        <path fill="#FFF" fill-rule="nonzero" d="M19.104 14.018c.226 0 .416.077.57.23a.774.774 0 01.23.57c0 .25-.08.447-.24.59a.816.816 0 01-.56.216.845.845 0 01-.572-.213c-.162-.141-.244-.339-.244-.593a.798.798 0 01.816-.8zm.13-6.526c.519 0 .977.095 1.374.287.398.192.705.452.922.782.216.329.324.687.324 1.074 0 .304-.061.57-.185.8a2.45 2.45 0 01-.44.594c-.17.166-.476.446-.916.84-.122.111-.22.209-.293.293a1.19 1.19 0 00-.164.23c-.035.07-.063.14-.083.21-.02.07-.049.193-.088.368-.068.373-.282.559-.64.559a.653.653 0 01-.47-.183c-.127-.122-.19-.302-.19-.542 0-.301.046-.562.14-.782.093-.22.216-.413.37-.58.154-.166.362-.364.623-.593.23-.2.395-.352.497-.454a1.54 1.54 0 00.258-.341.825.825 0 00.104-.408.95.95 0 00-.32-.726c-.212-.197-.487-.295-.824-.295-.393 0-.684.1-.87.298-.186.199-.343.492-.472.878-.122.405-.353.607-.693.607-.2 0-.37-.07-.508-.212a.649.649 0 01-.207-.46c0-.34.11-.684.328-1.033.218-.35.537-.638.956-.868.419-.229.908-.343 1.466-.343z" transform="translate(-2 -2)"/>
    </g>
</svg>
