<svg xmlns="http://www.w3.org/2000/svg" width="24" height="16" viewBox="0 0 24 16">
    <g fill="none" fill-rule="evenodd">
        <path fill="#E38A00" d="M12.088 2c.22 0 .438.085.593.251.287.308.255.801-.063 1.079-.096.092-2.262 2.126-.956 5.917.86 2.434.605 4.807-.67 6.44-1.178 1.51-3.057 2.311-5.383 2.311h-.317c-.447-.03-.766-.37-.766-.8.033-.433.383-.74.829-.74.089.002.177.004.264.004 1.817 0 3.249-.611 4.1-1.7.987-1.263 1.115-3.05.445-5.023-1.656-4.776 1.275-7.426 1.402-7.55.147-.127.335-.19.522-.19zm-5.956 9.238l2.673 2.376c.21.186.223.505.031.707-.193.203-.522.217-.731.03l-2.673-2.376c-.21-.186-.224-.504-.031-.707.192-.203.522-.217.731-.03zm2.219-2.924c.145 0 .293.002.444.008.446.03.797.37.765.801-.032.432-.414.74-.829.74-.12-.006-.239-.008-.356-.008-.562 0-1.08.06-1.555.162 0 0-.93.298-1.114.4-.414.216-.787.492-1.074.831-.059.087-.113.165-.162.232-.354.453-.677.988-.94 1.617-.133.282-.433.47-.756.47-.094 0-.19-.015-.283-.05-.42-.15-.592-.6-.436-1.005.472-1.112 1.061-2 1.767-2.662.066-.064.136-.127.207-.187l.175-.143c.12-.092.243-.18.371-.261l.013-.009c.078-.049.158-.096.24-.142l.079-.044c.068-.037.138-.071.209-.105.031-.015.063-.031.096-.045.878-.401 1.927-.6 3.139-.6zm9.109-.723c.084 0 .17.017.254.053.254.123.35.431.223.709-.032.092-1.147 2.157-4.683 2.157h-.318c-.287 0-.51-.247-.51-.524s.255-.493.542-.493c.095.003.188.005.278.005.789 0 1.405-.116 1.92-.282.164-.05 1.019-.524 1.019-.524.573-.4.796-.801.796-.801.09-.197.277-.3.479-.3zm-4.42-2.266l2.227 1.98c.21.186.224.505.03.707-.191.203-.52.217-.73.03l-2.227-1.98c-.21-.186-.224-.505-.031-.707.192-.203.522-.216.731-.03z" transform="translate(-2 -2)"/>
        <path fill="#E38A00" stroke="#FFF" d="M18.999 4.5c3.59 0 6.5 2.91 6.5 6.5s-2.91 6.5-6.5 6.5-6.5-2.91-6.5-6.5 2.91-6.5 6.5-6.5z" transform="translate(-2 -2)"/>
        <path fill="#FFF" fill-rule="nonzero" d="M19.045 13.529c.358 0 .572-.186.64-.559.039-.175.068-.298.088-.368.02-.07.048-.14.083-.21.036-.069.09-.146.164-.23.074-.084.171-.182.293-.293.44-.394.746-.674.916-.84.17-.167.317-.365.44-.594.124-.23.185-.496.185-.8 0-.387-.108-.745-.324-1.074-.217-.33-.524-.59-.922-.782-.397-.192-.855-.287-1.375-.287-.558 0-1.047.114-1.466.343-.419.23-.738.519-.956.868-.218.349-.328.694-.328 1.034 0 .165.07.318.207.459.138.141.307.212.508.212.34 0 .57-.202.693-.607.129-.386.286-.68.472-.878.186-.199.477-.298.87-.298.337 0 .612.098.825.295.213.197.32.439.32.726 0 .146-.035.282-.105.408-.07.125-.156.239-.258.34-.102.103-.268.254-.497.455-.261.229-.469.427-.623.593-.154.167-.277.36-.37.58-.094.22-.14.48-.14.782 0 .24.063.42.19.542.128.122.284.183.47.183zm.06 2.095c.21 0 .397-.072.558-.215.161-.144.242-.34.242-.591 0-.226-.077-.415-.231-.57-.154-.153-.344-.23-.57-.23-.229 0-.422.077-.58.23-.157.155-.236.344-.236.57 0 .254.082.452.244.593.163.142.354.213.572.213z" transform="translate(-2 -2)"/>
    </g>
</svg>
