<svg xmlns="http://www.w3.org/2000/svg" width="29" height="18" viewBox="0 0 29 18">
    <g fill="none" fill-rule="evenodd">
        <path fill="#FF9B00" stroke="#FFF" d="M2.758 13l9.2-4.564 9.2 4.563-9.2 4.564-9.2-4.564z" transform="translate(-1 -1)"/>
        <path fill="#FF9B00" stroke="#FFF" d="M2.758 10l9.2-4.564 9.2 4.564-9.2 4.563L2.757 10z" transform="translate(-1 -1)"/>
        <path fill="#FF9B00" stroke="#FFF" d="M2.758 7l9.2-4.564L21.157 7l-9.2 4.563L2.757 7z" transform="translate(-1 -1)"/>
        <path fill="#FF9B00" stroke="#FFF" d="M22.056 4.5c3.623 0 6.561 2.908 6.561 6.5 0 3.59-2.938 6.5-6.561 6.5-3.623 0-6.562-2.91-6.562-6.5 0-3.592 2.939-6.5 6.562-6.5z" transform="translate(-1 -1)"/>
        <path fill="#FFF" fill-rule="nonzero" d="M22.077 13.714c.361 0 .577-.188.645-.564.04-.177.07-.301.09-.372.02-.07.048-.141.084-.212.036-.07.091-.148.166-.233.074-.085.172-.183.295-.296.445-.398.754-.68.926-.849.171-.168.32-.368.444-.6.125-.23.188-.5.188-.808 0-.39-.11-.752-.329-1.085-.218-.333-.529-.596-.93-.79-.402-.193-.865-.29-1.39-.29-.564 0-1.057.116-1.48.347-.424.232-.746.524-.967.877-.22.352-.33.7-.33 1.044 0 .167.069.321.208.464.14.143.31.214.513.214.344 0 .577-.204.7-.613.13-.39.29-.686.478-.887.188-.2.48-.301.879-.301.34 0 .617.1.833.298.215.2.322.444.322.733 0 .148-.035.286-.105.412-.07.127-.158.242-.26.345-.104.103-.271.256-.503.458-.264.232-.474.432-.63.6-.155.168-.28.364-.374.586-.094.223-.14.486-.14.79 0 .242.063.425.192.548.128.123.287.184.475.184zm.06 2.116c.213 0 .4-.072.564-.217.163-.144.244-.343.244-.597 0-.227-.078-.42-.233-.575-.156-.155-.348-.233-.576-.233-.231 0-.426.078-.586.233-.159.156-.238.348-.238.575 0 .257.082.457.247.6.164.143.357.214.577.214z" transform="translate(-1 -1)"/>
    </g>
</svg>
