<?xml version="1.0" encoding="iso-8859-1"?>
<!-- Generator: Adobe Illustrator 19.2.0, SVG Export Plug-In . SVG Version: 6.00 Build 0)  -->
<svg xmlns="http://www.w3.org/2000/svg" xmlns:xlink="http://www.w3.org/1999/xlink" version="1.1" id="Layer_1" x="0px" y="0px" viewBox="0 0 40 40" style="enable-background:new 0 0 40 40;" xml:space="preserve">
<g>
	<g>
		<polygon style="fill:#DFF0FE;" points="32.5,25.5 32.5,21.5 28.5,21.5 28.5,18.5 32.5,18.5 32.5,14.5 35.5,14.5 35.5,18.5     39.5,18.5 39.5,21.5 35.5,21.5 35.5,25.5   "/>
	</g>
	<g>
		<path style="fill:#4788C7;" d="M35,15v3v1h1h3v2h-3h-1v1v3h-2v-3v-1h-1h-3v-2h3h1v-1v-3H35 M36,14h-4v4h-4v4h4v4h4v-4h4v-4h-4V14    L36,14z"/>
	</g>
</g>
<g>
	<g>
		<path style="fill:#DFF0FE;" d="M21.173,34.5l-1.713-6H7.813l-1.712,6H0.695l9.726-29h6.66l9.502,29H21.173z M9.24,23.5h8.793    L14.138,9.855h-1.004L9.24,23.5z"/>
	</g>
	<g>
		<path style="fill:#4788C7;" d="M16.718,6l9.174,28H21.55l-1.506-5.275L19.837,28h-0.754H8.19H7.435l-0.207,0.726L5.723,34H1.39    l9.39-28H16.718 M8.577,24h1.325h7.468h1.325l-0.364-1.275l-3.61-12.644l-0.207-0.725H13.76h-0.249h-0.755l-0.207,0.726    L8.941,22.726L8.577,24 M17.443,5h-7.382L0,35h6.477l1.712-6h10.893l1.713,6h6.477L17.443,5L17.443,5z M9.902,23l3.609-12.644    h0.249L17.37,23H9.902L9.902,23z"/>
	</g>
</g>
</svg>
